<?xml version="1.0" encoding="utf-8"?>
<!-- Generator: Adobe Illustrator 19.2.0, SVG Export Plug-In . SVG Version: 6.00 Build 0)  -->
<svg version="1.1" id="Layer_1" xmlns="http://www.w3.org/2000/svg" xmlns:xlink="http://www.w3.org/1999/xlink" x="0px" y="0px"
	 viewBox="0 0 45 45" style="enable-background:new 0 0 45 45;" xml:space="preserve">
<style type="text/css">
	.st0{fill:#FFFFFF;}
</style>
<path class="st0" d="M19.4,9.5c-2.7,1.6-6.5,2.8-9.7,4.7c-11,6.3-7,16.9,4.2,6.1c10.2-9.9,8.2-9.8,18.3,0
	c11.2,10.8,15.2,0.2,4.2-6.1c-3.2-1.9-7-3.1-9.7-4.7c-0.4-0.2-0.8,0-0.6,0.4c0.4,0.6,0.9,1.3,1.7,1.8l10.9,8.4
	c0.1,0.1,0.1,0.3,0.1,0.4c-0.1,0.1-0.3,0.1-0.4,0.1l-11-8.1c-1.6-1.2-2.3-2.3-2.7-3.2C24.4,8.4,24.4,6.8,25,6
	c0.2-0.3,0.4-0.5,0.6-0.8C26,4.7,26.5,4.3,27,3.9c0-0.1,0-0.2-0.1-0.4c-0.1-0.1-0.3-0.1-0.4-0.1c-0.5,0.4-1,0.8-1.5,1.3
	c-2.1,2.3-2.7,1.7-4.3,0c-0.5-0.5-1-0.9-1.5-1.3c-0.1-0.1-0.3-0.1-0.4,0.1c-0.1,0.1-0.1,0.3,0.1,0.4c0.5,0.4,0.9,0.8,1.4,1.3
	c0.2,0.2,0.4,0.5,0.6,0.8c0.6,0.8,0.6,2.5,0.3,3.3c-0.3,0.9-1.1,2-2.7,3.2l-11,8.1c-0.1,0.1-0.3,0.1-0.4-0.1C7,20.4,7,20.2,7.2,20.1
	l10.9-8.4c0.8-0.5,1.4-1.2,1.7-1.8C20.2,9.6,19.8,9.3,19.4,9.5L19.4,9.5z M14.4,21.1c1.4-1.3,2.7-2.9,4.1-4.3c0.4-0.5,1-0.3,0.7,0.4
	c-0.6,1.7-1.5,3.7-2.7,5.5C14.6,25.6,11.1,24.1,14.4,21.1L14.4,21.1z M31.5,21.1c-1.4-1.3-2.7-2.9-4.1-4.3c-0.4-0.5-1-0.3-0.7,0.4
	c0.6,1.7,1.5,3.7,2.7,5.5C31.3,25.6,34.8,24.1,31.5,21.1L31.5,21.1z"/>
<path class="st0" d="M17.3,27c0.2,2.8,2.3,4.4,4.7,4.7c0.3,0,0.4,0.2,0.5,0.3c0.2,0.5,0.8,0.5,1,0c0.1-0.1,0.2-0.3,0.6-0.3
	c2.3-0.4,4.4-1.9,4.6-4.7c0.2-2.6-1.9-5.9-2.6-8.7c-0.4-1.3-0.6-2.4-1-3.1c-0.3-0.6-0.8-0.4-0.8,0.2c0.1,3.3,0.3,6.5,0.4,9.8
	c0,0.2,0,0.3,0.2,0.3s0.3,0,0.5,0l0,0c0.4,0,0.7,0.1,0.9,0.4l0,0c0.2,0.2,0.4,0.6,0.4,0.9c0,0.4-0.1,0.7-0.4,0.9
	c-0.2,0.2-0.6,0.4-0.9,0.4c-0.4,0-0.7-0.1-0.9-0.4l0,0c-0.2-0.2-0.4-0.6-0.4-0.9c0-0.2,0-0.3,0-0.5s-0.1-0.2-0.2-0.2
	c-0.6,0-1.2,0-1.7,0c-0.2,0-0.2,0-0.2,0.2s0,0.3,0,0.5c0,0.4-0.2,0.7-0.4,0.9l0,0c-0.2,0.2-0.5,0.4-0.9,0.4S20,28,19.8,27.7
	c-0.2-0.2-0.4-0.6-0.4-0.9c0-0.4,0.1-0.7,0.4-0.9l0,0c0.2-0.2,0.6-0.4,0.9-0.4l0,0c0.2,0,0.3,0,0.5,0s0.2-0.1,0.2-0.3
	c0.1-3.3,0.3-6.5,0.4-9.8c0-0.6-0.4-0.8-0.8-0.2c-0.4,0.7-0.7,1.8-1,3.1C19.1,21,17.1,24.4,17.3,27L17.3,27z M23.8,25.4
	c0.2,0,0.2-0.1,0.2-0.3c-0.2-3.5-0.3-7-0.5-10.5c0-0.9-1.1-0.9-1.2,0c-0.2,3.5-0.3,7-0.5,10.5c0,0.2,0,0.3,0.2,0.3
	C22.7,25.4,23.2,25.4,23.8,25.4L23.8,25.4z M25.4,26L25.4,26c0.2,0,0.3,0.1,0.5,0.2l0,0c0.1,0.1,0.2,0.3,0.2,0.5S26,27,25.9,27.2
	c-0.1,0.1-0.3,0.2-0.5,0.2s-0.3-0.1-0.4-0.2l0,0c-0.1-0.1-0.2-0.3-0.2-0.5C24.7,25.9,24.6,26,25.4,26L25.4,26z M20.5,26L20.5,26
	c-0.2,0-0.3,0.1-0.5,0.2l0,0c-0.1,0.1-0.2,0.3-0.2,0.5s0.1,0.3,0.2,0.5c0.1,0.1,0.3,0.2,0.5,0.2s0.3-0.1,0.4-0.2l0,0
	c0.1-0.1,0.2-0.3,0.2-0.5C21.2,25.9,21.3,26,20.5,26L20.5,26z"/>
<path class="st0" d="M26.2,34.8c-0.1-0.2,0.1-0.5,0.3-0.5c0.2-0.1,0.5,0.1,0.5,0.3l1.9,6.5c0.1,0.2-0.1,0.5-0.3,0.5
	c-0.2,0.1-0.5-0.1-0.5-0.3L26.2,34.8L26.2,34.8z M34.1,28.4c-0.2-0.1-0.3-0.4-0.2-0.6s0.4-0.3,0.6-0.2l4.7,2.6
	c0.2,0.1,0.3,0.4,0.2,0.6S39,31.1,38.8,31L34.1,28.4L34.1,28.4z M11.3,27.7c0.2-0.1,0.5,0,0.6,0.2s0,0.5-0.2,0.6L7,31
	c-0.2,0.1-0.5,0-0.6-0.2s0-0.5,0.2-0.6L11.3,27.7L11.3,27.7z M16.1,32.2c0.1-0.2,0.4-0.3,0.6-0.2s0.3,0.4,0.2,0.6L14,37.2
	c-0.1,0.2-0.4,0.3-0.6,0.2c-0.2-0.1-0.3-0.4-0.2-0.6L16.1,32.2L16.1,32.2z M29.1,32.7c-0.1-0.2,0-0.5,0.2-0.6s0.5,0,0.6,0.2l2.8,4.6
	c0.1,0.2,0,0.5-0.2,0.6s-0.5,0-0.6-0.2L29.1,32.7L29.1,32.7z M22.5,36c0-0.2,0.2-0.4,0.4-0.4c0.2,0,0.4,0.2,0.4,0.4v3.4
	c0,0.2-0.2,0.4-0.4,0.4c-0.2,0-0.4-0.2-0.4-0.4V36L22.5,36z M14.9,28.8c0.2-0.2,0.5-0.2,0.6,0c0.2,0.2,0.2,0.4,0,0.6l-7.4,6.9
	c-0.2,0.2-0.5,0.2-0.6,0c-0.2-0.2-0.2-0.4,0-0.6L14.9,28.8L14.9,28.8z M18.9,34.6c0.1-0.2,0.3-0.4,0.5-0.3c0.2,0.1,0.4,0.3,0.3,0.5
	l-1.9,6.5c-0.1,0.2-0.3,0.4-0.5,0.3c-0.2-0.1-0.4-0.3-0.3-0.5L18.9,34.6L18.9,34.6z M30.4,29.4c-0.2-0.2-0.2-0.4,0-0.6
	s0.5-0.2,0.6,0l7.4,6.9c0.2,0.2,0.2,0.4,0,0.6c-0.2,0.2-0.5,0.2-0.6,0L30.4,29.4L30.4,29.4z"/>
</svg>
