<?xml version="1.0" encoding="utf-8"?>
<!-- Generator: Adobe Illustrator 19.2.0, SVG Export Plug-In . SVG Version: 6.00 Build 0)  -->
<svg version="1.1" id="Layer_1" xmlns="http://www.w3.org/2000/svg" xmlns:xlink="http://www.w3.org/1999/xlink" x="0px" y="0px"
	 viewBox="0 0 200 45" style="enable-background:new 0 0 200 45;" xml:space="preserve">
<style type="text/css">
	.st0{fill:#FFFFFF;}
</style>
<path class="st0" d="M8.2,31.5c0,0.3,0.2,0.5,0.5,0.5h10.4c0.3,0,0.5-0.2,0.5-0.5v-2.1c0-0.3-0.2-0.5-0.5-0.5h-7.6v-4.5h6.3
	c0.3,0,0.5-0.2,0.5-0.5v-2.1c0-0.3-0.2-0.5-0.5-0.5h-6.3v-4.2h7.6c0.3,0,0.5-0.2,0.5-0.5v-2.1c0-0.3-0.2-0.5-0.5-0.5H8.7
	c-0.3,0-0.5,0.2-0.5,0.5V31.5L8.2,31.5z M114.2,31.5c0,0.3,0.2,0.5,0.5,0.5h2.4c0.3,0,0.5-0.2,0.5-0.5v-8.2l5.9-8.5
	c0.2-0.3,0-0.7-0.4-0.7h-2.6c-0.2,0-0.3,0.1-0.4,0.2l-4.1,5.9l-4.1-5.9c-0.1-0.1-0.2-0.2-0.4-0.2h-2.6c-0.4,0-0.6,0.4-0.4,0.7
	l5.9,8.6v8.1H114.2z M87.6,23c0,5.1,4.1,9.2,9.2,9.2c3.7,0,6.4-1.7,6.4-1.7c0.1-0.1,0.2-0.2,0.2-0.4v-6.6c0-0.3-0.2-0.5-0.5-0.5H98
	c-0.3,0-0.5,0.2-0.5,0.5v2c0,0.3,0.2,0.5,0.5,0.5h2.1v2.2c-0.5,0.2-1.6,0.6-3.1,0.6c-3.2,0-5.8-2.7-5.8-5.9s2.5-6,5.8-6
	c1.4,0,2.8,0.5,3.9,1.5c0.2,0.2,0.5,0.2,0.7,0l1.6-1.7c0.2-0.2,0.2-0.5,0-0.7c-1.7-1.5-4-2.4-6.3-2.4C91.7,13.8,87.6,17.9,87.6,23
	L87.6,23z M68.1,31.5c0,0.3,0.2,0.5,0.5,0.5H71c0.3,0,0.5-0.2,0.5-0.5V25h2.8l3.4,6.8c0.1,0.1,0.2,0.2,0.4,0.2h2.7
	c0.4,0,0.6-0.4,0.4-0.7l-3.5-6.5c2.2-0.9,3.8-2.8,3.8-5.2c0-3.1-2.5-5.5-5.6-5.5h-7.3c-0.3,0-0.5,0.2-0.5,0.5L68.1,31.5L68.1,31.5z
	 M71.5,22.2v-5.1h4.2c1.4,0,2.5,1.1,2.5,2.5s-1.2,2.6-2.5,2.6H71.5L71.5,22.2z M49.7,31.5c0,0.3,0.2,0.5,0.5,0.5h10.4
	c0.3,0,0.5-0.2,0.5-0.5v-2.1c0-0.3-0.2-0.5-0.5-0.5H53v-4.5h6.3c0.3,0,0.5-0.2,0.5-0.5v-2.1c0-0.3-0.2-0.5-0.5-0.5H53v-4.2h7.6
	c0.3,0,0.5-0.2,0.5-0.5v-2.1c0-0.3-0.2-0.5-0.5-0.5H50.2c-0.3,0-0.5,0.2-0.5,0.5V31.5L49.7,31.5z M26.6,31.5c0,0.3,0.2,0.5,0.5,0.5
	h2.3c0.3,0,0.5-0.2,0.5-0.5v-11l0,0l10.5,11.6c0.1,0.1,0.3,0.2,0.4,0.2h0.4c0.3,0,0.5-0.2,0.5-0.5V14.5c0-0.3-0.2-0.5-0.5-0.5h-2.4
	c-0.3,0-0.5,0.2-0.5,0.5v10.6l0,0L27.9,14c-0.1-0.1-0.3-0.2-0.4-0.2h-0.4c-0.3,0-0.5,0.2-0.5,0.5V31.5L26.6,31.5z"/>
<path class="st0" d="M128.8,31.6v-1.3c0-0.3,0.1-0.4,0.4-0.4h1.4V16.2h-1.4c-0.3,0-0.4-0.1-0.4-0.4v-1.3c0-0.3,0.1-0.4,0.4-0.4
	c2.1-0.1,4.1-0.1,6-0.1s3.4,0.4,4.5,1.1c1.1,0.7,1.7,1.8,1.7,3.1c0,1-0.3,1.8-0.9,2.6c-0.6,0.7-1.3,1.3-2.1,1.6
	c1.4,0.2,2.4,0.7,3.1,1.5c0.7,0.8,1.1,1.8,1.1,2.9c0,1.5-0.6,2.7-1.7,3.6c-1.1,0.9-2.6,1.4-4.4,1.6c-0.8,0.1-2,0.1-3.6,0.1h-3.7
	C129,32,128.8,31.8,128.8,31.6L128.8,31.6z M182.8,16.2v13.7h6.8l-0.1-1.8c0-0.3,0.1-0.4,0.4-0.4h1.5c0.3,0,0.4,0.1,0.4,0.4v3.5
	c0,0.3-0.1,0.4-0.4,0.4h-12.9c-0.3,0-0.4-0.1-0.4-0.4v-1.3c0-0.3,0.1-0.4,0.4-0.4h1.4V16.2h-1.4c-0.3,0-0.4-0.1-0.4-0.4v-1.3
	c0-0.3,0.1-0.4,0.4-0.4h6.3c0.3,0,0.4,0.1,0.4,0.4v1.3c0,0.3-0.1,0.4-0.4,0.4H182.8L182.8,16.2z M164.5,16.2v13.7h6.8l-0.1-1.8
	c0-0.3,0.1-0.4,0.4-0.4h1.5c0.3,0,0.4,0.1,0.4,0.4v3.5c0,0.3-0.1,0.4-0.4,0.4h-12.9c-0.3,0-0.4-0.1-0.4-0.4v-1.3
	c0-0.3,0.1-0.4,0.4-0.4h1.4V16.2h-1.4c-0.3,0-0.4-0.1-0.4-0.4v-1.3c0-0.3,0.1-0.4,0.4-0.4h6.3c0.3,0,0.4,0.1,0.4,0.4v1.3
	c0,0.3-0.1,0.4-0.4,0.4H164.5L164.5,16.2z M152.5,16.2v13.7h1.4c0.3,0,0.4,0.1,0.4,0.4v1.3c0,0.3-0.1,0.4-0.4,0.4h-5.7
	c-0.3,0-0.4-0.1-0.4-0.4v-1.3c0-0.3,0.1-0.4,0.4-0.4h1.4V16.2h-1.4c-0.3,0-0.4-0.1-0.4-0.4v-1.3c0-0.3,0.1-0.4,0.4-0.4h5.7
	c0.3,0,0.4,0.1,0.4,0.4v1.3c0,0.3-0.1,0.4-0.4,0.4H152.5L152.5,16.2z M133.6,23.7V30h1.2c1.5,0,2.7-0.2,3.6-0.7
	c0.9-0.5,1.3-1.3,1.3-2.6c0-2-1.4-3-4.2-3L133.6,23.7L133.6,23.7z M133.6,16v5.4h1c2.6,0,3.9-0.9,3.9-2.7c0-1-0.3-1.7-0.9-2.1
	c-0.6-0.4-1.5-0.6-2.7-0.6L133.6,16L133.6,16z"/>
</svg>
