<?xml version="1.0" encoding="utf-8"?>
<!-- Generator: Adobe Illustrator 18.0.0, SVG Export Plug-In . SVG Version: 6.00 Build 0)  -->
<!DOCTYPE svg PUBLIC "-//W3C//DTD SVG 1.1//EN" "http://www.w3.org/Graphics/SVG/1.1/DTD/svg11.dtd">
<svg version="1.1" id="Layer_1" xmlns="http://www.w3.org/2000/svg" xmlns:xlink="http://www.w3.org/1999/xlink" x="0px" y="0px"
	 viewBox="0 0 144.6 96" enable-background="new 0 0 144.6 96" xml:space="preserve">
<g>
	<path fill="#FFFFFF" d="M54,66.3c-2.4,0-4.4-2-4.4-4.4V5.2h-0.8c-1.3,0-2.4,1.1-2.4,2.4v59.5c0,1.3,1.1,2.4,2.4,2.4h46.6
		c1.3,0,2.4-1.1,2.4-2.4v-0.8H54z"/>
	<path fill="#FFFFFF" d="M100.7,0H54c-1.3,0-2.4,1.1-2.4,2.4v49.7c0,0.1,0,0.1,0,0.2l0,0v9.6c0,1.3,1.1,2.4,2.4,2.4h46.6
		c1.3,0,2.4-1.1,2.4-2.4V12.2V2.4C103.1,1.1,102,0,100.7,0z"/>
</g>
<g>
	
		<polyline fill="none" stroke="#FFFFFF" stroke-width="2" stroke-linecap="round" stroke-linejoin="round" stroke-miterlimit="10" points="
		31.1,89.4 22.4,86.1 23.1,78.7 30.3,79.2 	"/>
	
		<polyline fill="none" stroke="#FFFFFF" stroke-width="2" stroke-linecap="round" stroke-linejoin="round" stroke-miterlimit="10" points="
		32.1,88.3 32,91 40.9,89.9 37.4,81.7 33,77.8 28.8,80 26.9,83.3 32.4,85 32.5,83.8 37.2,84.2 40.3,84.8 45.6,87.4 43.3,91.6 
		38.5,93.4 36.7,90.4 	"/>
	
		<polyline fill="none" stroke="#FFFFFF" stroke-width="2" stroke-linecap="round" stroke-linejoin="round" stroke-miterlimit="10" points="
		43.1,86.1 41.6,82.1 43.7,79.1 33.4,74.1 28,76.9 25.5,78.8 	"/>
	
		<polyline fill="none" stroke="#FFFFFF" stroke-width="2" stroke-linecap="round" stroke-linejoin="round" stroke-miterlimit="10" points="
		37.4,91.2 33.1,95 27.8,94.8 24.8,87.7 	"/>
</g>
<g>
	
		<polyline fill="none" stroke="#FFFFFF" stroke-width="2" stroke-linecap="round" stroke-linejoin="round" stroke-miterlimit="10" points="
		9.6,45 9.1,57.8 18.8,60.9 22.1,51.5 	"/>
	
		<polyline fill="none" stroke="#FFFFFF" stroke-width="2" stroke-linecap="round" stroke-linejoin="round" stroke-miterlimit="10" points="
		11.5,44.4 8.1,43 14.3,32.5 22.7,41.2 25.3,48.9 20.2,53 15,53.6 15.8,45.8 17.4,46.3 19.4,40.1 20.3,35.9 19.9,27.9 13.4,28.5 
		8.5,33.5 11.3,37.5 	"/>
	
		<polyline fill="none" stroke="#FFFFFF" stroke-width="2" stroke-linecap="round" stroke-linejoin="round" stroke-miterlimit="10" points="
		20.2,31.7 24.5,35.8 29.4,34.7 30.1,50.4 23.7,55.7 19.9,57.7 	"/>
	
		<polyline fill="none" stroke="#FFFFFF" stroke-width="2" stroke-linecap="round" stroke-linejoin="round" stroke-miterlimit="10" points="
		10.7,36.2 3.7,39.5 1,46.3 8.4,53.9 	"/>
</g>
<g>
	
		<polyline fill="none" stroke="#FFFFFF" stroke-width="2" stroke-linecap="round" stroke-linejoin="round" stroke-miterlimit="10" points="
		124.7,62.6 132.7,52.6 142,56.8 138.3,65.9 	"/>
	
		<polyline fill="none" stroke="#FFFFFF" stroke-width="2" stroke-linecap="round" stroke-linejoin="round" stroke-miterlimit="10" points="
		125.7,64.3 122.2,63 119.9,75 132,74.1 139,70 137.9,63.6 134.4,59.6 129.8,66.1 131.4,66.7 128.8,72.7 126.6,76.5 121,82.2 
		116.5,77.4 116.2,70.4 121,69.3 	"/>
	
		<polyline fill="none" stroke="#FFFFFF" stroke-width="2" stroke-linecap="round" stroke-linejoin="round" stroke-miterlimit="10" points="
		123.8,79.5 129.7,79.3 132.7,83.4 143.6,72 142.3,63.8 140.8,59.9 	"/>
	
		<polyline fill="none" stroke="#FFFFFF" stroke-width="2" stroke-linecap="round" stroke-linejoin="round" stroke-miterlimit="10" points="
		119.6,69.9 116.5,62.7 119,55.9 129.6,55 	"/>
</g>
<rect x="83.6" y="7.6" fill="none" width="13.1" height="17.3"/>
<text transform="matrix(1 0 0 1 83.624 19.7608)" font-family="'OpenSans-Bold'" font-size="15.9943">π</text>
<rect x="60.9" y="29.2" fill="none" width="32.4" height="15.2"/>
<text transform="matrix(1 0 0 1 60.9482 39.8321)" font-family="'OpenSans-Bold'" font-size="14.0364">@ - !</text>
<rect x="83.6" y="46.7" fill="none" width="7" height="15.2"/>
<text transform="matrix(1 0 0 1 83.6235 57.3487)" font-family="'OpenSans-Bold'" font-size="14.0364">?</text>
<rect x="62.1" y="47.2" fill="none" width="9.5" height="15.2"/>
<text transform="matrix(1 0 0 1 62.0688 57.8623)" font-family="'OpenSans-Bold'" font-size="14.0364">= </text>
<rect x="74.1" y="10.1" fill="none" width="6.8" height="12.3"/>
<text transform="matrix(1 0 0 1 74.0688 18.751)" font-family="'OpenSans-Bold'" font-size="11.3898">+</text>
<rect x="59.3" y="8.2" fill="none" width="17" height="21.9"/>
<text transform="matrix(1 0 0 1 59.3222 20.3203)" font-family="'OpenSans-Bold'" font-size="15.9943">%</text>
<line fill="none" stroke="#231F20" stroke-linecap="round" stroke-linejoin="round" stroke-miterlimit="10" x1="59.3" y1="25" x2="94.6" y2="25"/>
<path fill="#231F20" d="M77.2,52v-2.2c0.6,0.2,1.3,0.6,1.3,0.7c0.3,0.2,0.7-0.5,0.9-0.9c0.1-0.1,0-0.3-0.1-0.4
	c-0.2-0.2-1.1-0.7-2.2-0.8V48c0-0.1-0.1-0.2-0.2-0.2h-0.2c-0.1,0-0.2,0.1-0.2,0.2v0.4c-1.7,0.1-2.5,1.2-2.5,2.4
	c0,1.6,1.3,2.3,2.5,2.8c0,0.8,0,1.6,0,2.4c-0.8-0.2-1.5-0.7-1.5-0.8c-0.3-0.3-0.6,0.5-0.9,0.9c-0.1,0.2,0,0.3,0.1,0.4
	c0.2,0.2,1,0.9,2.4,1v1.3c0,0.2,0.2,0.2,0.4,0.2c0.1,0,0.3-0.1,0.3-0.2v-1.3c1.7-0.1,2.6-1.1,2.6-2.5C79.8,53.2,78.3,52.5,77.2,52z
	 M76.6,51.7c-0.6-0.3-0.9-0.7-0.9-1.2c0-0.4,0.3-0.7,0.9-0.8V51.7z M77.2,56v-2.2c0.6,0.4,0.9,0.8,0.9,1.2
	C78.2,55.5,77.8,55.9,77.2,56z"/>
</svg>
