<?xml version="1.0" encoding="utf-8"?>
<!-- Generator: Adobe Illustrator 18.0.0, SVG Export Plug-In . SVG Version: 6.00 Build 0)  -->
<!DOCTYPE svg PUBLIC "-//W3C//DTD SVG 1.1//EN" "http://www.w3.org/Graphics/SVG/1.1/DTD/svg11.dtd">
<svg version="1.1" id="Layer_1" xmlns="http://www.w3.org/2000/svg" xmlns:xlink="http://www.w3.org/1999/xlink" x="0px" y="0px"
	 viewBox="0 0 225.9 165.2" enable-background="new 0 0 225.9 165.2" xml:space="preserve">
<g>
	<path fill="#E6B209" d="M71.6,0H33.8c-0.6,0-1,0.4-1,1v5H21c-0.3,0-0.6,0.2-0.8,0.4l-5.5,8.2c-0.1,0.1-0.2,0.3-0.3,0.4
		c0,0.1,0,0.2-0.1,0.3c0,0,0,0,0,0v37.8c0,0.6,0.4,1,1,1h18.5h0h37.8c0.6,0,1-0.4,1-1V1C72.6,0.4,72.2,0,71.6,0z M70.6,52.2H49.5
		V40.7c0-0.6-0.4-1-1-1h-6.9c-0.6,0-1,0.4-1,1v11.6h-5.8V2h35.8V52.2z M47.5,52.2h-4.9V41.7h4.9V52.2z M32.8,14.4H17.3L21.6,8h11.3
		V14.4z M16.4,16.4h16.5v35.8H16.4V16.4z"/>
	<path fill="#E6B209" d="M63.9,38.9h-6.7c-0.6,0-1,0.4-1,1V48c0,0.6,0.4,1,1,1h6.7c0.6,0,1-0.4,1-1v-8.1
		C64.9,39.3,64.4,38.9,63.9,38.9z M62.9,47h-4.7v-6.1h4.7V47z"/>
	<path fill="#E6B209" d="M27.9,38.9h-6.7c-0.6,0-1,0.4-1,1V48c0,0.6,0.4,1,1,1h6.7c0.6,0,1-0.4,1-1v-8.1
		C28.9,39.3,28.5,38.9,27.9,38.9z M26.9,47h-4.7v-6.1h4.7V47z"/>
	<path fill="#E6B209" d="M21.3,24c-0.6,0-1,0.4-1,1v6.7c0,0.6,0.4,1,1,1h6.7c0.6,0,1-0.4,1-1V25c0-0.6-0.4-1-1-1H21.3z M26.9,30.7
		h-4.7V26h4.7V30.7z"/>
	<path fill="#E6B209" d="M48.3,8.8v6.7c0,0.6,0.4,1,1,1h3.8H56c0.6,0,1-0.4,1-1V8.8c0-0.6-0.4-1-1-1h-6.7
		C48.8,7.8,48.3,8.2,48.3,8.8z M55,9.8v4.7h-3.9h-0.8V9.8H55z"/>
	<path fill="#E6B209" d="M56.2,25v6.7c0,0.6,0.4,1,1,1h6.7c0.6,0,1-0.4,1-1V25c0-0.6-0.4-1-1-1h-6.7C56.7,24,56.2,24.4,56.2,25z
		 M58.2,26h4.7v4.7h-4.7V26z"/>
	<path fill="#E6B209" d="M48.4,24h-6.7c-0.6,0-1,0.4-1,1v6.7c0,0.6,0.4,1,1,1h6.7c0.6,0,1-0.4,1-1V25C49.4,24.4,48.9,24,48.4,24z
		 M47.4,30.7h-4.7V26h4.7V30.7z"/>
</g>
<g>
	<path fill="#E6B209" d="M115,25.2h-1.6c-0.3,0-0.6,0.1-0.8,0.4L106,34c-0.2,0.2-0.2,0.5-0.2,0.7c0,0,0,0,0,0.1v18.5
		c0,0.6,0.4,1,1,1h24.6h13.2h28.7h13.6h24.2c0.6,0,1-0.4,1-1V34.8c0,0,0,0,0-0.1c0-0.3,0-0.5-0.2-0.7l-6.6-8.4
		c-0.2-0.2-0.5-0.4-0.8-0.4h-16.6V20c0-0.1,0-0.1,0-0.2c0-0.1,0-0.2,0-0.2c0-0.3-0.2-0.6-0.4-0.8l-8.2-8.3c-0.2-0.2-0.4-0.3-0.7-0.3
		H141c-0.2,0-0.5,0.1-0.7,0.2l-6,5.2l-2.3,2l-1.4,1.2c-0.3,0.2-0.4,0.6-0.3,1c0,0.1,0,0.1,0,0.2v5.2h-12.5H115z M210.1,52.2h-22.2
		V35.8h22.2V52.2z M161.1,52.2h-4.9V41.7h4.9V52.2z M162.1,39.7h-6.9c-0.6,0-1,0.4-1,1v11.6h-10.6h-11.2V21h53.6v31.2h-11.6h-11.2
		V40.7C163.1,40.1,162.7,39.7,162.1,39.7z M178.2,12.2l6.3,6.4H134l7.4-6.4H178.2z M130.4,27.2v6.4h-21.5l5-6.4H130.4z M107.8,35.8
		h22.6v16.5h-22.6V35.8z M187.9,33.6v-6.4h16.1l5,6.4H187.9z"/>
	<path fill="#E6B209" d="M195.4,48.3h6.7c0.6,0,1-0.4,1-1v-6.7c0-0.6-0.4-1-1-1h-6.7c-0.6,0-1,0.4-1,1v6.7
		C194.4,47.9,194.9,48.3,195.4,48.3z M196.4,41.7h4.7v4.7h-4.7V41.7z"/>
	<path fill="#E6B209" d="M149,38.9h-11.7c-0.6,0-1,0.4-1,1V48c0,0.6,0.4,1,1,1H149c0.6,0,1-0.4,1-1v-8.1
		C150,39.3,149.5,38.9,149,38.9z M148,47h-9.7v-6.1h9.7V47z"/>
	<path fill="#E6B209" d="M149,25.3h-11.7c-0.6,0-1,0.4-1,1v8.1c0,0.6,0.4,1,1,1H149c0.6,0,1-0.4,1-1v-8.1
		C150,25.8,149.5,25.3,149,25.3z M148,33.4h-9.7v-6.1h9.7V33.4z"/>
	<path fill="#E6B209" d="M168,49h11.7c0.6,0,1-0.4,1-1v-8.1c0-0.6-0.4-1-1-1H168c-0.6,0-1,0.4-1,1V48C167,48.5,167.4,49,168,49z
		 M169,40.9h9.7V47H169V40.9z"/>
	<path fill="#E6B209" d="M168,35.4h11.7c0.6,0,1-0.4,1-1v-8.1c0-0.6-0.4-1-1-1H168c-0.6,0-1,0.4-1,1v8.1C167,35,167.4,35.4,168,35.4
		z M169,27.3h9.7v6.1H169V27.3z"/>
	<path fill="#E6B209" d="M122.5,39.7h-6.7c-0.6,0-1,0.4-1,1v6.7c0,0.6,0.4,1,1,1h6.7c0.6,0,1-0.4,1-1v-6.7
		C123.5,40.1,123.1,39.7,122.5,39.7z M121.5,46.3h-4.7v-4.7h4.7V46.3z"/>
</g>
<line fill="none" stroke="#27242D" stroke-width="2" stroke-linecap="round" stroke-linejoin="round" stroke-miterlimit="10" x1="93.3" y1="54.2" x2="93.3" y2="137.2"/>
<line fill="none" stroke="#27242D" stroke-width="2" stroke-linecap="round" stroke-linejoin="round" stroke-miterlimit="10" x1="200.6" y1="62.2" x2="116.9" y2="62.2"/>
<line fill="none" stroke="#27242D" stroke-width="2" stroke-linecap="round" stroke-linejoin="round" stroke-miterlimit="10" x1="211.1" y1="53.2" x2="211.1" y2="62.2"/>
<polyline fill="none" stroke="#27242D" stroke-width="2" stroke-linecap="round" stroke-linejoin="round" stroke-miterlimit="10" points="
	211.1,62.2 211.1,76.3 222.9,76.3 222.9,90.5 179.7,90.5 179.7,77.8 195.4,77.8 195.4,83.5 211.1,83.5 "/>
<polyline fill="none" stroke="#27242D" stroke-width="2" stroke-linecap="round" stroke-linejoin="round" stroke-miterlimit="10" points="
	161.8,63.5 161.8,84.5 170.9,84.5 170.9,70.1 203.5,70.1 203.5,78 "/>
<polyline fill="none" stroke="#27242D" stroke-width="2" stroke-linecap="round" stroke-linejoin="round" stroke-miterlimit="10" points="
	135.3,87 135.3,70.1 144.6,70.1 144.6,95.2 102.8,95.2 102.8,106 170.9,106 170.9,95.2 153.6,95.2 153.6,70.2 "/>
<polyline fill="none" stroke="#27242D" stroke-width="2" stroke-linecap="round" stroke-linejoin="round" stroke-miterlimit="10" points="
	17.4,53.2 17.4,67.8 45.5,67.8 49.6,67.8 49.6,71.5 49.6,78.8 34.4,78.8 34.4,88.8 63.7,88.8 81.7,88.8 81.7,98.5 46.7,98.5 
	46.7,113.5 26.6,113.5 26.6,130.5 43.6,130.5 43.6,122.2 33.1,122.2 "/>
<polyline fill="none" stroke="#27242D" stroke-width="2" stroke-linecap="round" stroke-linejoin="round" stroke-miterlimit="10" points="
	73.6,53.2 73.6,57.7 73.6,68.9 73.6,79.2 82.9,79.2 82.9,59.9 "/>
<polyline fill="none" stroke="#27242D" stroke-width="2" stroke-linecap="round" stroke-linejoin="round" stroke-miterlimit="10" points="
	106.8,53.2 106.8,70.2 125.7,70.2 125.7,87 102.8,87 102.8,78.3 117.1,78.3 "/>
<polyline fill="none" stroke="#27242D" stroke-width="2" stroke-linecap="round" stroke-linejoin="round" stroke-miterlimit="10" points="
	17.4,67.8 9.6,67.8 9.6,93.8 17.9,93.8 17.9,76 "/>
<polyline fill="none" stroke="#27242D" stroke-width="2" stroke-linecap="round" stroke-linejoin="round" stroke-miterlimit="10" points="
	73.6,70.1 56.9,70.1 56.9,59.9 65.9,59.9 65.9,65 "/>
<polyline fill="none" stroke="#27242D" stroke-width="2" stroke-linecap="round" stroke-linejoin="round" stroke-miterlimit="10" points="
	62.5,88.8 62.5,79.2 56.9,79.2 "/>
<line fill="none" stroke="#27242D" stroke-width="2" stroke-linecap="round" stroke-linejoin="round" stroke-miterlimit="10" x1="62.5" y1="98.5" x2="62.5" y2="109.7"/>
<polyline fill="none" stroke="#27242D" stroke-width="2" stroke-linecap="round" stroke-linejoin="round" stroke-miterlimit="10" points="
	179.2,129.2 161.8,129.2 161.8,137.1 203.6,137.1 "/>
<polyline fill="none" stroke="#27242D" stroke-width="2" stroke-linecap="round" stroke-linejoin="round" stroke-miterlimit="10" points="
	130,137.2 115.3,137.2 115.3,145 210.9,145 210.9,137.2 210.9,129.2 186.9,129.2 186.9,137.1 "/>
<polyline fill="none" stroke="#27242D" stroke-width="2" stroke-linecap="round" stroke-linejoin="round" stroke-miterlimit="10" points="
	104.8,159.2 104.8,130.5 140.3,130.5 "/>
<polyline fill="none" stroke="#27242D" stroke-width="2" stroke-linecap="round" stroke-linejoin="round" stroke-miterlimit="10" points="
	17.9,145 81.3,145 81.3,130.5 41.9,130.5 "/>
<polyline fill="none" stroke="#27242D" stroke-width="2" stroke-linecap="round" stroke-linejoin="round" stroke-miterlimit="10" points="
	17.9,80.5 17.9,138.4 72.2,138.4 "/>
<polyline fill="none" stroke="#27242D" stroke-width="2" stroke-linecap="round" stroke-linejoin="round" stroke-miterlimit="10" points="
	26.6,68.2 26.6,104.1 38.9,104.1 "/>
<polyline fill="none" stroke="#27242D" stroke-width="2" stroke-linecap="round" stroke-linejoin="round" stroke-miterlimit="10" points="
	54.7,107.1 54.7,122.5 71.1,122.5 71.1,107 93.3,107 "/>
<line fill="none" stroke="#27242D" stroke-width="2" stroke-linecap="round" stroke-linejoin="round" stroke-miterlimit="10" x1="81.3" y1="134.7" x2="81.3" y2="115.3"/>
<path fill="none" stroke="#27242D" stroke-width="2" stroke-linecap="round" stroke-linejoin="round" stroke-miterlimit="10" d="
	M49.6,59.9"/>
<line fill="none" stroke="#27242D" stroke-width="2" stroke-linecap="round" stroke-linejoin="round" stroke-miterlimit="10" x1="34.4" y1="88.8" x2="34.4" y2="97.2"/>
<polyline fill="none" stroke="#27242D" stroke-width="2" stroke-linecap="round" stroke-linejoin="round" stroke-miterlimit="10" points="
	215.7,114.7 200.1,114.7 200.1,106 222.9,106 222.9,90.5 "/>
<polyline fill="none" stroke="#27242D" stroke-width="2" stroke-linecap="round" stroke-linejoin="round" stroke-miterlimit="10" points="
	161.7,122.5 222.9,122.5 222.9,114.7 "/>
<line fill="none" stroke="#27242D" stroke-width="2" stroke-linecap="round" stroke-linejoin="round" stroke-miterlimit="10" x1="93.3" y1="122.5" x2="150.2" y2="122.5"/>
<polyline fill="none" stroke="#27242D" stroke-width="2" stroke-linecap="round" stroke-linejoin="round" stroke-miterlimit="10" points="
	217.6,98.5 202.3,98.5 200.6,98.5 179.7,98.5 "/>
<line fill="none" stroke="#27242D" stroke-width="2" stroke-linecap="round" stroke-linejoin="round" stroke-miterlimit="10" x1="202.3" y1="91.9" x2="202.3" y2="98.5"/>
<polyline fill="none" stroke="#27242D" stroke-width="2" stroke-linecap="round" stroke-linejoin="round" stroke-miterlimit="10" points="
	179.2,106 190.6,106 190.6,114.7 164.9,114.7 104.8,114.7 93.3,114.7 "/>
<polyline fill="none" stroke="#27242D" stroke-width="2" stroke-linecap="round" stroke-linejoin="round" stroke-miterlimit="10" points="
	28.1,145 11.4,145 11.4,129.9 1,129.9 1,67.8 10.9,67.8 "/>
<line fill="none" stroke="#27242D" stroke-width="2" stroke-linecap="round" stroke-linejoin="round" stroke-miterlimit="10" x1="9.6" y1="88.8" x2="9.6" y2="122.5"/>
<polyline fill="none" stroke="#27242D" stroke-width="2" stroke-linecap="round" stroke-linejoin="round" stroke-miterlimit="10" points="
	137.3,145 137.3,137.1 151.1,137.1 151.1,129.2 "/>
<polyline fill="none" stroke="#27242D" stroke-width="2" stroke-linecap="round" stroke-linejoin="round" stroke-miterlimit="10" points="
	222.9,105.3 222.9,122.5 222.9,129.2 210.9,129.2 "/>
<path fill="#FFFFFF" stroke="#27242D" stroke-width="2" stroke-linecap="round" stroke-linejoin="round" stroke-miterlimit="10" d="
	M1,61.5"/>
<line fill="none" stroke="#27242D" stroke-width="2" stroke-linecap="round" stroke-linejoin="round" stroke-miterlimit="10" x1="129.6" y1="105.3" x2="129.6" y2="100.2"/>
<line fill="none" stroke="#27242D" stroke-width="2" stroke-linecap="round" stroke-linejoin="round" stroke-miterlimit="10" x1="144.6" y1="95.2" x2="144.6" y2="100.5"/>
<line fill="none" stroke="#27242D" stroke-width="2" stroke-linecap="round" stroke-linejoin="round" stroke-miterlimit="10" x1="114.9" y1="95.2" x2="114.9" y2="100.5"/>
<polyline fill="none" stroke="#27242D" stroke-width="2" stroke-linecap="round" stroke-linejoin="round" stroke-miterlimit="10" points="
	40.6,67.8 40.6,60.2 26.6,60.2 "/>
<line fill="none" stroke="#27242D" stroke-width="2" stroke-linecap="round" stroke-linejoin="round" stroke-miterlimit="10" x1="49.6" y1="59.9" x2="59.7" y2="59.9"/>
<line fill="none" stroke="#27242D" stroke-width="2" stroke-linecap="round" stroke-linejoin="round" stroke-miterlimit="10" x1="81.3" y1="145" x2="81.3" y2="159.2"/>
<line fill="none" stroke="#27242D" stroke-width="2" stroke-linecap="round" stroke-linejoin="round" stroke-miterlimit="10" x1="92.3" y1="88.8" x2="88.1" y2="88.8"/>
<line fill="none" stroke="#27242D" stroke-width="2" stroke-linecap="round" stroke-linejoin="round" stroke-miterlimit="10" x1="94.3" y1="62.2" x2="99.4" y2="62.2"/>
<line fill="none" stroke="#E6B209" stroke-width="2" stroke-linecap="round" stroke-linejoin="round" stroke-miterlimit="10" x1="1" y1="53.2" x2="224.9" y2="53.2"/>
<g>
	<g>
		<line fill="none" stroke="#FFFFFF" stroke-miterlimit="10" x1="45" y1="57.7" x2="45" y2="58.7"/>
		<line fill="none" stroke="#FFFFFF" stroke-miterlimit="10" stroke-dasharray="1.278,1.278" x1="45" y1="60" x2="45" y2="61.9"/>
		<polyline fill="none" stroke="#FFFFFF" stroke-miterlimit="10" points="45,62.5 45,63.5 46,63.5 		"/>
		
			<line fill="none" stroke="#FFFFFF" stroke-miterlimit="10" stroke-dasharray="1.9655,1.9655" x1="48" y1="63.5" x2="51" y2="63.5"/>
		<polyline fill="none" stroke="#FFFFFF" stroke-miterlimit="10" points="51.9,63.5 52.9,63.5 52.9,64.5 		"/>
		
			<line fill="none" stroke="#FFFFFF" stroke-miterlimit="10" stroke-dasharray="1.6963,1.6963" x1="52.9" y1="66.2" x2="52.9" y2="72.2"/>
		<polyline fill="none" stroke="#FFFFFF" stroke-miterlimit="10" points="52.9,73 52.9,74 53.9,74 		"/>
		
			<line fill="none" stroke="#FFFFFF" stroke-miterlimit="10" stroke-dasharray="1.7143,1.7143" x1="55.7" y1="74" x2="65.1" y2="74"/>
		<polyline fill="none" stroke="#FFFFFF" stroke-miterlimit="10" points="65.9,74 66.9,74 66.9,75 		"/>
		
			<line fill="none" stroke="#FFFFFF" stroke-miterlimit="10" stroke-dasharray="1.5963,1.5963" x1="66.9" y1="76.6" x2="66.9" y2="82.2"/>
		<polyline fill="none" stroke="#FFFFFF" stroke-miterlimit="10" points="66.9,83 66.9,84 67.9,84 		"/>
		
			<line fill="none" stroke="#FFFFFF" stroke-miterlimit="10" stroke-dasharray="1.8056,1.8056" x1="69.7" y1="84" x2="83.3" y2="84"/>
		<polyline fill="none" stroke="#FFFFFF" stroke-miterlimit="10" points="84.2,84 85.2,84 85.2,85 		"/>
		
			<line fill="none" stroke="#FFFFFF" stroke-miterlimit="10" stroke-dasharray="1.8657,1.8657" x1="85.2" y1="86.9" x2="85.2" y2="100.9"/>
		<polyline fill="none" stroke="#FFFFFF" stroke-miterlimit="10" points="85.2,101.8 85.2,102.8 84.2,102.8 		"/>
		
			<line fill="none" stroke="#FFFFFF" stroke-miterlimit="10" stroke-dasharray="2.2143,2.2143" x1="82" y1="102.8" x2="69.8" y2="102.8"/>
		<polyline fill="none" stroke="#FFFFFF" stroke-miterlimit="10" points="68.7,102.8 67.7,102.8 67.7,103.8 		"/>
		
			<line fill="none" stroke="#FFFFFF" stroke-miterlimit="10" stroke-dasharray="1.7857,1.7857" x1="67.7" y1="105.6" x2="67.7" y2="115.4"/>
		<polyline fill="none" stroke="#FFFFFF" stroke-miterlimit="10" points="67.7,116.3 67.7,117.3 66.7,117.3 		"/>
		
			<line fill="none" stroke="#FFFFFF" stroke-miterlimit="10" stroke-dasharray="1.9941,1.9941" x1="64.7" y1="117.3" x2="61.7" y2="117.3"/>
		<polyline fill="none" stroke="#FFFFFF" stroke-miterlimit="10" points="60.7,117.3 59.7,117.3 59.7,116.3 		"/>
		
			<line fill="none" stroke="#FFFFFF" stroke-miterlimit="10" stroke-dasharray="1.8094,1.8094" x1="59.7" y1="114.5" x2="59.7" y2="104.5"/>
		<polyline fill="none" stroke="#FFFFFF" stroke-miterlimit="10" points="59.7,103.6 59.7,102.6 58.7,102.6 		"/>
		
			<line fill="none" stroke="#FFFFFF" stroke-miterlimit="10" stroke-dasharray="2.3392,2.3392" x1="56.4" y1="102.6" x2="52.9" y2="102.6"/>
		<polyline fill="none" stroke="#FFFFFF" stroke-miterlimit="10" points="51.7,102.6 50.7,102.6 50.7,103.6 		"/>
		
			<line fill="none" stroke="#FFFFFF" stroke-miterlimit="10" stroke-dasharray="1.959,1.959" x1="50.7" y1="105.6" x2="50.7" y2="124.2"/>
		<polyline fill="none" stroke="#FFFFFF" stroke-miterlimit="10" points="50.7,125.2 50.7,126.2 51.7,126.2 		"/>
		
			<line fill="none" stroke="#FFFFFF" stroke-miterlimit="10" stroke-dasharray="2.0454,2.0454" x1="53.7" y1="126.2" x2="73.2" y2="126.2"/>
		<polyline fill="none" stroke="#FFFFFF" stroke-miterlimit="10" points="74.2,126.2 75.2,126.2 75.2,125.2 		"/>
		
			<line fill="none" stroke="#FFFFFF" stroke-miterlimit="10" stroke-dasharray="1.7143,1.7143" x1="75.2" y1="123.5" x2="75.2" y2="114"/>
		<polyline fill="none" stroke="#FFFFFF" stroke-miterlimit="10" points="75.2,113.2 75.2,112.2 76.2,112.2 		"/>
		
			<line fill="none" stroke="#FFFFFF" stroke-miterlimit="10" stroke-dasharray="1.95,1.95" x1="78.1" y1="112.2" x2="85" y2="112.2"/>
		<polyline fill="none" stroke="#FFFFFF" stroke-miterlimit="10" points="85.9,112.2 86.9,112.2 86.9,113.2 		"/>
		
			<line fill="none" stroke="#FFFFFF" stroke-miterlimit="10" stroke-dasharray="2.04,2.04" x1="86.9" y1="115.2" x2="86.9" y2="163.2"/>
		<line fill="none" stroke="#FFFFFF" stroke-miterlimit="10" x1="86.9" y1="164.2" x2="86.9" y2="165.2"/>
	</g>
</g>
<polyline fill="none" stroke="#FFFFFF" stroke-miterlimit="10" stroke-dasharray="2,2" points="158.8,57.7 207.4,57.7 207.4,80.2 
	198.8,80.2 198.8,74 174.8,74 174.8,102.6 195.4,102.6 195.9,118.6 156.4,118.6 156.4,126.7 99.4,126.7 99.4,165.2 "/>
</svg>
