<?xml version="1.0" encoding="utf-8"?>
<!-- Generator: Adobe Illustrator 18.0.0, SVG Export Plug-In . SVG Version: 6.00 Build 0)  -->
<!DOCTYPE svg PUBLIC "-//W3C//DTD SVG 1.1//EN" "http://www.w3.org/Graphics/SVG/1.1/DTD/svg11.dtd">
<svg version="1.1" id="Layer_1" xmlns="http://www.w3.org/2000/svg" xmlns:xlink="http://www.w3.org/1999/xlink" x="0px" y="0px"
	 viewBox="0 0 153.6 172.4" enable-background="new 0 0 153.6 172.4" xml:space="preserve">
<line fill="none" stroke="#E6B209" stroke-width="2" stroke-linecap="round" stroke-linejoin="round" stroke-miterlimit="10" x1="47.6" y1="105.8" x2="148.5" y2="105.8"/>
<path fill="none" stroke="#FFFFFF" stroke-width="2.1621" stroke-linecap="round" stroke-linejoin="round" stroke-miterlimit="10" d="
	M54.8,130.1c-5.8-5.2-10.6-11.7-13.9-18.8"/>
<path fill="none" stroke="#FFFFFF" stroke-width="2.1621" stroke-linecap="round" stroke-linejoin="round" stroke-miterlimit="10" d="
	M96,28c32.7,1.1,59.1,30.9,56.4,63.5c-2.2,25.2-21.4,47-46.1,52.3"/>
<path fill="none" stroke="#FFFFFF" stroke-width="2.1621" stroke-linecap="round" stroke-linejoin="round" stroke-miterlimit="10" d="
	M40.3,63.2c2.3-5.3,5.4-10.3,9.2-14.7"/>
<path fill="none" stroke="#231F20" stroke-width="4" stroke-linecap="round" stroke-linejoin="round" stroke-miterlimit="10" d="
	M30.8,33.5"/>
<g>
	<path fill="none" stroke="#E6B209" stroke-width="2" stroke-linecap="round" stroke-linejoin="round" stroke-miterlimit="10" d="
		M55.5,130.7c4.7-7.7,13.2-12.9,22.9-12.9c14.8,0,26.8,12,26.8,26.8s-12,26.8-26.8,26.8s-26.8-12-26.8-26.8
		C51.6,139.5,53,134.7,55.5,130.7"/>
	<g>
		
			<path fill="none" stroke="#E6B209" stroke-width="1.5" stroke-linecap="round" stroke-linejoin="round" stroke-miterlimit="10" d="
			M84.4,146.9l-0.3-14.2c0-3.3-2.4-6.1-5.7-6.1c-3.3,0-5.7,2.4-5.7,5.7l-0.3,14.5c-1.9,1.7-3,4.1-3,6.6c0,5,4,9,9,9c4.9,0,9-4,9-9
			C87.4,151,86.3,148.6,84.4,146.9z"/>
	</g>
	<path fill="none" stroke="#E6B209" stroke-width="1.5" stroke-linecap="round" stroke-linejoin="round" stroke-miterlimit="10" d="
		M81.3,150.4l-1.3-1v-17.5c0,0-0.2-1.6-1.6-1.6c-1.4,0-1.6,1.6-1.6,1.6v17.5l-1.3,1c-1.2,0.9-1.9,2.3-1.9,3.8c0,2.7,2.2,4.5,4.8,4.5
		c2.7,0,4.8-1.8,4.8-4.5C83.2,152.8,82.5,151.4,81.3,150.4z"/>
</g>
<path fill="none" stroke="#E6B209" stroke-width="2" stroke-linecap="round" stroke-linejoin="round" stroke-miterlimit="10" d="
	M95.1,27.8c0,14.8-12,26.8-26.8,26.8c-14.8,0-26.8-12-26.8-26.8S53.5,1,68.3,1C83.1,1,95.1,13,95.1,27.8"/>
<g id="Partly_cloudy_2_">
	<path fill="none" stroke="#E6B209" stroke-width="1.5" stroke-linecap="round" stroke-linejoin="round" stroke-miterlimit="10" d="
		M75.3,22.1c-5.6,0-10.4,3.8-11.6,9.2C63,31.1,62.4,31,61.8,31c-4.1,0-7.5,3.4-7.5,7.5c0,4.1,3.4,7.5,7.5,7.5h13.5
		c6.6,0,12-5.4,12-12C87.2,27.4,81.9,22.1,75.3,22.1z M75.3,26.1c4.9-0.1,8,3,8,8c0,4.9-3,8-8,8H61.8c-1.8-0.3-3.5-1-3.5-3.5
		c0-2.5,1.8-3.3,3.5-3.5c0.3,0,1.7,0.1,2.1,0.2l1.9,0.7C65.7,33.7,68.6,26.2,75.3,26.1z"/>
	<path fill="#E6B209" d="M58.8,30c1.1-0.4,2.3-0.6,3.6-0.5c-1.3-1.1-2.1-2.7-2.1-4.5c0-3.3,2.7-6,6-6c1.9,0,3.5,0.9,4.6,2.2
		c1-0.3,2.1-0.6,3.2-0.7c-1.5-2.7-4.5-4.5-7.8-4.5c-4.9,0-9,4-9,9C57.3,26.9,57.9,28.6,58.8,30z"/>
	<path fill="#E6B209" d="M66.3,14.6c0.8,0,1.5-0.7,1.5-1.5v-1.5c0-0.8-0.7-1.5-1.5-1.5c-0.8,0-1.5,0.7-1.5,1.5v1.5
		C64.8,13.9,65.5,14.6,66.3,14.6z"/>
	<path fill="#E6B209" d="M55.8,25.1c0-0.8-0.7-1.5-1.5-1.5h-1.5c-0.8,0-1.5,0.7-1.5,1.5c0,0.8,0.7,1.5,1.5,1.5h1.5
		C55.2,26.6,55.8,25.9,55.8,25.1z"/>
	<path fill="#E6B209" d="M56.8,17.7c0.3,0.3,0.7,0.4,1.1,0.4c0.4,0,0.8-0.1,1.1-0.4c0.6-0.6,0.6-1.5,0-2.1l-1.1-1.1
		c-0.6-0.6-1.5-0.6-2.1,0c-0.6,0.6-0.6,1.5,0,2.1L56.8,17.7z"/>
	<path fill="#E6B209" d="M74.8,18.1c0.4,0,0.8-0.1,1.1-0.4l1.1-1.1c0.6-0.6,0.6-1.5,0-2.1c-0.6-0.6-1.5-0.6-2.1,0l-1.1,1.1
		c-0.6,0.6-0.6,1.5,0,2.1C74,18,74.4,18.1,74.8,18.1z"/>
</g>
<g>
	<path fill="#E6B209" d="M129.4,72.1c0-0.3-0.1-0.5-0.3-0.7l-5.6-8.3c-0.2-0.3-0.5-0.4-0.8-0.4H97.2c-0.3,0-0.6,0.1-0.8,0.4
		l-6.6,8.4c-0.2,0.2-0.2,0.6-0.2,0.8c0,0.1,0,0.1,0,0.2v5.2h-17c-0.3,0-0.6,0.1-0.8,0.4l-6.6,8.4C65.1,86.7,65,87,65,87.2
		c0,0,0,0,0,0.1v18.5c0,0.6,0.4,1,1,1h24.6h13.2h24.6c0.6,0,1-0.4,1-1V72.5c0-0.1,0-0.1,0-0.2C129.4,72.3,129.4,72.2,129.4,72.1z
		 M127.4,104.8h-5.8V93.2c0-0.6-0.4-1-1-1h-6.9c-0.6,0-1,0.4-1,1v11.6h-9.9H91.6V73.5h35.8V104.8z M119.6,104.8h-4.9V94.2h4.9V104.8
		z M89.6,86.1H68.1l5-6.4h16.5V86.1z M67,88.3h22.6v16.5H67V88.3z M122.2,64.7l4.3,6.4H92.6l5-6.4H122.2z"/>
	<path fill="#E6B209" d="M105,91.4h-6.7c-0.6,0-1,0.4-1,1v8.1c0,0.6,0.4,1,1,1h6.7c0.6,0,1-0.4,1-1v-8.1
		C106,91.8,105.6,91.4,105,91.4z M104,99.5h-4.7v-6.1h4.7V99.5z"/>
	<path fill="#E6B209" d="M98.3,78.9c-0.6,0-1,0.4-1,1v6.7c0,0.6,0.4,1,1,1h6.7c0.6,0,1-0.4,1-1v-6.7c0-0.6-0.4-1-1-1H98.3z
		 M104,85.6h-4.7v-4.7h4.7V85.6z"/>
	<path fill="#E6B209" d="M81.7,92.2h-6.7c-0.6,0-1,0.4-1,1v6.7c0,0.6,0.4,1,1,1h6.7c0.6,0,1-0.4,1-1v-6.7
		C82.7,92.6,82.3,92.2,81.7,92.2z M80.7,98.9h-4.7v-4.7h4.7V98.9z"/>
	<path fill="#E6B209" d="M113.8,87.6h6.7c0.6,0,1-0.4,1-1v-6.7c0-0.6-0.4-1-1-1h-6.7c-0.6,0-1,0.4-1,1v6.7
		C112.8,87.1,113.3,87.6,113.8,87.6z M114.8,80.9h4.7v4.7h-4.7V80.9z"/>
</g>
<circle fill="none" stroke="#E6B209" stroke-width="2" stroke-linecap="round" stroke-linejoin="round" stroke-miterlimit="10" cx="27.8" cy="87.3" r="26.8"/>
<path fill="none" stroke="#E6B209" stroke-width="1.5" stroke-linecap="round" stroke-linejoin="round" stroke-miterlimit="10" d="
	M37.8,82.3h-5.9l3.4-7.7c0.3-0.6,0.2-1.4-0.2-1.9c-0.4-0.6-1-0.9-1.7-0.9H21.1c-1,0-1.8,0.7-2,1.6l-3.8,16.5c-0.1,0.6,0,1.2,0.4,1.7
	c0.4,0.5,1,0.8,1.6,0.8h6.9l-1.3,11.3c-0.1,0.9,0.4,1.8,1.3,2.2c0.2,0.1,0.5,0.1,0.7,0.1c0.7,0,1.3-0.3,1.7-0.9l12.9-19.6
	c0.4-0.6,0.4-1.4,0.1-2.1C39.2,82.7,38.5,82.3,37.8,82.3z M28,95.6l0.6-5c0.1-0.6-0.1-1.2-0.5-1.6c-0.4-0.4-0.9-0.7-1.5-0.7h-6.7
	l2.9-12.8h7.8l-3.7,8c-0.3,0.6-0.2,1.4,0.2,1.9c0.4,0.6,1,0.9,1.7,0.9H34L28,95.6z"/>
</svg>
