<?xml version="1.0" encoding="utf-8"?>
<!-- Generator: Adobe Illustrator 18.0.0, SVG Export Plug-In . SVG Version: 6.00 Build 0)  -->
<!DOCTYPE svg PUBLIC "-//W3C//DTD SVG 1.1//EN" "http://www.w3.org/Graphics/SVG/1.1/DTD/svg11.dtd">
<svg version="1.1" id="Layer_1" xmlns="http://www.w3.org/2000/svg" xmlns:xlink="http://www.w3.org/1999/xlink" x="0px" y="0px"
	 viewBox="0 0 146.1 150.7" enable-background="new 0 0 146.1 150.7" xml:space="preserve">
<g>
	<path fill="none" stroke="#FFFFFF" stroke-width="2" stroke-linecap="round" stroke-linejoin="round" stroke-miterlimit="10" d="
		M111.6,76.5l0-22.1c0-1.8,1.3-3.2,2.8-3.2l27.8,0c1.6,0,2.8,1.4,2.8,3.2l0,9.8l0,7.9l0,15.5l0,20.8c0,1.8-1.3,3.2-2.5,3.2l-27.8,0
		c-1.9,0-3.2-1.5-3.2-3.2l0-11.1l0-1.6L111.6,76.5z"/>
</g>
<g>
	<path fill="#E6B209" d="M129.7,99.3h0.7c0.3-1.9,0.4-3.7,0.5-5.6c0,0,0.3-2.7-2.5-2.8c0,0,0,0,0,0c-2.7,0-2.5,2.6-2.5,2.6
		c-0.1,1.9-0.2,3.8-0.5,5.7H129.7z"/>
	<path fill="#E6B209" d="M135.1,85.8h-13.5c0,0-2.4,4.7-2.4,6.7c0,2,2.4,6.7,2.4,6.7h1.7c0.3-1.9,0.5-3.8,0.5-5.7
		c0-0.5,0-2.1,1.1-3.3c0.6-0.6,1.6-1.4,3.3-1.4c0,0,0,0,0,0c1.8,0,2.8,0.8,3.4,1.4c1.2,1.3,1.1,2.9,1.1,3.5
		c-0.1,1.8-0.2,3.6-0.5,5.4h2.7c0.7-1.5,2.4-5.3,2.4-6.7C137.5,90.5,135.1,85.8,135.1,85.8z"/>
</g>
<g>
	<path fill="#E6B209" d="M125.2,62.9c-0.1,2.2,0.1,4.3,0.8,6.2c0,0,0.5,1.8,2.7,1.8c2.7,0,2-3.5,2-3.5c-0.4-1.2-0.5-2.7-0.5-4.4
		H125.2z"/>
	<path fill="#E6B209" d="M135.1,62.9h-2.9c-0.1,1.5,0,2.8,0.4,3.7c0,0.1,0.1,0.2,0.1,0.3c0.1,0.5,0.5,2.9-0.9,4.6
		c-0.5,0.6-1.5,1.4-3.1,1.4c-2.8,0-4.2-2-4.6-3.1c-0.8-2.1-1-4.4-0.9-6.8h-1.6c0,0-2.4,4.7-2.4,6.7c0,2,2.4,6.7,2.4,6.7h8.1h5.4
		c0.7-1.5,2.4-5.3,2.4-6.7C137.5,67.6,135.1,62.9,135.1,62.9z"/>
</g>
<path fill="#25222D" stroke="#E6B209" stroke-width="2" stroke-linecap="round" stroke-linejoin="round" stroke-miterlimit="10" d="
	M77.2,70.6"/>
<line fill="#25222D" stroke="#FFFFFF" stroke-width="2" stroke-linecap="round" stroke-linejoin="round" stroke-miterlimit="10" x1="2.5" y1="98.7" x2="110.4" y2="98.7"/>
<line fill="#25222D" stroke="#FFFFFF" stroke-width="2" stroke-linecap="round" stroke-linejoin="round" stroke-miterlimit="10" x1="12.8" y1="98.7" x2="12.8" y2="88.8"/>
<line fill="#25222D" stroke="#FFFFFF" stroke-width="2" stroke-linecap="round" stroke-linejoin="round" stroke-miterlimit="10" x1="20.1" y1="98.7" x2="20.1" y2="88.8"/>
<line fill="#25222D" stroke="#FFFFFF" stroke-width="2" stroke-linecap="round" stroke-linejoin="round" stroke-miterlimit="10" x1="42.2" y1="98.7" x2="42.2" y2="88.8"/>
<line fill="#25222D" stroke="#FFFFFF" stroke-width="2" stroke-linecap="round" stroke-linejoin="round" stroke-miterlimit="10" x1="64.3" y1="98.7" x2="64.3" y2="88.8"/>
<line fill="#25222D" stroke="#FFFFFF" stroke-width="2" stroke-linecap="round" stroke-linejoin="round" stroke-miterlimit="10" x1="79.1" y1="98.7" x2="79.1" y2="88.8"/>
<line fill="#25222D" stroke="#FFFFFF" stroke-width="2" stroke-linecap="round" stroke-linejoin="round" stroke-miterlimit="10" x1="86.4" y1="98.7" x2="86.4" y2="88.8"/>
<line fill="#25222D" stroke="#FFFFFF" stroke-width="2" stroke-linecap="round" stroke-linejoin="round" stroke-miterlimit="10" x1="27.5" y1="98.7" x2="27.5" y2="80.7"/>
<line fill="#25222D" stroke="#FFFFFF" stroke-width="2" stroke-linecap="round" stroke-linejoin="round" stroke-miterlimit="10" x1="49.6" y1="98.7" x2="49.6" y2="80.7"/>
<line fill="#25222D" stroke="#FFFFFF" stroke-width="2" stroke-linecap="round" stroke-linejoin="round" stroke-miterlimit="10" x1="71.7" y1="98.7" x2="71.7" y2="80.7"/>
<line fill="#25222D" stroke="#FFFFFF" stroke-width="2" stroke-linecap="round" stroke-linejoin="round" stroke-miterlimit="10" x1="34.9" y1="98.7" x2="34.9" y2="85.2"/>
<line fill="#25222D" stroke="#FFFFFF" stroke-width="2" stroke-linecap="round" stroke-linejoin="round" stroke-miterlimit="10" x1="57" y1="98.7" x2="57" y2="85.2"/>
<line fill="#25222D" stroke="#FFFFFF" stroke-width="2" stroke-linecap="round" stroke-linejoin="round" stroke-miterlimit="10" x1="93.8" y1="98.7" x2="93.8" y2="85.2"/>
<path fill="none" stroke="#FFFFFF" stroke-width="1.9447" stroke-linecap="round" stroke-linejoin="round" stroke-miterlimit="10" d="
	M1,83.2c0,0,9.8-9.8,40.3-21.5C76.6,48.3,111,80.4,111,80.4"/>
<path fill="none" stroke="#FFFFFF" stroke-width="2" stroke-linecap="round" stroke-linejoin="round" stroke-miterlimit="10" d="
	M2.5,70.6c0,0,22.4,11.2,54.9-1.3c41.3-15.9,54-3.6,54-3.6"/>
<path fill="#E6B209" d="M128.7,36.4c-2.2-2-5.3-3-9.5-3c-2.9,0-6.3,0.5-10.3,1.4c-10.5,2.5-19,3.8-26.1,3.8c-10.7,0-18.5-2.9-26-9.1
	c-3.4-2.8-5.5-7.9-5.6-7.9L49,22.5l-2.3,0.9c0.1,0.3,2.6,6.3,7,9.9c9,7.4,18.2,10.3,29.2,10.3c8,0,16.8-1.5,27.2-4
	c3.6-0.8,6.7-1.3,9.1-1.3c2.9,0,5,0.6,6.2,1.7c2.8,2.5,1.8,8.7,0.9,14.6c-0.8,5.4-1.6,10.5-0.2,14.4c0,0,0.5,1.8,2.7,1.8
	c2.7,0,2-3.5,2-3.5c-1-2.8-0.3-7.4,0.4-11.9C132.3,48.2,133.4,40.7,128.7,36.4z"/>
<g>
	<path fill="#E6B209" d="M130.9,93.7c0,0,0.3-2.7-2.5-2.8c0,0,0,0,0,0c-2.7,0-2.5,2.6-2.5,2.6c-0.6,19.3-13.7,40.2-30.5,48.5
		c-3.9,1.9-8.9,3.6-14.4,3.6c-5.2,0-10.8-1.5-16.5-5.6c-7.6-5.5-8.2-11.7-8.3-11.9l-2.5,0.2l2.5-0.2l-2.5,0.2l-2.5,0.2
		c0,0.4,0.7,8.7,10.3,15.6c6,4.3,12.6,6.5,19.5,6.5c5.4,0,11-1.4,16.5-4.1C115.9,137.5,130.2,114.8,130.9,93.7z"/>
	<polygon fill="#E6B209" points="53.7,128.4 53.7,128.4 53.7,128.4 	"/>
</g>
<rect x="16.6" y="7.2" fill="none" width="64.7" height="13.7"/>
<text transform="matrix(0.583 0 0 0.583 25.821 12.6787)" fill="#FFFFFF" font-family="'BrandonGrotesque-Bold'" font-size="14.9158">$</text>
<text transform="matrix(1 0 0 1 30.4645 17.6465)" fill="#FFFFFF" font-family="'BrandonGrotesque-Bold'" font-size="14.9158">.50</text>
<text transform="matrix(1 0 0 1 52.9724 17.6465)" fill="#FFFFFF" font-family="'BrandonGrotesque-Bold'" font-size="11">/day</text>
<line fill="#25222D" stroke="#E6B209" stroke-width="2" stroke-linecap="round" stroke-linejoin="round" stroke-miterlimit="10" x1="77.7" y1="22.5" x2="23.5" y2="22.5"/>
<rect x="22.2" y="112.7" fill="none" width="59.2" height="14.8"/>
<text transform="matrix(0.583 0 0 0.583 24.5514 118.2139)" fill="#FFFFFF" font-family="'BrandonGrotesque-Bold'" font-size="14.9158">$</text>
<text transform="matrix(1 0 0 1 29.4645 123.1816)" fill="#FFFFFF" font-family="'BrandonGrotesque-Bold'" font-size="14.9158">2.45</text>
<text transform="matrix(1 0 0 1 59.863 123.1816)" fill="#FFFFFF" font-family="'BrandonGrotesque-Bold'" font-size="11">/day</text>
<line fill="#25222D" stroke="#E6B209" stroke-width="2" stroke-linecap="round" stroke-linejoin="round" stroke-miterlimit="10" x1="24.9" y1="128.4" x2="81.4" y2="128.4"/>
</svg>
