<?xml version="1.0" encoding="utf-8"?>
<!-- Generator: Adobe Illustrator 18.0.0, SVG Export Plug-In . SVG Version: 6.00 Build 0)  -->
<!DOCTYPE svg PUBLIC "-//W3C//DTD SVG 1.1//EN" "http://www.w3.org/Graphics/SVG/1.1/DTD/svg11.dtd">
<svg version="1.1" id="Layer_1" xmlns="http://www.w3.org/2000/svg" xmlns:xlink="http://www.w3.org/1999/xlink" x="0px" y="0px"
	 viewBox="0 0 217.8 99.2" enable-background="new 0 0 217.8 99.2" xml:space="preserve">
<path fill-rule="evenodd" clip-rule="evenodd" fill="#27242D" d="M13,6.5c1.7,0,3.3,0.6,4.6,1.5c1.3-4.6,5.5-8,10.5-8
	C34.1,0,39,4.9,39,10.9c0,0.2,0,0.3,0,0.5c0.6-0.2,1.2-0.3,1.8-0.3c2.4,0,4.4,1.6,5.1,3.7H5.4c0-0.2,0-0.4,0-0.7
	C5.4,9.9,8.8,6.5,13,6.5L13,6.5z"/>
<path fill-rule="evenodd" clip-rule="evenodd" fill="#27242D" d="M37.7,34.7c-1.8,0-3.5,0.6-4.8,1.6c-1.4-4.9-5.8-8.5-11.2-8.5
	c-6.4,0-11.6,5.2-11.6,11.6c0,0.2,0,0.3,0,0.5c-0.6-0.2-1.2-0.3-1.9-0.3c-2.6,0-4.7,1.7-5.4,4h43.1c0-0.2,0-0.5,0-0.7
	C45.8,38.4,42.2,34.7,37.7,34.7L37.7,34.7z"/>
<line fill="#25222D" stroke="#E6B209" stroke-width="2" stroke-linecap="round" stroke-linejoin="round" stroke-miterlimit="10" x1="24.7" y1="90.7" x2="24.7" y2="55.3"/>
<path fill="none" stroke="#E6B209" stroke-width="2" stroke-linecap="round" stroke-linejoin="round" stroke-miterlimit="10" d="
	M61,64.5C46.9,71.8,31.4,60,31.4,60h-13c0,0-9.2,7.5-17.4,2"/>
<path fill="none" stroke="#E6B209" stroke-width="2" stroke-linecap="round" stroke-linejoin="round" stroke-miterlimit="10" d="
	M57.1,71.4c-18.4,3.6-25.7-5.8-25.7-5.8h-13c0,0-7.7,8.1-17.4,2.9"/>
<path fill-rule="evenodd" clip-rule="evenodd" fill="#27242D" d="M49.3,22.8c-0.9,0-1.7,0.3-2.4,0.8c-0.7-2.4-2.9-4.2-5.5-4.2
	c-3.2,0-5.7,2.6-5.7,5.7c0,0.1,0,0.2,0,0.3c-0.3-0.1-0.6-0.2-0.9-0.2c-1.3,0-2.3,0.8-2.7,2h21.3c0-0.1,0-0.2,0-0.4
	C53.4,24.6,51.6,22.8,49.3,22.8L49.3,22.8z"/>
<g>
	<path fill-rule="evenodd" clip-rule="evenodd" fill="#27242D" d="M81.4,23.7c-1,0-1.8,0.3-2.6,0.8C78.2,21.9,75.8,20,73,20
		c-3.4,0-6.1,2.7-6.1,6.1c0,0.1,0,0.2,0,0.3c-0.3-0.1-0.7-0.2-1-0.2c-1.3,0-2.5,0.9-2.9,2.1h22.7c0-0.1,0-0.2,0-0.4
		C85.7,25.6,83.8,23.7,81.4,23.7L81.4,23.7z"/>
	
		<line fill-rule="evenodd" clip-rule="evenodd" fill="none" stroke="#27242D" stroke-width="1.5" stroke-linecap="round" stroke-linejoin="round" stroke-miterlimit="10" x1="77.9" y1="32.5" x2="76.9" y2="30.5"/>
	
		<line fill-rule="evenodd" clip-rule="evenodd" fill="none" stroke="#27242D" stroke-width="1.5" stroke-linecap="round" stroke-linejoin="round" stroke-miterlimit="10" x1="74.1" y1="33.3" x2="72.7" y2="30.5"/>
	
		<line fill-rule="evenodd" clip-rule="evenodd" fill="none" stroke="#27242D" stroke-width="1.5" stroke-linecap="round" stroke-linejoin="round" stroke-miterlimit="10" x1="69.9" y1="32.5" x2="68.9" y2="30.5"/>
	
		<rect x="61.1" y="14.1" fill-rule="evenodd" clip-rule="evenodd" fill="none" stroke="#27242D" stroke-width="1.5" stroke-linecap="round" stroke-linejoin="round" stroke-miterlimit="10" width="24.6" height="24.6"/>
</g>
<polygon fill-rule="evenodd" clip-rule="evenodd" fill="none" stroke="#27242D" stroke-width="1.5" stroke-linecap="round" stroke-linejoin="round" stroke-miterlimit="10" points="
	115.1,38.7 90.4,38.7 90.4,14.1 112.1,14.1 113.8,15.9 115.1,17.2 "/>
<polyline fill-rule="evenodd" clip-rule="evenodd" fill="none" stroke="#27242D" stroke-width="1.5" stroke-linecap="round" stroke-linejoin="round" stroke-miterlimit="10" points="
	124.1,38.7 119.6,38.7 119.6,14.1 141.2,14.1 142.1,15.1 "/>
<circle fill-rule="evenodd" clip-rule="evenodd" fill="#27242D" cx="102.8" cy="25.9" r="3.7"/>
<line fill-rule="evenodd" clip-rule="evenodd" fill="none" stroke="#27242D" stroke-width="1.5" stroke-linecap="round" stroke-linejoin="round" stroke-miterlimit="10" x1="102.8" y1="31.8" x2="102.8" y2="33.8"/>
<line fill-rule="evenodd" clip-rule="evenodd" fill="none" stroke="#27242D" stroke-width="1.5" stroke-linecap="round" stroke-linejoin="round" stroke-miterlimit="10" x1="102.8" y1="18.1" x2="102.8" y2="20.2"/>
<line fill-rule="evenodd" clip-rule="evenodd" fill="none" stroke="#27242D" stroke-width="1.5" stroke-linecap="round" stroke-linejoin="round" stroke-miterlimit="10" x1="108.6" y1="26" x2="110.6" y2="26"/>
<line fill-rule="evenodd" clip-rule="evenodd" fill="none" stroke="#27242D" stroke-width="1.5" stroke-linecap="round" stroke-linejoin="round" stroke-miterlimit="10" x1="94.9" y1="26" x2="97" y2="26"/>
<line fill-rule="evenodd" clip-rule="evenodd" fill="none" stroke="#27242D" stroke-width="1.5" stroke-linecap="round" stroke-linejoin="round" stroke-miterlimit="10" x1="98.7" y1="30.1" x2="97.2" y2="31.5"/>
<line fill-rule="evenodd" clip-rule="evenodd" fill="none" stroke="#27242D" stroke-width="1.5" stroke-linecap="round" stroke-linejoin="round" stroke-miterlimit="10" x1="108.3" y1="20.4" x2="106.9" y2="21.9"/>
<line fill-rule="evenodd" clip-rule="evenodd" fill="none" stroke="#27242D" stroke-width="1.5" stroke-linecap="round" stroke-linejoin="round" stroke-miterlimit="10" x1="106.9" y1="30.1" x2="108.3" y2="31.5"/>
<line fill-rule="evenodd" clip-rule="evenodd" fill="none" stroke="#27242D" stroke-width="1.5" stroke-linecap="round" stroke-linejoin="round" stroke-miterlimit="10" x1="97.2" y1="20.4" x2="98.7" y2="21.9"/>
<polyline fill="none" stroke="#E6B209" stroke-width="2" stroke-linecap="round" stroke-linejoin="round" stroke-miterlimit="10" points="
	135.1,80.8 135.1,90.8 151.2,90.8 "/>
<polyline fill="none" stroke="#E6B209" stroke-width="2" stroke-linecap="round" stroke-linejoin="round" stroke-miterlimit="10" points="
	92.9,90.8 55.1,90.8 55.1,72.3 79.7,72.3 "/>
<path fill="none" stroke="#E6B209" stroke-width="2" stroke-linecap="round" stroke-linejoin="round" stroke-miterlimit="10" d="
	M92.9,90.8"/>
<path fill="none" stroke="#E6B209" stroke-width="2" stroke-linecap="round" stroke-linejoin="round" stroke-miterlimit="10" d="
	M92.9,72.3"/>
<polyline fill="none" stroke="#E6B209" stroke-width="2" stroke-linecap="round" stroke-linejoin="round" stroke-miterlimit="10" points="
	79.7,72.2 55.1,72.2 61.7,63.8 79.7,63.8 "/>
<polyline fill="none" stroke="#E6B209" stroke-width="2" stroke-linecap="round" stroke-linejoin="round" stroke-miterlimit="10" points="
	135.2,81.4 135.2,90.8 79.7,90.8 79.7,57.6 123.2,57.6 "/>
<polyline fill="none" stroke="#E6B209" stroke-width="2" stroke-linecap="round" stroke-linejoin="round" stroke-miterlimit="10" points="
	122.7,57.2 79.7,57.2 89.3,48.8 122.2,48.8 "/>
<polyline fill="none" stroke="#E6B209" stroke-width="2" stroke-linecap="round" stroke-linejoin="round" stroke-miterlimit="10" points="
	103.5,90.8 103.5,78.3 110.4,78.3 110.4,90.8 "/>
<rect x="85.6" y="77.4" fill="none" stroke="#E6B209" stroke-width="2" stroke-linecap="round" stroke-linejoin="round" stroke-miterlimit="10" width="11.7" height="8.1"/>
<rect x="85.6" y="63.9" fill="none" stroke="#E6B209" stroke-width="2" stroke-linecap="round" stroke-linejoin="round" stroke-miterlimit="10" width="11.7" height="8.1"/>
<rect x="116.3" y="77.4" fill="none" stroke="#E6B209" stroke-width="2" stroke-linecap="round" stroke-linejoin="round" stroke-miterlimit="10" width="11.7" height="8.1"/>
<polyline fill="none" stroke="#E6B209" stroke-width="2" stroke-linecap="round" stroke-linejoin="round" stroke-miterlimit="10" points="
	128.2,72 116.3,72 116.3,63.9 124.4,63.9 "/>
<rect x="64.1" y="78.2" fill="none" stroke="#E6B209" stroke-width="2" stroke-linecap="round" stroke-linejoin="round" stroke-miterlimit="10" width="6.7" height="6.7"/>
<polyline fill-rule="evenodd" clip-rule="evenodd" fill="none" stroke="#27242D" stroke-width="1.5" stroke-linecap="round" stroke-linejoin="round" stroke-miterlimit="10" points="
	114.5,18.1 110.9,18.1 110.9,14.5 "/>
<line fill="#25222D" stroke="#E6B209" stroke-width="2" stroke-linecap="round" stroke-linejoin="round" stroke-miterlimit="10" x1="7.7" y1="90.8" x2="153.1" y2="90.8"/>
<g>
	<g>
		<g>
			<path fill="#E6B209" d="M122.5,50.4c0-5.5,1.1-11.1,3.2-16.2c2.1-5.1,5.2-9.8,9.2-13.8c3.9-3.9,8.6-7.1,13.7-9.2
				c5.1-2.1,10.7-3.3,16.2-3.3c5.6,0,11.1,1.1,16.3,3.2c5.1,2.1,9.8,5.3,13.8,9.2c3.9,3.9,7.1,8.6,9.2,13.8
				c2.1,5.1,3.2,10.7,3.2,16.2c0,5.6-1.1,11.1-3.2,16.2c-2.1,5.1-5.3,9.8-9.2,13.7c-3.9,3.9-8.6,7.1-13.8,9.2
				c-5.1,2.1-10.7,3.2-16.2,3.2c-5.5,0-11.1-1.1-16.2-3.2c-5.1-2.1-9.8-5.3-13.7-9.2c-3.9-3.9-7.1-8.6-9.2-13.7
				C123.5,61.5,122.5,56,122.5,50.4L122.5,50.4z M123.8,50.4c0,5.4,1.1,10.7,3.1,15.7c2.1,5,5.1,9.5,8.9,13.3
				c3.8,3.8,8.3,6.8,13.3,8.9c4.9,2.1,10.3,3.1,15.7,3.1c5.4,0,10.7-1.1,15.6-3.1c4.9-2.1,9.5-5.1,13.3-8.9
				c3.8-3.8,6.8-8.3,8.9-13.3c2-4.9,3.1-10.3,3.1-15.6c0-5.3-1.1-10.7-3.1-15.6c-2-4.9-5.1-9.5-8.9-13.2c-3.8-3.8-8.3-6.8-13.2-8.8
				c-4.9-2-10.3-3.1-15.6-3.1c-5.3,0-10.7,1-15.6,3.1c-4.9,2-9.5,5.1-13.3,8.8c-3.8,3.8-6.8,8.3-8.9,13.2
				C124.9,39.7,123.8,45.1,123.8,50.4L123.8,50.4z"/>
		</g>
	</g>
	
		<line fill="none" stroke="#FFFFFF" stroke-width="1.6863" stroke-linecap="round" stroke-linejoin="round" stroke-miterlimit="10" x1="135.1" y1="66.5" x2="195" y2="66.5"/>
	<path fill="#E6B209" d="M197.7,76.1l18.6,15.4c1.8,1.6,2,4.3,0.4,6.1l0,0c-1.6,1.8-4.3,2-6.1,0.4L192,82.7"/>
	
		<path fill="none" stroke="#FFFFFF" stroke-width="1.6863" stroke-linecap="round" stroke-linejoin="round" stroke-miterlimit="10" d="
		M132.8,39.1c0,0,0.2,3,11.9,1.7c6.7-0.7,8.3-3.8,16.5-4.4c15.1-1.1,21.8,14.4,38.2,15.1"/>
	
		<polyline fill="none" stroke="#FFFFFF" stroke-width="1.6863" stroke-linecap="round" stroke-linejoin="round" stroke-miterlimit="10" points="
		197.4,41.4 187.7,34 162.8,49.4 155.3,45.4 131,50.1 	"/>
	
		<line fill="none" stroke="#FFFFFF" stroke-width="1.6863" stroke-linecap="round" stroke-linejoin="round" stroke-miterlimit="10" x1="140.8" y1="66.5" x2="140.8" y2="61"/>
	
		<line fill="none" stroke="#FFFFFF" stroke-width="1.6863" stroke-linecap="round" stroke-linejoin="round" stroke-miterlimit="10" x1="144.9" y1="66.5" x2="144.9" y2="61"/>
	
		<line fill="none" stroke="#FFFFFF" stroke-width="1.6863" stroke-linecap="round" stroke-linejoin="round" stroke-miterlimit="10" x1="157.2" y1="66.5" x2="157.2" y2="61"/>
	
		<line fill="none" stroke="#FFFFFF" stroke-width="1.6863" stroke-linecap="round" stroke-linejoin="round" stroke-miterlimit="10" x1="169.5" y1="66.5" x2="169.5" y2="61"/>
	
		<line fill="none" stroke="#FFFFFF" stroke-width="1.6863" stroke-linecap="round" stroke-linejoin="round" stroke-miterlimit="10" x1="177.6" y1="66.5" x2="177.6" y2="61"/>
	
		<line fill="none" stroke="#FFFFFF" stroke-width="1.6863" stroke-linecap="round" stroke-linejoin="round" stroke-miterlimit="10" x1="181.7" y1="66.5" x2="181.7" y2="61"/>
	
		<line fill="none" stroke="#FFFFFF" stroke-width="1.6863" stroke-linecap="round" stroke-linejoin="round" stroke-miterlimit="10" x1="149" y1="66.5" x2="149" y2="56.5"/>
	
		<line fill="none" stroke="#FFFFFF" stroke-width="1.6863" stroke-linecap="round" stroke-linejoin="round" stroke-miterlimit="10" x1="161.3" y1="66.5" x2="161.3" y2="56.5"/>
	
		<line fill="none" stroke="#FFFFFF" stroke-width="1.6863" stroke-linecap="round" stroke-linejoin="round" stroke-miterlimit="10" x1="173.5" y1="66.5" x2="173.5" y2="56.5"/>
	
		<line fill="none" stroke="#FFFFFF" stroke-width="1.6863" stroke-linecap="round" stroke-linejoin="round" stroke-miterlimit="10" x1="153.1" y1="66.5" x2="153.1" y2="59"/>
	
		<line fill="none" stroke="#FFFFFF" stroke-width="1.6863" stroke-linecap="round" stroke-linejoin="round" stroke-miterlimit="10" x1="165.4" y1="66.5" x2="165.4" y2="59"/>
	
		<line fill="none" stroke="#FFFFFF" stroke-width="1.6863" stroke-linecap="round" stroke-linejoin="round" stroke-miterlimit="10" x1="185.8" y1="66.5" x2="185.8" y2="59"/>
	<g>
		<g>
			<path fill="#E6B209" d="M129.5,50.4c0-4.6,0.9-9.2,2.6-13.5c1.8-4.3,4.4-8.2,7.6-11.5c3.3-3.3,7.2-5.9,11.5-7.7
				c4.3-1.8,8.9-2.7,13.6-2.7c4.6,0,9.3,0.9,13.6,2.7c4.3,1.8,8.2,4.4,11.5,7.7c3.3,3.3,5.9,7.2,7.7,11.5c1.8,4.3,2.7,8.9,2.7,13.6
				c0,4.6-0.9,9.3-2.7,13.5c-1.8,4.3-4.4,8.2-7.7,11.5c-3.3,3.3-7.2,5.9-11.5,7.7c-4.3,1.8-8.9,2.7-13.5,2.7
				c-4.6,0-9.3-0.9-13.5-2.7c-4.3-1.8-8.2-4.4-11.4-7.7c-3.3-3.3-5.9-7.2-7.6-11.5C130.4,59.7,129.5,55,129.5,50.4L129.5,50.4z
				 M130.8,50.4c0,4.4,0.9,8.9,2.6,13c1.7,4.1,4.2,7.9,7.4,11c3.1,3.1,6.9,5.6,11,7.3c4.1,1.7,8.5,2.6,13,2.6c4.4,0,8.9-0.9,13-2.6
				c4.1-1.7,7.8-4.2,11-7.4c3.1-3.1,5.6-6.9,7.3-11c1.7-4.1,2.6-8.5,2.6-12.9c0-4.4-0.9-8.9-2.6-12.9c-1.7-4.1-4.2-7.8-7.3-11
				c-3.1-3.1-6.9-5.6-11-7.3c-4.1-1.7-8.5-2.6-12.9-2.6c-4.4,0-8.8,0.8-12.9,2.5c-4.1,1.7-7.8,4.2-11,7.3
				C134.5,32.7,130.8,41.5,130.8,50.4L130.8,50.4z"/>
		</g>
	</g>
</g>
</svg>
