<?xml version="1.0" encoding="utf-8"?>
<!-- Generator: Adobe Illustrator 18.0.0, SVG Export Plug-In . SVG Version: 6.00 Build 0)  -->
<!DOCTYPE svg PUBLIC "-//W3C//DTD SVG 1.1//EN" "http://www.w3.org/Graphics/SVG/1.1/DTD/svg11.dtd">
<svg version="1.1" id="Layer_1" xmlns="http://www.w3.org/2000/svg" xmlns:xlink="http://www.w3.org/1999/xlink" x="0px" y="0px"
	 viewBox="0 0 119.3 100.6" enable-background="new 0 0 119.3 100.6" xml:space="preserve">
<path fill="#E6B209" d="M93.5,75.2l23.6,16.1c2.3,1.7,2.9,4.9,1.2,7.2l0,0c-1.7,2.3-4.9,2.9-7.2,1.2L87.4,83.5"/>
<g>
	<g>
		<path fill="#E6B209" d="M100.5,50.3c0,6.5-1.3,13.1-3.8,19.2c-2.5,6.1-6.2,11.7-10.9,16.3c-4.6,4.7-10.2,8.4-16.3,11
			c-6.1,2.5-12.7,3.9-19.3,3.9c-6.6,0-13.2-1.3-19.3-3.8c-6.1-2.5-11.7-6.3-16.3-10.9c-4.7-4.7-8.4-10.2-10.9-16.3
			C1.3,63.4,0,56.8,0,50.3C0,43.7,1.3,37.1,3.8,31c2.5-6.1,6.3-11.7,10.9-16.3C19.4,10,25,6.3,31.1,3.8C37.2,1.3,43.7,0,50.3,0
			c6.6,0,13.2,1.3,19.2,3.8c6.1,2.5,11.6,6.3,16.3,10.9C90.5,19.4,94.2,25,96.7,31C99.2,37.1,100.5,43.7,100.5,50.3L100.5,50.3z
			 M98.9,50.3c0-6.4-1.3-12.7-3.7-18.6c-2.4-5.9-6-11.2-10.5-15.7c-4.5-4.5-9.9-8.1-15.8-10.5C63,3,56.7,1.7,50.3,1.8
			C44,1.8,37.6,3,31.8,5.5C25.9,7.9,20.5,11.5,16,16C11.6,20.5,8,25.8,5.5,31.7c-2.4,5.9-3.7,12.2-3.7,18.5c0,6.3,1.3,12.7,3.7,18.5
			c2.4,5.9,6,11.2,10.5,15.7c4.5,4.5,9.9,8.1,15.7,10.5c5.9,2.4,12.2,3.7,18.5,3.7c6.3,0,12.7-1.2,18.5-3.6
			c5.9-2.4,11.2-6,15.7-10.5c4.5-4.5,8.1-9.8,10.6-15.7C97.6,63,98.9,56.6,98.9,50.3L98.9,50.3z"/>
	</g>
</g>
<path fill="none" stroke="#FFFFFF" stroke-width="2" stroke-linecap="round" stroke-linejoin="round" stroke-miterlimit="10" d="
	M11.4,37.3c0,0,0.2,3.5,14.1,2c7.9-0.9,9.8-4.5,19.6-5.2C63,32.8,71.9,51.2,91.4,52"/>
<polyline fill="none" stroke="#FFFFFF" stroke-width="2" stroke-linecap="round" stroke-linejoin="round" stroke-miterlimit="10" points="
	89.2,40 76.5,31.2 47,49.5 38,44.7 9.3,50.3 "/>
<line fill="none" stroke="#FFFFFF" stroke-width="2" stroke-linecap="round" stroke-linejoin="round" stroke-miterlimit="10" x1="14.2" y1="69.7" x2="85.2" y2="69.7"/>
<line fill="none" stroke="#FFFFFF" stroke-width="2" stroke-linecap="round" stroke-linejoin="round" stroke-miterlimit="10" x1="20.9" y1="69.7" x2="20.9" y2="63.2"/>
<line fill="none" stroke="#FFFFFF" stroke-width="2" stroke-linecap="round" stroke-linejoin="round" stroke-miterlimit="10" x1="25.8" y1="69.7" x2="25.8" y2="63.2"/>
<line fill="none" stroke="#FFFFFF" stroke-width="2" stroke-linecap="round" stroke-linejoin="round" stroke-miterlimit="10" x1="40.3" y1="69.7" x2="40.3" y2="63.2"/>
<line fill="none" stroke="#FFFFFF" stroke-width="2" stroke-linecap="round" stroke-linejoin="round" stroke-miterlimit="10" x1="54.9" y1="69.7" x2="54.9" y2="63.2"/>
<line fill="none" stroke="#FFFFFF" stroke-width="2" stroke-linecap="round" stroke-linejoin="round" stroke-miterlimit="10" x1="64.6" y1="69.7" x2="64.6" y2="63.2"/>
<line fill="none" stroke="#FFFFFF" stroke-width="2" stroke-linecap="round" stroke-linejoin="round" stroke-miterlimit="10" x1="69.4" y1="69.7" x2="69.4" y2="63.2"/>
<line fill="none" stroke="#FFFFFF" stroke-width="2" stroke-linecap="round" stroke-linejoin="round" stroke-miterlimit="10" x1="30.6" y1="69.7" x2="30.6" y2="57.9"/>
<line fill="none" stroke="#FFFFFF" stroke-width="2" stroke-linecap="round" stroke-linejoin="round" stroke-miterlimit="10" x1="45.2" y1="69.7" x2="45.2" y2="57.9"/>
<line fill="none" stroke="#FFFFFF" stroke-width="2" stroke-linecap="round" stroke-linejoin="round" stroke-miterlimit="10" x1="59.7" y1="69.7" x2="59.7" y2="57.9"/>
<line fill="none" stroke="#FFFFFF" stroke-width="2" stroke-linecap="round" stroke-linejoin="round" stroke-miterlimit="10" x1="35.5" y1="69.7" x2="35.5" y2="60.9"/>
<line fill="none" stroke="#FFFFFF" stroke-width="2" stroke-linecap="round" stroke-linejoin="round" stroke-miterlimit="10" x1="50" y1="69.7" x2="50" y2="60.9"/>
<line fill="none" stroke="#FFFFFF" stroke-width="2" stroke-linecap="round" stroke-linejoin="round" stroke-miterlimit="10" x1="74.3" y1="69.7" x2="74.3" y2="60.9"/>
<g>
	<g>
		<path fill="#E6B209" d="M92.2,50.3c0,5.5-1,11-3.1,16C87,71.4,83.9,76,80,79.9c-3.9,3.9-8.5,7-13.6,9.1
			c-5.1,2.1-10.6,3.2-16.1,3.2c-5.5,0-11-1.1-16.1-3.2c-5.1-2.1-9.7-5.2-13.6-9.1c-3.9-3.9-7-8.5-9.1-13.6
			c-2.1-5.1-3.2-10.6-3.2-16.1c0-5.5,1.1-11,3.2-16.1c2.1-5.1,5.2-9.7,9.1-13.6c3.9-3.9,8.5-7,13.6-9.1c5.1-2.1,10.6-3.2,16-3.2
			c5.5,0,11,1.1,16,3.2c5.1,2.1,9.7,5.2,13.6,9.1c3.9,3.9,7,8.5,9.1,13.6C91.1,39.3,92.2,44.8,92.2,50.3L92.2,50.3z M90.6,50.3
			c0-5.3-1-10.5-3.1-15.4c-2-4.9-5-9.3-8.7-13c-3.7-3.7-8.2-6.7-13-8.7c-4.9-2-10.1-3-15.4-3c-5.3,0-10.5,1-15.4,3.1
			c-4.9,2-9.3,5-13,8.7c-3.7,3.7-6.7,8.2-8.7,13c-2,4.9-3,10.1-3,15.4c0,5.3,1,10.5,3.1,15.3c2,4.8,5,9.3,8.7,13
			c3.7,3.7,8.2,6.7,13,8.7c4.9,2,10.1,3,15.3,3c5.2,0,10.5-1,15.3-3c4.9-2,9.3-5,13-8.7c3.7-3.7,6.7-8.1,8.8-13
			C89.5,60.8,90.5,55.5,90.6,50.3L90.6,50.3z"/>
	</g>
</g>
</svg>
