<?xml version="1.0" encoding="utf-8"?>
<!-- Generator: Adobe Illustrator 18.0.0, SVG Export Plug-In . SVG Version: 6.00 Build 0)  -->
<!DOCTYPE svg PUBLIC "-//W3C//DTD SVG 1.1//EN" "http://www.w3.org/Graphics/SVG/1.1/DTD/svg11.dtd">
<svg version="1.1" id="Layer_1" xmlns="http://www.w3.org/2000/svg" xmlns:xlink="http://www.w3.org/1999/xlink" x="0px" y="0px"
	 viewBox="0 0 154.8 72.4" enable-background="new 0 0 154.8 72.4" xml:space="preserve">
<path fill="none" stroke="#231F20" stroke-width="4" stroke-linecap="round" stroke-linejoin="round" stroke-miterlimit="10" d="
	M0,25.8"/>
<path fill="#E6B209" d="M63.4,71.3V18.5c0-2,1.6-3.5,3.5-3.5h22.8c2,0,3.5,1.6,3.5,3.5v52.8"/>
<path fill="none" stroke="#E6B209" stroke-width="2" stroke-linecap="round" stroke-linejoin="round" stroke-miterlimit="10" d="
	M110.3,71.3V18.5c0-2,1.6-3.5,3.5-3.5h22.8c2,0,3.5,1.6,3.5,3.5v52.8"/>
<line fill="#25222D" stroke="#E6B209" stroke-width="2" stroke-linecap="round" stroke-linejoin="round" stroke-miterlimit="10" x1="4" y1="71.4" x2="153.8" y2="71.4"/>
<circle fill="#E6B209" cx="135.1" cy="49.3" r="1.7"/>
<circle fill="#27242D" cx="87.7" cy="49.3" r="1.7"/>
<path fill="none" stroke="#E6B209" stroke-width="2" stroke-linecap="round" stroke-linejoin="round" stroke-miterlimit="10" d="
	M16.5,71.3V18.5c0-2,1.6-3.5,3.5-3.5h22.8c2,0,3.5,1.6,3.5,3.5v52.8"/>
<circle fill="#E6B209" cx="40.3" cy="49.3" r="1.7"/>
<rect x="21.2" y="24.1" fill="none" width="18.4" height="17.9"/>
<text transform="matrix(1 0 0 1 28.341 28.7753)" fill="#E6B209" font-family="'BrandonGrotesque-Black'" font-size="6.7703"> 1</text>
<rect x="69.1" y="24.1" fill="none" width="18.4" height="17.9"/>
<text transform="matrix(1 0 0 1 76.4851 28.7753)" fill="#27242D" font-family="'BrandonGrotesque-Black'" font-size="6.7703">2</text>
<g>
	<rect x="116" y="24.1" fill="none" width="18.4" height="17.9"/>
	<text transform="matrix(1 0 0 1 123.3518 28.7753)" fill="#E6B209" font-family="'BrandonGrotesque-Black'" font-size="6.7703">3</text>
</g>
<line fill="#25222D" stroke="#E6B209" stroke-width="2" stroke-linecap="round" stroke-linejoin="round" stroke-miterlimit="10" x1="78.3" y1="9.3" x2="78.3" y2="1"/>
<line fill="#25222D" stroke="#E6B209" stroke-width="2" stroke-linecap="round" stroke-linejoin="round" stroke-miterlimit="10" x1="85" y1="8.1" x2="85.6" y2="4.8"/>
<line fill="#25222D" stroke="#E6B209" stroke-width="2" stroke-linecap="round" stroke-linejoin="round" stroke-miterlimit="10" x1="96.9" y1="12.7" x2="98.7" y2="11"/>
<line fill="#25222D" stroke="#E6B209" stroke-width="2" stroke-linecap="round" stroke-linejoin="round" stroke-miterlimit="10" x1="90.8" y1="10.4" x2="94" y2="4.7"/>
<line fill="#25222D" stroke="#E6B209" stroke-width="2" stroke-linecap="round" stroke-linejoin="round" stroke-miterlimit="10" x1="71.7" y1="8.1" x2="71.1" y2="4.8"/>
<line fill="#25222D" stroke="#E6B209" stroke-width="2" stroke-linecap="round" stroke-linejoin="round" stroke-miterlimit="10" x1="59.8" y1="12.7" x2="58" y2="11"/>
<line fill="#25222D" stroke="#E6B209" stroke-width="2" stroke-linecap="round" stroke-linejoin="round" stroke-miterlimit="10" x1="65.9" y1="10.4" x2="62.7" y2="4.7"/>
</svg>
