<?xml version="1.0" encoding="utf-8"?>
<!-- Generator: Adobe Illustrator 18.0.0, SVG Export Plug-In . SVG Version: 6.00 Build 0)  -->
<!DOCTYPE svg PUBLIC "-//W3C//DTD SVG 1.1//EN" "http://www.w3.org/Graphics/SVG/1.1/DTD/svg11.dtd">
<svg version="1.1" id="Layer_1" xmlns="http://www.w3.org/2000/svg" xmlns:xlink="http://www.w3.org/1999/xlink" x="0px" y="0px"
	 viewBox="0 0 143.3 161" enable-background="new 0 0 143.3 161" xml:space="preserve">
<g>
	<path fill="#FFFFFF" d="M101.1,38.5c0.1,0.5,0.1,1,0,1.4c15.8,10,26.3,27.5,26.3,47.5c0,0,0,0,0.1,0c0.7,0.3,1.4,0.7,1.9,1.1
		c0-0.3,0-0.7,0-1c0-21.2-11.4-39.8-28.4-50C101.1,37.8,101.1,38.1,101.1,38.5z"/>
	<path fill="#FFFFFF" d="M83.9,142.2c-4.1,0.9-8.3,1.5-12.7,1.5c-31,0-56.2-25.2-56.2-56.2C15,66.8,26.2,48.8,42.8,39
		c-0.4-0.5-0.7-1.2-0.6-1.9C24.7,47.1,13,65.9,13,87.5c0,32.1,26.1,58.2,58.2,58.2c4.4,0,8.6-0.5,12.7-1.4
		C83.6,143.6,83.6,142.9,83.9,142.2z"/>
</g>
<path fill="#E6B209" stroke="#231F20" stroke-width="2" stroke-linecap="round" stroke-linejoin="round" stroke-miterlimit="10" d="
	M88,73.2"/>
<g>
	<path fill="#E6B209" d="M136.1,155.8v0.8c0,1.3-1.1,2.4-2.4,2.4H87.1c-1.3,0-2.4-1.1-2.4-2.4V97.1c0-1.3,1.1-2.4,2.4-2.4h0.8v-2
		h-0.8c-2.4,0-4.4,2-4.4,4.4v59.5c0,2.4,2,4.4,4.4,4.4h46.6c2.4,0,4.4-2,4.4-4.4v-0.8H136.1z"/>
	<path fill="#1E1B24" d="M113.9,106c-0.1-0.1-0.2-0.2-0.1-0.4c0.2-0.4,0.5-1.1,0.9-0.9c0,0,0.8,0.6,1.5,0.8c0-0.8,0-1.6,0-2.4
		c-1.2-0.5-2.5-1.1-2.5-2.8c0-1.2,0.8-2.2,2.5-2.4v-0.4c0-0.1,0.1-0.2,0.2-0.2h0.2c0.1,0,0.2,0.1,0.2,0.2V98
		c1.1,0.1,1.9,0.6,2.2,0.8c0.1,0.1,0.2,0.3,0.1,0.4c-0.2,0.4-0.6,1.1-0.9,0.9c-0.1,0-0.7-0.5-1.3-0.7v2.2c1.1,0.4,2.6,1.2,2.6,2.8
		c0,1.4-0.9,2.4-2.6,2.5v1.3c0,0.1-0.1,0.2-0.3,0.2c-0.2,0-0.4,0-0.4-0.2V107C114.9,106.9,114.1,106.2,113.9,106z M104.8,106
		c-0.1-0.1-0.2-0.2-0.1-0.4c0.2-0.4,0.5-1.1,0.9-0.9c0,0,0.8,0.6,1.5,0.8c0-0.8,0-1.6,0-2.4c-1.2-0.5-2.5-1.1-2.5-2.8
		c0-1.2,0.8-2.2,2.5-2.4v-0.4c0-0.1,0.1-0.2,0.2-0.2h0.2c0.1,0,0.2,0.1,0.2,0.2V98c1.1,0.1,1.9,0.6,2.2,0.8c0.1,0.1,0.2,0.3,0.1,0.4
		c-0.3,0.4-0.6,1.1-0.9,0.9c-0.1,0-0.7-0.5-1.3-0.7v2.2c1.1,0.4,2.6,1.2,2.6,2.8c0,1.4-0.9,2.4-2.6,2.5v1.3c0,0.1-0.1,0.2-0.3,0.2
		c-0.1,0-0.4,0-0.4-0.2V107C105.8,106.9,105,106.2,104.8,106z M95.7,106c-0.1-0.1-0.2-0.2-0.1-0.4c0.2-0.4,0.5-1.1,0.9-0.9
		c0,0,0.8,0.6,1.5,0.8c0-0.8,0-1.6,0-2.4c-1.2-0.5-2.5-1.1-2.5-2.8c0-1.2,0.8-2.2,2.5-2.4v-0.4c0-0.1,0.1-0.2,0.2-0.2h0.2
		c0.1,0,0.2,0.1,0.2,0.2V98c1.1,0.1,1.9,0.6,2.2,0.8c0.1,0.1,0.2,0.3,0.1,0.4c-0.2,0.4-0.6,1.1-0.9,0.9c-0.1,0-0.7-0.5-1.3-0.7v2.2
		c1.1,0.4,2.6,1.2,2.6,2.8c0,1.4-0.9,2.4-2.6,2.5v1.3c0,0.1-0.1,0.2-0.3,0.2c-0.2,0-0.4,0-0.4-0.2V107
		C96.7,106.9,95.9,106.2,95.7,106z M129.4,144.8H95.6c-0.6,0-1-0.4-1-1s0.4-1,1-1h33.8c0.6,0,1,0.4,1,1S130,144.8,129.4,144.8z
		 M129.4,132.2H95.6c-0.6,0-1-0.4-1-1c0-0.6,0.4-1,1-1h33.8c0.6,0,1,0.4,1,1C130.4,131.7,130,132.2,129.4,132.2z M129.4,119.6H95.6
		c-0.6,0-1-0.4-1-1c0-0.6,0.4-1,1-1h33.8c0.6,0,1,0.4,1,1C130.4,119.2,130,119.6,129.4,119.6z"/>
	<path fill="#1E1B24" d="M115.3,100.2c0,0.5,0.3,0.9,0.9,1.2v-2C115.6,99.5,115.3,99.8,115.3,100.2z"/>
	<path fill="#1E1B24" d="M106.2,100.2c0,0.5,0.3,0.9,0.9,1.2v-2C106.5,99.5,106.2,99.8,106.2,100.2z"/>
	<path fill="#1E1B24" d="M117.8,104.7c0-0.5-0.3-0.9-0.9-1.2v2.2C117.4,105.5,117.8,105.2,117.8,104.7z"/>
	<path fill="#1E1B24" d="M108.8,104.7c0-0.5-0.3-0.9-0.9-1.2v2.2C108.3,105.5,108.8,105.2,108.8,104.7z"/>
	<path fill="#1E1B24" d="M99.7,104.7c0-0.5-0.3-0.9-0.9-1.2v2.2C99.3,105.5,99.7,105.2,99.7,104.7z"/>
	<path fill="#1E1B24" d="M97.1,100.2c0,0.5,0.3,0.9,0.9,1.2v-2C97.4,99.5,97.1,99.8,97.1,100.2z"/>
	<path fill="#E6B209" d="M143.3,101.6v-9.7c0-2.4-2-4.4-4.4-4.4H92.3c-1.8,0-3.4,1.1-4.1,2.7c-0.2,0.5-0.3,1.1-0.3,1.7v0.8v2v56.7
		c0,2.4,2,4.4,4.4,4.4h43.8h2h0.8c2.4,0,4.4-2,4.4-4.4L143.3,101.6C143.3,101.7,143.3,101.7,143.3,101.6z M141.3,151.4
		c0,1.3-1.1,2.4-2.4,2.4H92.3c-1.3,0-2.4-1.1-2.4-2.4V91.9c0-0.3,0.1-0.6,0.2-0.9c0.4-0.9,1.2-1.5,2.2-1.5h46.6
		c1.3,0,2.4,1.1,2.4,2.4v9.8c0,0,0,0,0,0V151.4z"/>
	<path fill="#E6B209" d="M129.4,117.6H95.6c-0.6,0-1,0.4-1,1c0,0.6,0.4,1,1,1h33.8c0.6,0,1-0.4,1-1
		C130.4,118.1,130,117.6,129.4,117.6z"/>
	<path fill="#E6B209" d="M129.4,130.2H95.6c-0.6,0-1,0.4-1,1c0,0.6,0.4,1,1,1h33.8c0.6,0,1-0.4,1-1
		C130.4,130.6,130,130.2,129.4,130.2z"/>
	<path fill="#E6B209" d="M129.4,142.8H95.6c-0.6,0-1,0.4-1,1s0.4,1,1,1h33.8c0.6,0,1-0.4,1-1S130,142.8,129.4,142.8z"/>
	<path fill="#E6B209" d="M98.5,108.5c0.1,0,0.3-0.1,0.3-0.2V107c1.7-0.1,2.6-1.1,2.6-2.5c0-1.6-1.5-2.4-2.6-2.8v-2.2
		c0.6,0.2,1.3,0.6,1.3,0.7c0.3,0.2,0.7-0.5,0.9-0.9c0.1-0.1,0-0.3-0.1-0.4c-0.2-0.2-1.1-0.7-2.2-0.8v-0.4c0-0.1-0.1-0.2-0.2-0.2
		h-0.2c-0.1,0-0.2,0.1-0.2,0.2V98c-1.7,0.1-2.5,1.2-2.5,2.4c0,1.6,1.3,2.3,2.5,2.8c0,0.8,0,1.6,0,2.4c-0.8-0.2-1.5-0.7-1.5-0.8
		c-0.3-0.3-0.6,0.5-0.9,0.9c-0.1,0.2,0,0.3,0.1,0.4c0.2,0.2,1,0.9,2.4,1v1.3C98.1,108.5,98.3,108.5,98.5,108.5z M98.7,103.4
		c0.6,0.4,0.9,0.8,0.9,1.2c0,0.5-0.4,0.8-0.9,0.9V103.4z M98.1,101.4c-0.6-0.3-0.9-0.7-0.9-1.2c0-0.4,0.3-0.7,0.9-0.8V101.4z"/>
	<path fill="#E6B209" d="M107.5,108.5c0.1,0,0.3-0.1,0.3-0.2V107c1.7-0.1,2.6-1.1,2.6-2.5c0-1.6-1.5-2.4-2.6-2.8v-2.2
		c0.6,0.2,1.3,0.6,1.3,0.7c0.3,0.2,0.6-0.5,0.9-0.9c0.1-0.1,0-0.3-0.1-0.4c-0.2-0.2-1.1-0.7-2.2-0.8v-0.4c0-0.1-0.1-0.2-0.2-0.2
		h-0.2c-0.1,0-0.2,0.1-0.2,0.2V98c-1.7,0.1-2.5,1.2-2.5,2.4c0,1.6,1.3,2.3,2.5,2.8c0,0.8,0,1.6,0,2.4c-0.7-0.2-1.5-0.7-1.5-0.8
		c-0.4-0.3-0.7,0.5-0.9,0.9c-0.1,0.2-0.1,0.3,0.1,0.4c0.2,0.2,1,0.9,2.4,1v1.3C107.2,108.5,107.4,108.5,107.5,108.5z M107.8,103.4
		c0.6,0.4,0.9,0.8,0.9,1.2c0,0.5-0.4,0.8-0.9,0.9V103.4z M107.1,101.4c-0.6-0.3-0.9-0.7-0.9-1.2c0-0.4,0.3-0.7,0.9-0.8V101.4z"/>
	<path fill="#E6B209" d="M116.6,108.5c0.1,0,0.3-0.1,0.3-0.2V107c1.7-0.1,2.6-1.1,2.6-2.5c0-1.6-1.5-2.4-2.6-2.8v-2.2
		c0.6,0.2,1.3,0.6,1.3,0.7c0.3,0.2,0.7-0.5,0.9-0.9c0.1-0.1,0-0.3-0.1-0.4c-0.2-0.2-1.1-0.7-2.2-0.8v-0.4c0-0.1-0.1-0.2-0.2-0.2
		h-0.2c-0.1,0-0.2,0.1-0.2,0.2V98c-1.7,0.1-2.5,1.2-2.5,2.4c0,1.6,1.3,2.3,2.5,2.8c0,0.8,0,1.6,0,2.4c-0.8-0.2-1.5-0.7-1.5-0.8
		c-0.3-0.3-0.6,0.5-0.9,0.9c-0.1,0.2,0,0.3,0.1,0.4c0.2,0.2,1,0.9,2.4,1v1.3C116.2,108.5,116.5,108.5,116.6,108.5z M116.9,103.4
		c0.6,0.4,0.9,0.8,0.9,1.2c0,0.5-0.4,0.8-0.9,0.9V103.4z M116.2,101.4c-0.6-0.3-0.9-0.7-0.9-1.2c0-0.4,0.3-0.7,0.9-0.8V101.4z"/>
</g>
<g>
	<path fill="#E6B209" d="M0,96.9v59.5c0,1.3,1.1,2.4,2.4,2.4H49c1.3,0,2.4-1.1,2.4-2.4v-0.8H7.6c-2.4,0-4.4-2-4.4-4.4V94.5H2.4
		C1.1,94.5,0,95.5,0,96.9z"/>
	<path fill="#E6B209" d="M54.3,89.2H7.6c-1.3,0-2.4,1.1-2.4,2.4v49.7c0,0.1,0,0.1,0,0.2l0,0v9.6c0,1.3,1.1,2.4,2.4,2.4h46.6
		c1.3,0,2.4-1.1,2.4-2.4v-0.2v-49.5v-9.8C56.7,90.3,55.6,89.2,54.3,89.2z M50.1,124.6c0,0.5-0.5,0.9-1,0.9c0,0,0,0-0.1,0l-4.5-0.3
		c-0.6,0-1-0.5-0.9-1.1c0-0.5,0.5-1,1.1-0.9l4.5,0.3C49.7,123.6,50.2,124.1,50.1,124.6z M42.3,115.4l4.8-3.3
		c0.5-0.3,1.1-0.2,1.4,0.3c0.3,0.5,0.2,1.1-0.3,1.4l-4.8,3.3c-0.2,0.1-0.4,0.2-0.6,0.2c-0.3,0-0.6-0.2-0.8-0.4
		C41.7,116.4,41.8,115.7,42.3,115.4z M39.9,131.5c0.3-0.4,1-0.5,1.4-0.2l3.3,2.5c0.4,0.3,0.5,1,0.2,1.4c-0.2,0.3-0.5,0.4-0.8,0.4
		c-0.2,0-0.4-0.1-0.6-0.2l-3.3-2.5C39.6,132.6,39.5,132,39.9,131.5z M34.9,109.8l1.8-5.2c0.2-0.5,0.8-0.8,1.3-0.6
		c0.5,0.2,0.8,0.8,0.6,1.3l-1.8,5.2c-0.1,0.4-0.5,0.7-0.9,0.7c-0.1,0-0.2,0-0.3-0.1C35,110.9,34.7,110.4,34.9,109.8z M23.1,104.1
		c0.5-0.2,1.1,0.1,1.3,0.6l1.8,5.2c0.2,0.5-0.1,1.1-0.6,1.3c-0.1,0-0.2,0.1-0.3,0.1c-0.4,0-0.8-0.3-0.9-0.7l-1.8-5.2
		C22.3,104.9,22.6,104.3,23.1,104.1z M23.7,116.8c1.7-1.8,4.1-2.9,6.9-2.9c2.8,0,5.1,1,6.8,2.8c1.7,1.9,2.5,4.4,2.2,7.1
		c-0.2,2.3-1.4,3.9-2.6,5.5c-1,1.4-1.9,2.6-2.3,4.3c-0.1,0.5-0.5,0.8-1,0.8c-0.1,0-0.1,0-0.2,0c-0.5-0.1-0.8-0.5-0.8-1h-4.4
		c0,0.5-0.3,0.9-0.8,1c-0.5,0.1-1.1-0.2-1.2-0.8c-0.3-1.7-1.3-3-2.3-4.4c-1.1-1.6-2.3-3.2-2.6-5.5C21.3,121.2,22,118.7,23.7,116.8z
		 M30.6,138.2c-2.4,0-3.3-0.1-3.9-0.6c-0.4-0.3-0.5-1-0.2-1.4c0.3-0.4,0.9-0.5,1.4-0.2c0.2,0.1,0.7,0.2,2.7,0.2c2,0,2.6-0.1,2.7-0.2
		c0.4-0.3,1.1-0.2,1.4,0.2c0.3,0.4,0.2,1.1-0.2,1.4C33.9,138,33,138.2,30.6,138.2z M33.8,140.8c-0.5,0.3-1.2,0.4-3.2,0.4
		c-2,0-2.7-0.1-3.2-0.4c-0.5-0.3-0.6-0.9-0.3-1.4c0.3-0.5,0.9-0.6,1.3-0.4c0.1,0,0.6,0.1,2.2,0.1c1.6,0,2.1-0.1,2.2-0.1
		c0.5-0.3,1.1-0.1,1.4,0.3C34.5,139.9,34.3,140.6,33.8,140.8z M21.2,131.5c0.3,0.4,0.3,1.1-0.2,1.4l-3.3,2.5
		c-0.2,0.1-0.4,0.2-0.6,0.2c-0.3,0-0.6-0.1-0.8-0.4c-0.3-0.4-0.3-1.1,0.2-1.4l3.3-2.5C20.3,131,20.9,131.1,21.2,131.5z M12.6,112.4
		c0.3-0.5,0.9-0.6,1.4-0.3l4.8,3.3c0.5,0.3,0.6,0.9,0.3,1.4c-0.2,0.3-0.5,0.4-0.8,0.4c-0.2,0-0.4-0.1-0.6-0.2l-4.8-3.3
		C12.4,113.5,12.3,112.8,12.6,112.4z M11.9,123.6l4.5-0.3c0.6,0,1,0.4,1.1,0.9c0,0.6-0.4,1-0.9,1.1l-4.5,0.3c0,0,0,0-0.1,0
		c-0.5,0-1-0.4-1-0.9C11,124.1,11.4,123.6,11.9,123.6z"/>
	<path fill="#E6B209" d="M29.2,122.1c0,0.5,0.3,0.9,0.9,1.2v-2C29.5,121.3,29.2,121.7,29.2,122.1z"/>
	<path fill="#E6B209" d="M35.4,128.2c1.1-1.5,2-2.8,2.2-4.5c0.2-2.2-0.4-4.2-1.7-5.6c-1.3-1.4-3.1-2.1-5.3-2.1
		c-2.2,0-4.1,0.8-5.4,2.2c-1.3,1.4-1.9,3.4-1.6,5.5c0.2,1.8,1.2,3.1,2.2,4.5c1.1,1.5,2.2,3,2.6,5.2c0,0.1,0,0.1,0,0.2h4.4
		c0-0.1,0-0.1,0-0.2C33.2,131.2,34.4,129.6,35.4,128.2z M30.8,128.8v1.3c0,0.1-0.1,0.2-0.3,0.2c-0.1,0-0.4,0-0.4-0.2v-1.3
		c-1.3-0.1-2.1-0.8-2.4-1c-0.1-0.1-0.2-0.2-0.1-0.4c0.2-0.4,0.5-1.1,0.9-0.9c0,0,0.8,0.6,1.5,0.8c0-0.8,0-1.6,0-2.4
		c-1.2-0.5-2.5-1.1-2.5-2.8c0-1.2,0.8-2.2,2.5-2.4v-0.4c0-0.1,0.1-0.2,0.2-0.2h0.2c0.1,0,0.2,0.1,0.2,0.2v0.4
		c1.1,0.1,1.9,0.6,2.2,0.8c0.1,0.1,0.2,0.3,0.1,0.4c-0.3,0.4-0.6,1.1-0.9,0.9c-0.1,0-0.7-0.5-1.3-0.7v2.2c1.1,0.4,2.6,1.2,2.6,2.8
		C33.4,127.7,32.5,128.7,30.8,128.8z"/>
	<path fill="#E6B209" d="M30.8,125.3v2.2c0.5-0.1,0.9-0.5,0.9-0.9C31.8,126.1,31.4,125.7,30.8,125.3z"/>
	<path fill="#231F20" d="M30.6,114c-2.8,0-5.2,1-6.9,2.9c-1.7,1.9-2.4,4.4-2.1,7.1c0.3,2.3,1.4,3.9,2.6,5.5c1,1.4,1.9,2.7,2.3,4.4
		c0.1,0.5,0.6,0.9,1.2,0.8c0.5-0.1,0.8-0.5,0.8-1c0-0.1,0-0.1,0-0.2c-0.4-2.2-1.5-3.7-2.6-5.2c-1-1.4-2-2.7-2.2-4.5
		c-0.2-2.1,0.3-4.1,1.6-5.5c1.3-1.4,3.2-2.2,5.4-2.2c2.2,0,4,0.7,5.3,2.1c1.3,1.4,1.9,3.4,1.7,5.6c-0.2,1.8-1.1,3-2.2,4.5
		c-1,1.4-2.2,3-2.6,5.1c0,0.1,0,0.1,0,0.2c0,0.5,0.3,0.9,0.8,1c0.1,0,0.1,0,0.2,0c0.5,0,0.9-0.3,1-0.8c0.3-1.7,1.3-3,2.3-4.3
		c1.2-1.6,2.4-3.2,2.6-5.5c0.3-2.8-0.5-5.3-2.2-7.1C35.7,114.9,33.4,114,30.6,114z"/>
	<path fill="#231F20" d="M32.8,139.1c-0.1,0-0.6,0.1-2.2,0.1c-1.6,0-2.1-0.1-2.2-0.1c-0.5-0.3-1.1-0.1-1.3,0.4
		c-0.3,0.5-0.1,1.1,0.3,1.4c0.5,0.3,1.2,0.4,3.2,0.4c2,0,2.7-0.1,3.2-0.4c0.5-0.3,0.6-0.9,0.4-1.4C33.9,139,33.3,138.8,32.8,139.1z"
		/>
	<path fill="#231F20" d="M33.3,136c-0.1,0.1-0.7,0.2-2.7,0.2c-2,0-2.6-0.1-2.7-0.2c-0.4-0.3-1.1-0.2-1.4,0.2
		c-0.3,0.4-0.3,1.1,0.2,1.4c0.6,0.4,1.5,0.6,3.9,0.6s3.3-0.1,3.9-0.6c0.4-0.3,0.5-1,0.2-1.4C34.4,135.7,33.8,135.6,33.3,136z"/>
	<path fill="#231F20" d="M19.8,131.3l-3.3,2.5c-0.4,0.3-0.5,1-0.2,1.4c0.2,0.3,0.5,0.4,0.8,0.4c0.2,0,0.4-0.1,0.6-0.2l3.3-2.5
		c0.4-0.3,0.5-1,0.2-1.4C20.9,131.1,20.3,131,19.8,131.3z"/>
	<path fill="#231F20" d="M18.2,117.3c0.3,0,0.6-0.2,0.8-0.4c0.3-0.5,0.2-1.1-0.3-1.4l-4.8-3.3c-0.5-0.3-1.1-0.2-1.4,0.3
		c-0.3,0.5-0.2,1.1,0.3,1.4l4.8,3.3C17.8,117.2,18,117.3,18.2,117.3z"/>
	<path fill="#231F20" d="M25.3,111.2c0.1,0,0.2,0,0.3-0.1c0.5-0.2,0.8-0.8,0.6-1.3l-1.8-5.2c-0.2-0.5-0.8-0.8-1.3-0.6
		c-0.5,0.2-0.8,0.8-0.6,1.3l1.8,5.2C24.5,110.9,24.9,111.2,25.3,111.2z"/>
	<path fill="#231F20" d="M17.5,124.2c0-0.5-0.5-1-1.1-0.9l-4.5,0.3c-0.6,0-1,0.5-0.9,1.1c0,0.5,0.5,0.9,1,0.9c0,0,0,0,0.1,0l4.5-0.3
		C17.1,125.2,17.5,124.7,17.5,124.2z"/>
	<path fill="#231F20" d="M41.3,131.3c-0.4-0.3-1.1-0.3-1.4,0.2c-0.3,0.4-0.3,1.1,0.2,1.4l3.3,2.5c0.2,0.1,0.4,0.2,0.6,0.2
		c0.3,0,0.6-0.1,0.8-0.4c0.3-0.4,0.3-1.1-0.2-1.4L41.3,131.3z"/>
	<path fill="#231F20" d="M47.1,112.1l-4.8,3.3c-0.5,0.3-0.6,0.9-0.3,1.4c0.2,0.3,0.5,0.4,0.8,0.4c0.2,0,0.4-0.1,0.6-0.2l4.8-3.3
		c0.5-0.3,0.6-0.9,0.3-1.4C48.2,111.9,47.6,111.8,47.1,112.1z"/>
	<path fill="#231F20" d="M38,104.1c-0.5-0.2-1.1,0.1-1.3,0.6l-1.8,5.2c-0.2,0.5,0.1,1.1,0.6,1.3c0.1,0,0.2,0.1,0.3,0.1
		c0.4,0,0.8-0.3,0.9-0.7l1.8-5.2C38.8,104.8,38.5,104.3,38,104.1z"/>
	<path fill="#231F20" d="M49.2,123.6l-4.5-0.3c-0.6,0-1,0.4-1.1,0.9c0,0.6,0.4,1,0.9,1.1l4.5,0.3c0,0,0,0,0.1,0c0.5,0,1-0.4,1-0.9
		C50.2,124.1,49.7,123.6,49.2,123.6z"/>
	<path fill="#231F20" d="M30.8,123.6v-2.2c0.6,0.2,1.3,0.6,1.3,0.7c0.3,0.2,0.6-0.5,0.9-0.9c0.1-0.1,0-0.3-0.1-0.4
		c-0.2-0.2-1.1-0.7-2.2-0.8v-0.4c0-0.1-0.1-0.2-0.2-0.2h-0.2c-0.1,0-0.2,0.1-0.2,0.2v0.4c-1.7,0.1-2.5,1.2-2.5,2.4
		c0,1.6,1.3,2.3,2.5,2.8c0,0.8,0,1.6,0,2.4c-0.7-0.2-1.5-0.7-1.5-0.8c-0.4-0.3-0.6,0.5-0.9,0.9c-0.1,0.2,0,0.3,0.1,0.4
		c0.2,0.2,1,0.9,2.4,1v1.3c0,0.2,0.2,0.2,0.4,0.2c0.1,0,0.3-0.1,0.3-0.2v-1.3c1.7-0.1,2.6-1.1,2.6-2.5
		C33.4,124.8,31.9,124,30.8,123.6z M30.1,123.3c-0.6-0.3-0.9-0.7-0.9-1.2c0-0.4,0.3-0.7,0.9-0.8V123.3z M30.8,127.5v-2.2
		c0.6,0.4,0.9,0.8,0.9,1.2C31.8,127,31.4,127.4,30.8,127.5z"/>
</g>
<g>
	<path fill="#E6B209" d="M95.7,68.3v0.8c0,1.3-1.1,2.4-2.4,2.4H46.7c-1.3,0-2.4-1.1-2.4-2.4V9.6c0-1.3,1.1-2.4,2.4-2.4h0.8v-2h-0.8
		c-2.4,0-4.4,2-4.4,4.4v59.5c0,2.4,2,4.4,4.4,4.4h46.6c2.4,0,4.4-2,4.4-4.4v-0.8H95.7z"/>
	<path fill="#1E1B24" d="M94.1,6.4L96.7,9C95.9,8.1,95,7.3,94.1,6.4z"/>
	<path fill="#1E1B24" d="M68.4,14.6c0-0.5-0.3-0.9-0.9-1.2v2.2C68,15.4,68.4,15.1,68.4,14.6z"/>
	<path fill="#1E1B24" d="M59.3,14.6c0-0.5-0.3-0.9-0.9-1.2v2.2C58.9,15.4,59.3,15.1,59.3,14.6z"/>
	<path fill="#1E1B24" d="M65.8,10.1c0,0.5,0.3,0.9,0.9,1.2v-2C66.1,9.4,65.8,9.7,65.8,10.1z"/>
	<path fill="#1E1B24" d="M56.7,10.1c0,0.5,0.3,0.9,0.9,1.2v-2C57.1,9.4,56.7,9.7,56.7,10.1z"/>
	<path fill="#E6B209" d="M102,15.2h-1v48.7c0,1.3-1.1,2.4-2.4,2.4H51.9c-1.3,0-2.4-1.1-2.4-2.4V4.4c0-1.3,1.1-2.4,2.4-2.4l35.6,0V1
		c0-0.6,0.4-1,1-1H51.9c-2.4,0-4.4,2-4.4,4.4v0.8v2v56.7c0,2.4,2,4.4,4.4,4.4h43.8h2h0.8c2.4,0,4.4-2,4.4-4.4V14.2
		C103,14.7,102.5,15.2,102,15.2z"/>
	<path fill="#E6B209" d="M102.9,13.8c0,0.1,0.1,0.2,0.1,0.4C103,14.1,102.9,14,102.9,13.8z"/>
	<path fill="#E6B209" d="M89.6,1v1l4.5,4.4C95,7.3,95.9,8.1,96.7,9l4.3,4.2h1c0.4,0,0.8,0.2,0.9,0.6c-1-3.1-12-13.8-14.3-13.8
		C89.1,0,89.6,0.4,89.6,1z"/>
	<path fill="#E6B209" d="M87.6,1v1v12.2c0,0.6,0.4,1,1,1H101h1c0.6,0,1-0.4,1-1c0-0.1,0-0.3-0.1-0.4c0,0,0,0,0,0
		c-0.2-0.4-0.5-0.6-0.9-0.6h-1H89.6V2V1c0-0.6-0.4-1-1-1C88,0,87.6,0.4,87.6,1z"/>
	<path fill="#E6B209" d="M89,30.1H55.2c-0.6,0-1,0.4-1,1c0,0.6,0.4,1,1,1H89c0.6,0,1-0.4,1-1C90,30.6,89.6,30.1,89,30.1z"/>
	<path fill="#E6B209" d="M89,42.7H55.2c-0.6,0-1,0.4-1,1s0.4,1,1,1H89c0.6,0,1-0.4,1-1S89.6,42.7,89,42.7z"/>
	<path fill="#E6B209" d="M89,55.3H55.2c-0.6,0-1,0.4-1,1c0,0.6,0.4,1,1,1H89c0.6,0,1-0.4,1-1C90,55.7,89.6,55.3,89,55.3z"/>
	<path fill="#E6B209" d="M58.1,18.4c0.1,0,0.3-0.1,0.3-0.2v-1.3c1.7-0.1,2.6-1.1,2.6-2.5c0-1.6-1.5-2.4-2.6-2.8V9.3
		C59,9.5,59.6,10,59.7,10c0.3,0.2,0.6-0.5,0.9-0.9c0.1-0.1,0.1-0.3-0.1-0.4c-0.2-0.2-1.1-0.7-2.2-0.8V7.5c0-0.1-0.1-0.2-0.2-0.2H58
		c-0.1,0-0.2,0.1-0.2,0.2v0.4C56,8,55.2,9.1,55.2,10.3c0,1.6,1.3,2.3,2.5,2.8c0,0.8,0,1.6,0,2.4c-0.8-0.2-1.5-0.7-1.5-0.8
		c-0.3-0.3-0.6,0.5-0.9,0.9c-0.1,0.2,0,0.3,0.1,0.4c0.2,0.2,1,0.9,2.4,1v1.3C57.7,18.4,57.9,18.4,58.1,18.4z M58.4,13.3
		c0.6,0.4,0.9,0.8,0.9,1.2c0,0.5-0.4,0.8-0.9,0.9V13.3z M57.7,11.3c-0.6-0.3-0.9-0.7-0.9-1.2c0-0.4,0.3-0.7,0.9-0.8V11.3z"/>
	<path fill="#E6B209" d="M67.2,18.4c0.1,0,0.3-0.1,0.3-0.2v-1.3c1.7-0.1,2.6-1.1,2.6-2.5c0-1.6-1.5-2.4-2.6-2.8V9.3
		c0.6,0.2,1.3,0.6,1.3,0.7c0.3,0.2,0.6-0.5,0.9-0.9c0.1-0.1,0-0.3-0.1-0.4c-0.2-0.2-1.1-0.7-2.2-0.8V7.5c0-0.1-0.1-0.2-0.2-0.2H67
		c-0.1,0-0.2,0.1-0.2,0.2v0.4c-1.7,0.1-2.5,1.2-2.5,2.4c0,1.6,1.3,2.3,2.5,2.8c0,0.8,0,1.6,0,2.4c-0.7-0.2-1.5-0.7-1.5-0.8
		c-0.4-0.3-0.6,0.5-0.9,0.9c-0.1,0.2,0,0.3,0.1,0.4c0.2,0.2,1,0.9,2.4,1v1.3C66.8,18.4,67,18.4,67.2,18.4z M67.4,13.3
		c0.6,0.4,0.9,0.8,0.9,1.2c0,0.5-0.4,0.8-0.9,0.9V13.3z M66.8,11.3c-0.6-0.3-0.9-0.7-0.9-1.2c0-0.4,0.3-0.7,0.9-0.8V11.3z"/>
</g>
</svg>
