<?xml version="1.0" encoding="utf-8"?>
<!-- Generator: Adobe Illustrator 18.0.0, SVG Export Plug-In . SVG Version: 6.00 Build 0)  -->
<!DOCTYPE svg PUBLIC "-//W3C//DTD SVG 1.1//EN" "http://www.w3.org/Graphics/SVG/1.1/DTD/svg11.dtd">
<svg version="1.1" id="Layer_1" xmlns="http://www.w3.org/2000/svg" xmlns:xlink="http://www.w3.org/1999/xlink" x="0px" y="0px"
	 viewBox="0 0 85.1 108.2" enable-background="new 0 0 85.1 108.2" xml:space="preserve">
<path fill="#E6B209" d="M69.5,17.8c-0.3,0.2-0.7,0.2-0.9-0.1c-0.2-0.3-0.2-0.7,0-1l7.7-7.1c0.3-0.2,0.7-0.2,0.9,0.1
	c0.2,0.3,0.2,0.7,0,1L69.5,17.8L69.5,17.8z M55.2,11.4c0,0.4-0.3,0.7-0.7,0.6c-0.4,0-0.6-0.4-0.6-0.7L54.2,3c0-0.4,0.3-0.7,0.7-0.6
	c0.4,0,0.6,0.4,0.6,0.7L55.2,11.4L55.2,11.4z M70.2,43.2c-0.3-0.2-0.4-0.6-0.2-0.9c0.2-0.3,0.6-0.4,0.9-0.2l6.8,4.7
	c0.3,0.2,0.4,0.6,0.2,0.9c-0.2,0.3-0.6,0.4-0.9,0.2L70.2,43.2L70.2,43.2z M73.1,33.5c-0.4,0-0.6-0.4-0.6-0.7c0-0.4,0.3-0.7,0.7-0.6
	l8.2,0.7c0.4,0,0.6,0.4,0.6,0.7c0,0.4-0.3,0.6-0.7,0.6L73.1,33.5L73.1,33.5z M64.6,15.3c-0.2,0.3-0.6,0.4-0.9,0.2
	c-0.3-0.2-0.4-0.6-0.2-0.9l4.3-7c0.2-0.3,0.6-0.4,0.9-0.2C69,7.6,69.1,8,68.9,8.3L64.6,15.3L64.6,15.3z M73.7,22
	c-0.3,0.2-0.7,0-0.9-0.3c-0.2-0.3-0.1-0.7,0.3-0.9l4.7-2.4c0.3-0.2,0.7,0,0.9,0.3c0.2,0.3,0.1,0.7-0.3,0.9L73.7,22L73.7,22z
	 M69.2,37.4c-0.3-0.1-0.5-0.5-0.4-0.9c0.1-0.4,0.5-0.5,0.8-0.4l14.6,5.3c0.3,0.1,0.5,0.5,0.4,0.9c-0.1,0.4-0.5,0.5-0.8,0.4
	L69.2,37.4L69.2,37.4z M74.4,28c-0.3,0.1-0.7-0.2-0.8-0.5c-0.1-0.4,0.1-0.7,0.5-0.8l10.3-2c0.4-0.1,0.7,0.2,0.8,0.5
	c0.1,0.4-0.1,0.7-0.5,0.8L74.4,28L74.4,28z M59.2,15.9c-0.1,0.4-0.5,0.5-0.8,0.4c-0.3-0.1-0.5-0.5-0.4-0.9l4.4-15
	c0.1-0.4,0.5-0.5,0.8-0.4c0.3,0.1,0.5,0.5,0.4,0.9L59.2,15.9L59.2,15.9z"/>
<g>
	<path fill="#FFFFFF" d="M13.3,82.5c-0.4,0-0.8,0-1.2-0.1l-7.9-1.9L4,81.3c-0.2,0.9-0.1,1.8,0.4,2.7c0.5,0.8,1.2,1.4,2.1,1.6
		l8.2,2.2c0.3,0.1,0.6,0.1,0.9,0.1c1.6,0,3-1.1,3.4-2.6l0.7-2.7c0.2-0.6,0.1-1.2,0-1.8l-2-0.9C16.8,81.4,15.1,82.5,13.3,82.5z"/>
	<path fill="#FFFFFF" d="M14.3,55.4c0.2,0.3,0.3,0.6,0.4,0.9l16.6-36.5c0.6-1.4,2-2.3,3.4-2.3c0.5,0,0.9,0.1,1.3,0.3L58.1,28
		c0.9,0.4,1.5,1.1,1.8,2.1c0.3,0.9,0.2,1.9-0.2,2.8L47,60.8c0.5,1,1.1,2.5,2,4.2l16.3-35.9c0.5-1.2,0-2.6-1.2-3.2L33.5,12.1
		c-0.3-0.1-0.7-0.2-1-0.2c-0.9,0-1.8,0.6-2.2,1.4L12,53.5C13,53.9,13.8,54.6,14.3,55.4z"/>
	<path fill="#FFFFFF" d="M36.8,78.2c-0.5,0-0.9-0.1-1.3-0.3l-20-9.1L15,70.4l0,0c1.3,0.3,2.3,1.1,3,2.2c0.7,1.1,0.9,2.4,0.6,3.7
		l-0.4,1.6l18,8.2c1.5-3.3,5.1-6.8,6.6-8.3c-0.6-0.6-1.5-1.4-2.4-2.6l-0.3,0.7C39.5,77.3,38.2,78.2,36.8,78.2z"/>
	<path fill="#E6B209" d="M29.9,61.5c0-0.2,0-0.3,0.1-0.4c-0.2,0.3-0.8,1-1.8,2.1l1.4,0.7C29.8,62.4,29.9,61.6,29.9,61.5z"/>
	<path fill="#E6B209" d="M24.8,60.6c0.2-0.1,0.4-0.2,0.6-0.5c0.1-0.3,0.1-0.5,0.1-0.7c-0.1-0.2-0.3-0.4-0.6-0.5l-0.5-0.2l-0.7,1.6
		l0.4,0.2C24.2,60.6,24.5,60.6,24.8,60.6z"/>
	<path fill="#E6B209" d="M13.5,63.7c1.2,0.7,1.9,1.8,2.1,3.1l20.6,9.4c0.7,0.3,1.7-0.1,2.1-1l0.8-1.8c-1.5-2.6-2.6-5.9-1.5-9.5
		l-3.2,2.4l-1,2.2l-1.2-0.5l1-2.1L33,61.4l1.3,0.6l0.1,2.8l2.2-1.8l1.1,0.5c0.1-0.2,0.1-0.5,0.2-0.7c1.5-3.7,4.4-4.4,6.5-4.3
		L20.7,47.8L13.5,63.7z M31.1,60.5L30.5,67l-1.3-0.6l0.2-1.5l-2-0.9l-1,1.1l-1.3-0.6l4.5-4.7L31.1,60.5z M25.3,57.9
		c0.7,0.3,1.1,0.7,1.3,1.1c0.2,0.4,0.2,1-0.1,1.5c-0.3,0.6-0.7,1-1.2,1.1c-0.5,0.1-1.1,0.1-1.8-0.2l-0.5-0.2l-0.9,2L21,62.6l2.5-5.5
		L25.3,57.9z"/>
	<path fill="#E6B209" d="M37,39.3c0.9-0.6,1.7-1.3,2.3-1.9c0.2-0.2,0-0.4-0.3-0.3c-0.9,0.4-1.8,0.8-2.7,1.1
		C34.2,38.9,35.5,40.3,37,39.3z"/>
	<path fill="#E6B209" d="M35.8,41.7c0-0.3-0.2-0.5-0.5-0.5l-2-0.1c-0.3,0-0.5,0.2-0.5,0.5c0,0.3,0.2,0.5,0.5,0.5l2,0.1
		C35.5,42.2,35.8,42,35.8,41.7z"/>
	<path fill="#E6B209" d="M42.6,37.3c0-1.2-1.4-1.2-1.8-0.8c-0.3,0.3-0.7,0.7-1.1,1.2c-0.9,1.1-2.5,2.2-3,3.4
		c-0.5,1.3,0.2,2.4,1.2,3.1c0.1,0.1,0.2,0.2,0.2,0.2c0,0.3,0.3,0.4,0.5,0.2c0.1,0,0.1-0.1,0.3,0c1.1,0.3,2.4,0,3-1.2
		c0.6-1.1,0.4-3,0.6-4.5C42.6,38.3,42.7,37.7,42.6,37.3z"/>
	<path fill="#E6B209" d="M41.5,45.7c-0.1-0.2-0.4-0.4-0.6-0.3c-0.2,0.1-0.4,0.4-0.3,0.6l0.3,0.9c0.1,0.2,0.4,0.4,0.6,0.3
		c0.2-0.1,0.4-0.4,0.3-0.6L41.5,45.7z"/>
	<path fill="#E6B209" d="M39.4,45.6c-0.3,0-0.5,0.2-0.5,0.5l0,1.9c0,0.3,0.2,0.5,0.5,0.5c0.3,0,0.5-0.2,0.5-0.5l0-1.9
		C39.9,45.9,39.7,45.6,39.4,45.6z"/>
	<path fill="#E6B209" d="M42.8,44.6c-0.2-0.2-0.5-0.2-0.7,0c-0.2,0.2-0.2,0.5,0,0.7l1.3,1.3c0.2,0.2,0.5,0.2,0.7,0
		c0.2-0.2,0.2-0.5,0-0.7L42.8,44.6z"/>
	<path fill="#E6B209" d="M38,45.3c-0.2-0.1-0.5,0-0.6,0.2L37,46.4c-0.1,0.2,0,0.5,0.2,0.6c0.2,0.1,0.5,0,0.6-0.2l0.4-0.9
		C38.3,45.7,38.2,45.4,38,45.3z"/>
	<path fill="#E6B209" d="M44.4,35.4c0,0-0.5-0.5-0.4-1c0.1-0.6,0.5-1.4,1-1.7c0.2-0.1,0.4-0.2,0.6-0.3c0.4-0.2,0.7-0.3,1.1-0.4
		c0.1,0,0.1-0.2,0.1-0.3c0-0.1-0.1-0.2-0.2-0.2c-0.4,0.1-0.8,0.2-1.2,0.4c-1.8,0.8-2,0.3-2.4-1.1c-0.1-0.4-0.3-0.8-0.5-1.1
		c0-0.1-0.2-0.1-0.3-0.1c-0.1,0-0.2,0.2-0.1,0.3c0.2,0.3,0.3,0.7,0.5,1.1c0.1,0.2,0.1,0.4,0.2,0.6c0.1,0.6-0.2,1.5-0.5,1.9
		c-0.3,0.4-1,0.3-1,0.3c-1.6,0.1-3.4-0.3-5.2-0.1c-6.2,0.6-6.6,6.2,0.6,3.6c6.6-2.3,5.7-2.7,8.2,3.7c2.8,7.1,6.8,3.2,3.1-1.9
		C46.8,37.8,45.3,36.7,44.4,35.4z"/>
	<path fill="#E6B209" d="M36.1,44.4l-1.3,1.2c-0.2,0.2-0.2,0.5,0,0.7c0.2,0.2,0.5,0.2,0.7,0l1.3-1.2c0.2-0.2,0.2-0.5,0-0.7
		C36.6,44.3,36.3,44.2,36.1,44.4z"/>
	<path fill="#E6B209" d="M43.4,39.1c-0.1-0.3-0.4-0.3-0.4,0c-0.1,0.9-0.1,1.9,0.1,3c0.2,1.8,2.1,1.8,1.3-0.2
		C44,41,43.7,40,43.4,39.1z"/>
	<path fill="#E6B209" d="M35.7,43.8c0.2-0.1,0.4-0.4,0.3-0.6c-0.1-0.2-0.4-0.4-0.6-0.3l-0.9,0.3c-0.2,0.1-0.4,0.4-0.3,0.6
		c0.1,0.2,0.4,0.4,0.6,0.3L35.7,43.8z"/>
	<path fill="#FFFFFF" d="M22.2,63.2l0.9-2l0.5,0.2c0.7,0.3,1.3,0.4,1.8,0.2c0.5-0.1,0.9-0.5,1.2-1.1c0.3-0.6,0.3-1.1,0.1-1.5
		c-0.2-0.4-0.7-0.8-1.3-1.1l-1.8-0.8L21,62.6L22.2,63.2z M24.2,58.6l0.5,0.2c0.3,0.1,0.5,0.3,0.6,0.5c0.1,0.2,0.1,0.4-0.1,0.7
		c-0.1,0.3-0.3,0.4-0.6,0.5c-0.2,0.1-0.5,0-0.9-0.2l-0.4-0.2L24.2,58.6z"/>
	<path fill="#FFFFFF" d="M26.4,65.1l1-1.1l2,0.9l-0.2,1.5l1.3,0.6l0.6-6.4l-1.4-0.7l-4.5,4.7L26.4,65.1z M30,61.1
		c0,0.1,0,0.2-0.1,0.4c0,0.2-0.1,0.9-0.3,2.3l-1.4-0.7C29.1,62,29.7,61.3,30,61.1z"/>
	<path fill="#FFFFFF" d="M34.4,64.8L34.3,62L33,61.4l0.3,4.2l-1,2.1l1.2,0.5l1-2.2l3.2-2.4c0-0.1,0-0.2,0.1-0.2l-1.1-0.5L34.4,64.8z
		"/>
	<path fill="#FFFFFF" d="M52.9,81.4c0,0-2.2,17.2,0.2,20.6l-21.7,6.2c0-1.1-0.2-5.8-2.5-8.4c-1.9-2.1-5.2-3.9-8.7-5.8
		c-3-1.6-6.1-3.3-8.6-5.3l2.8,0.7c0.4,0.1,0.9,0.2,1.3,0.2c2.4,0,4.4-1.6,5-3.9l0.7-2.7c0.1-0.5,0.2-0.9,0.2-1.4L35.6,88
		c-0.2,1.3-0.2,4.5-0.1,4.8c0,0.5,0.4,0.8,0.8,0.8c0,0,0,0,0,0c0.5,0,0.8-0.4,0.8-0.9c0-0.1,0-0.3,0-0.6c0-1.2,0-3.3,0.1-4
		c0.8-3.8,7.4-9.7,7.4-9.8c0.2-0.2,0.3-0.4,0.3-0.7c0-0.3-0.1-0.5-0.3-0.6c-0.1-0.1-8-6.4-5.2-13.7c1.4-3.6,4.4-3.3,5.4-3.1
		c0.7,1.6,3.9,8.4,7.5,16C52.8,77.1,53.5,79.1,52.9,81.4z"/>
	<path fill="#FFFFFF" d="M10.8,73.8c-0.4,0-0.8-0.1-1.2-0.2l-8.2-2.3c-0.1,0.2-0.2,0.4-0.3,0.7l-0.6,2.5c-0.2,0.8-0.1,1.7,0.4,2.4
		c0.4,0.7,1.1,1.2,1.9,1.4l9.6,2.4c0.2,0.1,0.5,0.1,0.8,0.1c1.5,0,2.7-1,3.1-2.4l0.6-2.5c0.2-0.8,0.1-1.7-0.4-2.4
		c-0.4-0.7-1.1-1.2-1.9-1.4L14.3,72C13.6,73.1,12.3,73.8,10.8,73.8z"/>
	<path fill="#FFFFFF" d="M3.7,62.6c0,0-0.1,0-0.1,0c-0.1,0-0.2,0-0.4,0c-1.2,0-2.2,0.8-2.5,1.9l-0.6,2.1c-0.4,1.4,0.4,2.8,1.8,3.2
		l8.2,2.3c1.4,0.4,2.8-0.5,3.2-1.8l0.6-2.1c0.4-1.4-0.4-2.8-1.8-3.2l-2.8-0.8c-0.2,0-0.4-0.1-0.6-0.1L3.7,62.6z"/>
	<path fill="#FFFFFF" d="M4.1,61l5,1.4c1.4,0.4,2.9-0.5,3.3-1.9l0.6-2.2c0.2-0.7,0.1-1.4-0.2-2c-0.4-0.6-0.9-1.1-1.6-1.3l-5-1.4
		c-0.2-0.1-0.5-0.1-0.7-0.1c-1.2,0-2.2,0.8-2.6,2l-0.6,2.2C1.9,59.1,2.7,60.6,4.1,61z"/>
	<path fill="#FFFFFF" d="M57.2,81.6"/>
</g>
</svg>
