<?xml version="1.0" encoding="utf-8"?>
<!-- Generator: Adobe Illustrator 18.0.0, SVG Export Plug-In . SVG Version: 6.00 Build 0)  -->
<!DOCTYPE svg PUBLIC "-//W3C//DTD SVG 1.1//EN" "http://www.w3.org/Graphics/SVG/1.1/DTD/svg11.dtd">
<svg version="1.1" id="Layer_1" xmlns="http://www.w3.org/2000/svg" xmlns:xlink="http://www.w3.org/1999/xlink" x="0px" y="0px"
	 viewBox="0 0 208.3 167.7" enable-background="new 0 0 208.3 167.7" xml:space="preserve">
<path fill="none" stroke="#FFFFFF" stroke-width="2.1621" stroke-linecap="round" stroke-linejoin="round" stroke-miterlimit="10" d="
	M161.7,126.1c-8,23.6-30.3,40.6-56.5,40.6c-27,0-49.8-18-57.2-42.6"/>
<path fill="none" stroke="#FFFFFF" stroke-width="2.1621" stroke-linecap="round" stroke-linejoin="round" stroke-miterlimit="10" d="
	M120.4,49.3c19.4,5.1,35,19.7,41.4,38.6"/>
<path fill="none" stroke="#FFFFFF" stroke-width="2.1621" stroke-linecap="round" stroke-linejoin="round" stroke-miterlimit="10" d="
	M48,90.2c5.9-19.9,21.8-35.5,42-40.8"/>
<path fill="none" stroke="#E6B209" stroke-width="2" stroke-linecap="round" stroke-linejoin="round" stroke-miterlimit="10" d="
	M132,27.8c0,14.8-12,26.8-26.8,26.8c-14.8,0-26.8-12-26.8-26.8S90.4,1,105.2,1C120,1,132,13,132,27.8"/>
<path fill="none" stroke="#E6B209" stroke-width="2" stroke-linecap="round" stroke-linejoin="round" stroke-miterlimit="10" d="
	M207.3,107c0,14.8-12,26.8-26.8,26.8c-14.8,0-26.8-12-26.8-26.8c0-14.8,12-26.8,26.8-26.8C195.3,80.2,207.3,92.2,207.3,107"/>
<circle fill="none" stroke="#E6B209" stroke-width="2" stroke-linecap="round" stroke-linejoin="round" stroke-miterlimit="10" cx="27.8" cy="106.5" r="26.8"/>
<g>
	<path fill="#E6B209" d="M191.6,96.3c0.3,0,0.6,0.3,0.6,0.6v3.2c0,0.3-0.3,0.6-0.6,0.6h-22.1c-0.3,0-0.6-0.3-0.6-0.6v-3.2
		c0-0.3,0.3-0.6,0.6-0.6H191.6 M191.6,104.8c0.3,0,0.6,0.3,0.6,0.6v3.8c0,0.3-0.3,0.6-0.6,0.6h-3.8c-0.3,0-0.6-0.3-0.6-0.6v-3.8
		c0-0.3,0.3-0.6,0.6-0.6H191.6 M182.4,104.8c0.3,0,0.6,0.3,0.6,0.6v3.8c0,0.3-0.3,0.6-0.6,0.6h-3.8c-0.3,0-0.6-0.3-0.6-0.6v-3.8
		c0-0.3,0.3-0.6,0.6-0.6H182.4 M173.3,104.8c0.3,0,0.6,0.3,0.6,0.6v3.8c0,0.3-0.3,0.6-0.6,0.6h-3.8c-0.3,0-0.6-0.3-0.6-0.6v-3.8
		c0-0.3,0.3-0.6,0.6-0.6H173.3 M191.6,113.8c0.3,0,0.6,0.3,0.6,0.6v3.8c0,0.3-0.3,0.6-0.6,0.6h-3.8c-0.3,0-0.6-0.3-0.6-0.6v-3.8
		c0-0.3,0.3-0.6,0.6-0.6H191.6 M182.4,113.8c0.3,0,0.6,0.3,0.6,0.6v3.8c0,0.3-0.3,0.6-0.6,0.6h-3.8c-0.3,0-0.6-0.3-0.6-0.6v-3.8
		c0-0.3,0.3-0.6,0.6-0.6H182.4 M173.3,113.8c0.3,0,0.6,0.3,0.6,0.6v3.8c0,0.3-0.3,0.6-0.6,0.6h-3.8c-0.3,0-0.6-0.3-0.6-0.6v-3.8
		c0-0.3,0.3-0.6,0.6-0.6H173.3 M191.6,95.3h-22.1c-0.9,0-1.6,0.7-1.6,1.6v3.2c0,0.9,0.7,1.6,1.6,1.6h22.1c0.9,0,1.6-0.7,1.6-1.6
		v-3.2C193.2,96.1,192.5,95.3,191.6,95.3L191.6,95.3z M191.6,103.8h-3.8c-0.9,0-1.6,0.7-1.6,1.6v3.8c0,0.9,0.7,1.6,1.6,1.6h3.8
		c0.9,0,1.6-0.7,1.6-1.6v-3.8C193.2,104.5,192.5,103.8,191.6,103.8L191.6,103.8z M182.4,103.8h-3.8c-0.9,0-1.6,0.7-1.6,1.6v3.8
		c0,0.9,0.7,1.6,1.6,1.6h3.8c0.9,0,1.6-0.7,1.6-1.6v-3.8C184,104.5,183.3,103.8,182.4,103.8L182.4,103.8z M173.3,103.8h-3.8
		c-0.9,0-1.6,0.7-1.6,1.6v3.8c0,0.9,0.7,1.6,1.6,1.6h3.8c0.9,0,1.6-0.7,1.6-1.6v-3.8C174.9,104.5,174.2,103.8,173.3,103.8
		L173.3,103.8z M191.6,112.8h-3.8c-0.9,0-1.6,0.7-1.6,1.6v3.8c0,0.9,0.7,1.6,1.6,1.6h3.8c0.9,0,1.6-0.7,1.6-1.6v-3.8
		C193.2,113.6,192.5,112.8,191.6,112.8L191.6,112.8z M182.4,112.8h-3.8c-0.9,0-1.6,0.7-1.6,1.6v3.8c0,0.9,0.7,1.6,1.6,1.6h3.8
		c0.9,0,1.6-0.7,1.6-1.6v-3.8C184,113.6,183.3,112.8,182.4,112.8L182.4,112.8z M173.3,112.8h-3.8c-0.9,0-1.6,0.7-1.6,1.6v3.8
		c0,0.9,0.7,1.6,1.6,1.6h3.8c0.9,0,1.6-0.7,1.6-1.6v-3.8C174.9,113.6,174.2,112.8,173.3,112.8L173.3,112.8z"/>
</g>
<g>
	<g>
		
			<path fill="none" stroke="#E6B209" stroke-width="1.5" stroke-linecap="round" stroke-linejoin="round" stroke-miterlimit="10" d="
			M40.4,107.3L40.1,94c0-3.1-2.2-5.7-5.3-5.7c-3.1,0-5.3,2.3-5.3,5.4l-0.3,13.6c-1.8,1.6-2.8,3.8-2.8,6.2c0,4.6,3.8,8.4,8.4,8.4
			c4.6,0,8.4-3.8,8.4-8.4C43.2,111.1,42.2,108.9,40.4,107.3z"/>
	</g>
	<path fill="none" stroke="#E6B209" stroke-width="1.5" stroke-linecap="round" stroke-linejoin="round" stroke-miterlimit="10" d="
		M37.5,110.6l-1.2-0.9V93.3c0,0-0.2-1.4-1.5-1.4c-1.3,0-1.5,1.4-1.5,1.4v16.4l-1.2,0.9c-1.2,0.9-1.8,2.2-1.8,3.6
		c0,2.5,2,4.2,4.5,4.2c2.5,0,4.5-1.7,4.5-4.2C39.3,112.7,38.7,111.4,37.5,110.6z"/>
</g>
<polyline fill="none" stroke="#E6B209" stroke-width="1.5" stroke-linecap="round" stroke-linejoin="round" stroke-miterlimit="10" points="
	24.4,118.9 14.3,118.9 14.3,105 8.4,105 23.3,91.9 26.6,94.7 "/>
<path fill="#E6B209" d="M111.5,25.4L112,21c1.2,0.5,2.3,1.5,2.5,1.6c0.5,0.5,1.4-0.8,1.9-1.5c0.2-0.3,0.2-0.6-0.1-0.8
	c-0.4-0.4-1.9-1.6-4.1-2l0.1-0.8c0-0.3-0.2-0.5-0.4-0.5l-0.3,0c-0.2,0-0.5,0.1-0.5,0.4l-0.1,0.8c-3.4-0.1-5.1,1.8-5.4,4.1
	c-0.3,3.2,2.1,4.8,4.3,5.9c-0.2,1.6-0.4,3.1-0.5,4.7c-1.4-0.5-2.8-1.8-2.9-1.8c-0.6-0.6-1.4,0.8-1.9,1.5c-0.3,0.3-0.2,0.5,0,0.7
	c0.4,0.5,1.8,1.9,4.4,2.4l-0.3,2.5c0,0.4,0.4,0.5,0.7,0.5c0.3,0,0.5-0.1,0.5-0.4l0.3-2.5c3.3,0.2,5.3-1.6,5.6-4.2
	C116.3,28.3,113.5,26.5,111.5,25.4z M110.3,24.7c-1.2-0.8-1.7-1.6-1.6-2.5c0.1-0.7,0.8-1.4,2-1.4L110.3,24.7z M110.7,33.1l0.5-4.3
	c1.1,0.8,1.7,1.7,1.6,2.6C112.6,32.4,111.8,33.1,110.7,33.1z"/>
<line fill="#25222D" stroke="#E6B209" stroke-width="2" stroke-linecap="round" stroke-linejoin="round" stroke-miterlimit="10" x1="94.8" y1="21.5" x2="100.8" y2="21.5"/>
<line fill="#25222D" stroke="#E6B209" stroke-width="2" stroke-linecap="round" stroke-linejoin="round" stroke-miterlimit="10" x1="99.8" y1="27" x2="87.8" y2="27"/>
<line fill="#25222D" stroke="#E6B209" stroke-width="2" stroke-linecap="round" stroke-linejoin="round" stroke-miterlimit="10" x1="99.8" y1="32.6" x2="94.3" y2="32.6"/>
</svg>
