<?xml version="1.0" encoding="utf-8"?>
<!-- Generator: Adobe Illustrator 18.0.0, SVG Export Plug-In . SVG Version: 6.00 Build 0)  -->
<!DOCTYPE svg PUBLIC "-//W3C//DTD SVG 1.1//EN" "http://www.w3.org/Graphics/SVG/1.1/DTD/svg11.dtd">
<svg version="1.1" id="Layer_1" xmlns="http://www.w3.org/2000/svg" xmlns:xlink="http://www.w3.org/1999/xlink" x="0px" y="0px"
	 viewBox="0 0 107.9 118.2" enable-background="new 0 0 107.9 118.2" xml:space="preserve">
<circle fill="none" stroke="#27242D" stroke-width="11.3331" stroke-miterlimit="10" cx="53.9" cy="64.3" r="48.3"/>
<rect x="38.9" y="42.6" fill="none" width="42.3" height="22"/>
<text transform="matrix(1 0 0 1 38.3687 62.3799)" fill="#E6B209" font-family="'BrandonGrotesque-Bold'" font-size="28.3084">70˚</text>
<rect x="25.6" y="77.3" fill="none" width="56.4" height="11"/>
<text transform="matrix(0.583 0 0 0.583 27.3951 82.5401)" fill="#E6B209" font-family="'BrandonGrotesque-Bold'" font-size="14.225">$</text>
<text transform="matrix(1 0 0 1 32.0806 87.2764)" fill="#E6B209" font-family="'BrandonGrotesque-Bold'" font-size="14.225">14.11</text>
<text transform="matrix(1 0 0 1 61.9947 87.2764)" fill="#E6B209" font-family="'BrandonGrotesque-Bold'" font-size="10.4905">/day</text>
<line fill="none" stroke="#27242D" stroke-width="2.1621" stroke-linecap="round" stroke-linejoin="round" stroke-miterlimit="10" x1="29.4" y1="69.4" x2="78.7" y2="69.4"/>
<polygon fill="#FFFFFF" stroke="#FFFFFF" stroke-width="0.9784" stroke-linecap="round" stroke-linejoin="round" stroke-miterlimit="10" points="
	24.6,50.3 27.5,47.4 30.4,50.3 "/>
<polygon fill="#FFFFFF" stroke="#FFFFFF" stroke-width="0.9784" stroke-linecap="round" stroke-linejoin="round" stroke-miterlimit="10" points="
	30.4,57.3 27.5,60.3 24.6,57.4 "/>
<circle fill="#E6B209" cx="34.2" cy="20.3" r="5.6"/>
<g>
	
		<line fill="#25222D" stroke="#E6B209" stroke-width="2" stroke-linecap="round" stroke-linejoin="round" stroke-miterlimit="10" x1="29.1" y1="8.7" x2="25.9" y2="1"/>
	
		<line fill="#25222D" stroke="#E6B209" stroke-width="2" stroke-linecap="round" stroke-linejoin="round" stroke-miterlimit="10" x1="34.8" y1="4.9" x2="34.1" y2="1.7"/>
	
		<line fill="#25222D" stroke="#E6B209" stroke-width="2" stroke-linecap="round" stroke-linejoin="round" stroke-miterlimit="10" x1="40" y1="4.9" x2="41.1" y2="1.7"/>
	
		<line fill="#25222D" stroke="#E6B209" stroke-width="2" stroke-linecap="round" stroke-linejoin="round" stroke-miterlimit="10" x1="15.8" y1="12.6" x2="18.8" y2="14"/>
	
		<line fill="#25222D" stroke="#E6B209" stroke-width="2" stroke-linecap="round" stroke-linejoin="round" stroke-miterlimit="10" x1="22.6" y1="10.1" x2="20.7" y2="7.3"/>
</g>
</svg>
