<?xml version="1.0" encoding="utf-8"?>
<!-- Generator: Adobe Illustrator 18.0.0, SVG Export Plug-In . SVG Version: 6.00 Build 0)  -->
<!DOCTYPE svg PUBLIC "-//W3C//DTD SVG 1.1//EN" "http://www.w3.org/Graphics/SVG/1.1/DTD/svg11.dtd">
<svg version="1.1" id="Layer_1" xmlns="http://www.w3.org/2000/svg" xmlns:xlink="http://www.w3.org/1999/xlink" x="0px" y="0px"
	 viewBox="0 0 107.7 117.5" enable-background="new 0 0 107.7 117.5" xml:space="preserve">
<g>
	<path fill="#E6B209" d="M61.2,106.2c-0.3,0-0.7-0.1-1-0.4c-0.2-0.2-5.1-4.3-7.5-8.6c-0.5,0.9-1.1,1.8-1.8,2.7v17.6h56.7
		c-1.3-4.4,0.1-11.6-14.6-16.7c-10.6-3.7-15.5-5.1-19.2-7.3l-11.6,12.2C62,106,61.6,106.2,61.2,106.2z M53.5,113.4
		c-0.9,0-1.6-0.7-1.6-1.6c0-0.9,0.7-1.6,1.6-1.6c0.9,0,1.6,0.7,1.6,1.6C55.1,112.7,54.3,113.4,53.5,113.4z M53.5,103.7
		c0.9,0,1.6,0.7,1.6,1.6c0,0.9-0.7,1.6-1.6,1.6c-0.9,0-1.6-0.7-1.6-1.6C51.9,104.4,52.6,103.7,53.5,103.7z"/>
	<path fill="#E6B209" d="M48,103.3c-1.4,1.4-2.5,2.4-2.7,2.5c-0.3,0.2-0.6,0.4-1,0.4c-0.4,0-0.8-0.2-1.1-0.5L32.3,94.2
		c-3.5,1.8-8.4,3.3-17.8,6.5C-0.1,105.8,1.4,113.1,0,117.5h48V103.3z"/>
	<path fill="#FFFFFF" d="M67.1,84.5c0.1-0.1,0.3-0.2,0.5-0.3c-0.3-2-0.3-3.9,0-4.8c1-2.7,4.7-4.1,7.4-9.8c1.3-2.8,3.2-9.7,3.2-13.2
		c0-3.3,2.7-3.6,4.3-6.3c1.7-2.7,2.3-8,2.2-8.9c-1.2-8.4-6.3-0.1-6.2-3.6c0.1-3.5,0.2-6,0.2-6s1.3-6.4,0.9-10.7
		C79.1,16.6,77.7,8,70.6,4.4c-1.1-0.6,1.1-4.7-0.3-4.4c-8,1.8-10.6,1.8-15.5,1.8h-1.9c-14.5,0-24.7,11.2-24.7,19
		c0,4.6,0.9,10.7,0.9,10.7s0.1,2.5,0.2,6c0.1,3.5-5-4.8-6.2,3.6c-0.1,0.9,0.5,6.2,2.2,8.9c1.7,2.7,4.3,3,4.3,6.3
		c0,3.7,1.9,10.7,3.1,13.5c2.7,5.8,6.5,6.9,7.5,9.6c0.4,1.1,0.2,3.7-0.3,6.2c2.5,1.9,8,5.9,13,7.4C59.4,91,67,84.5,67.1,84.5z
		 M70.9,28.8c0,0.5-0.5,0.9-1,0.9c0,0,0,0-0.1,0l-3.9-0.3c-0.6,0-1-0.5-0.9-1.1c0-0.5,0.5-0.9,1.1-0.9l3.9,0.3
		C70.5,27.8,71,28.2,70.9,28.8z M63.9,20.6l4.2-2.9c0.5-0.3,1.1-0.2,1.4,0.3c0.3,0.5,0.2,1.1-0.3,1.4L65,22.3
		c-0.2,0.1-0.4,0.2-0.6,0.2c-0.3,0-0.6-0.2-0.8-0.4C63.3,21.6,63.4,21,63.9,20.6z M63.2,34.5l2.9,2.2c0.4,0.3,0.5,1,0.2,1.4
		c-0.2,0.3-0.5,0.4-0.8,0.4c-0.2,0-0.4-0.1-0.6-0.2l-2.9-2.2c-0.4-0.3-0.5-1-0.2-1.4C62.1,34.3,62.7,34.2,63.2,34.5z M57.4,15.8
		l1.6-4.5c0.2-0.5,0.8-0.8,1.3-0.6c0.5,0.2,0.8,0.8,0.6,1.3l-1.6,4.5c-0.1,0.4-0.5,0.7-0.9,0.7c-0.1,0-0.2,0-0.3-0.1
		C57.5,16.9,57.2,16.4,57.4,15.8z M47.2,10.7c0.5-0.2,1.1,0.1,1.3,0.6l1.6,4.5c0.2,0.5-0.1,1.1-0.6,1.3c-0.1,0-0.2,0.1-0.3,0.1
		c-0.4,0-0.8-0.3-0.9-0.7L46.5,12C46.4,11.5,46.6,10.9,47.2,10.7z M37.9,18c0.3-0.5,0.9-0.6,1.4-0.3l4.2,2.9
		c0.5,0.3,0.6,0.9,0.3,1.4c-0.2,0.3-0.5,0.4-0.8,0.4c-0.2,0-0.4-0.1-0.6-0.2l-4.2-2.9C37.7,19.1,37.6,18.5,37.9,18z M37.6,29.7
		C37.5,29.7,37.5,29.7,37.6,29.7c-0.6,0-1-0.4-1.1-0.9c0-0.6,0.4-1,0.9-1.1l3.9-0.3c0.6,0,1,0.4,1.1,0.9c0,0.6-0.4,1-0.9,1.1
		L37.6,29.7z M45.5,36.1l-2.9,2.2c-0.2,0.1-0.4,0.2-0.6,0.2c-0.3,0-0.6-0.1-0.8-0.4c-0.3-0.4-0.3-1.1,0.2-1.4l2.9-2.2
		c0.4-0.3,1.1-0.2,1.4,0.2C46,35.2,45.9,35.8,45.5,36.1z M45.7,28.2c-0.3-2.4,0.4-4.6,1.9-6.3c1.5-1.6,3.6-2.5,6.1-2.5
		c2.5,0,4.5,0.9,6,2.5c1.5,1.6,2.2,3.9,2,6.3c-0.2,2.1-1.2,3.5-2.3,4.9c-0.9,1.2-1.7,2.3-2,3.7c-0.1,0.5-0.5,0.8-1,0.8H51
		c-0.5,0-0.9-0.3-1-0.8c-0.3-1.5-1.1-2.6-2-3.8C47,31.6,46,30.2,45.7,28.2z M50.1,38.8c0.3-0.4,0.9-0.5,1.4-0.2
		c0.1,0.1,0.6,0.1,2.3,0.1c1.7,0,2.2-0.1,2.3-0.2c0.4-0.3,1-0.2,1.4,0.2c0.3,0.4,0.2,1.1-0.2,1.4c-0.5,0.4-1.3,0.5-3.5,0.5
		c-2.1,0-3-0.1-3.5-0.5C49.8,39.9,49.7,39.2,50.1,38.8z M50.5,41.7c0.3-0.5,0.9-0.6,1.3-0.4c0.1,0,0.5,0.1,1.9,0.1
		c1.4,0,1.8-0.1,1.9-0.1c0.5-0.3,1.1-0.1,1.3,0.3c0.3,0.5,0.1,1.1-0.4,1.4c-0.5,0.3-1.1,0.4-2.9,0.4s-2.4-0.1-2.9-0.4
		C50.4,42.8,50.3,42.2,50.5,41.7z"/>
	<path fill="#E6B209" d="M47.7,28c0.2,1.5,1,2.6,1.9,3.9c0.8,1.1,1.6,2.2,2.1,3.8h4c0.5-1.5,1.3-2.7,2.1-3.7
		c0.9-1.3,1.8-2.4,1.9-3.9c0.2-1.9-0.4-3.6-1.5-4.8c-1.1-1.2-2.7-1.8-4.5-1.8c-1.9,0-3.5,0.7-4.6,1.9C48,24.5,47.5,26.1,47.7,28z"/>
	<path fill="#231F20" d="M51,37.6h5.6c0.5,0,0.9-0.3,1-0.8c0.3-1.5,1.1-2.6,2-3.7c1-1.4,2.1-2.8,2.3-4.9c0.2-2.4-0.5-4.7-2-6.3
		c-1.5-1.6-3.6-2.5-6-2.5c-2.5,0-4.6,0.9-6.1,2.5c-1.5,1.7-2.2,3.9-1.9,6.3c0.2,2,1.3,3.5,2.3,4.8c0.9,1.2,1.7,2.3,2,3.8
		C50.1,37.3,50.5,37.6,51,37.6z M53.8,21.4c1.9,0,3.5,0.6,4.5,1.8c1.1,1.2,1.6,2.9,1.5,4.8c-0.1,1.5-0.9,2.6-1.9,3.9
		c-0.8,1.1-1.6,2.2-2.1,3.7h-4c-0.5-1.5-1.3-2.7-2.1-3.8c-0.9-1.3-1.7-2.4-1.9-3.9c-0.2-1.8,0.3-3.5,1.4-4.7
		C50.2,22,51.8,21.4,53.8,21.4z"/>
	<path fill="#231F20" d="M53.8,43.4c1.8,0,2.4-0.1,2.9-0.4c0.5-0.3,0.7-0.9,0.4-1.4c-0.3-0.5-0.9-0.6-1.3-0.3
		c-0.1,0-0.5,0.1-1.9,0.1c-1.3,0-1.8-0.1-1.9-0.1c-0.5-0.3-1.1-0.1-1.3,0.4c-0.3,0.5-0.1,1.1,0.3,1.4C51.3,43.3,52,43.4,53.8,43.4z"
		/>
	<path fill="#231F20" d="M57.2,40.2c0.4-0.3,0.5-1,0.2-1.4c-0.3-0.4-0.9-0.5-1.4-0.2c-0.1,0.1-0.6,0.2-2.3,0.2
		c-1.7,0-2.2-0.1-2.3-0.1c-0.4-0.3-1-0.2-1.4,0.2c-0.3,0.4-0.3,1.1,0.2,1.4c0.5,0.4,1.3,0.5,3.5,0.5C55.9,40.7,56.7,40.6,57.2,40.2z
		"/>
	<path fill="#231F20" d="M44.3,34.5l-2.9,2.2c-0.4,0.3-0.5,1-0.2,1.4c0.2,0.3,0.5,0.4,0.8,0.4c0.2,0,0.4-0.1,0.6-0.2l2.9-2.2
		c0.4-0.3,0.5-1,0.2-1.4C45.3,34.3,44.7,34.2,44.3,34.5z"/>
	<path fill="#231F20" d="M42.4,22.3c0.2,0.1,0.4,0.2,0.6,0.2c0.3,0,0.6-0.2,0.8-0.4c0.3-0.5,0.2-1.1-0.3-1.4l-4.2-2.9
		c-0.5-0.3-1.1-0.2-1.4,0.3c-0.3,0.5-0.2,1.1,0.3,1.4L42.4,22.3z"/>
	<path fill="#231F20" d="M48.2,16.5c0.1,0.4,0.5,0.7,0.9,0.7c0.1,0,0.2,0,0.3-0.1c0.5-0.2,0.8-0.8,0.6-1.3l-1.6-4.5
		c-0.2-0.5-0.8-0.8-1.3-0.6c-0.5,0.2-0.8,0.8-0.6,1.3L48.2,16.5z"/>
	<path fill="#231F20" d="M42.4,28.4c0-0.5-0.5-0.9-1.1-0.9l-3.9,0.3c-0.6,0-1,0.5-0.9,1.1c0,0.5,0.5,0.9,1,0.9c0,0,0,0,0.1,0
		l3.9-0.3C42,29.4,42.5,28.9,42.4,28.4z"/>
	<path fill="#231F20" d="M61.9,36.1l2.9,2.2c0.2,0.1,0.4,0.2,0.6,0.2c0.3,0,0.6-0.1,0.8-0.4c0.3-0.4,0.3-1.1-0.2-1.4l-2.9-2.2
		c-0.4-0.3-1.1-0.2-1.4,0.2C61.4,35.2,61.5,35.8,61.9,36.1z"/>
	<path fill="#231F20" d="M64.5,22.5c0.2,0,0.4-0.1,0.6-0.2l4.2-2.9c0.5-0.3,0.6-0.9,0.3-1.4c-0.3-0.5-0.9-0.6-1.4-0.3l-4.2,2.9
		c-0.5,0.3-0.6,0.9-0.3,1.4C63.8,22.3,64.1,22.5,64.5,22.5z"/>
	<path fill="#231F20" d="M58,17.1c0.1,0,0.2,0.1,0.3,0.1c0.4,0,0.8-0.3,0.9-0.7l1.6-4.5c0.2-0.5-0.1-1.1-0.6-1.3
		c-0.5-0.2-1.1,0.1-1.3,0.6l-1.6,4.5C57.2,16.4,57.5,16.9,58,17.1z"/>
	<path fill="#231F20" d="M65,28.4c0,0.6,0.4,1,0.9,1.1l3.9,0.3c0,0,0,0,0.1,0c0.5,0,1-0.4,1-0.9c0-0.6-0.4-1-0.9-1.1l-3.9-0.3
		C65.5,27.5,65,27.8,65,28.4z"/>
	<path fill="#E6B209" d="M37.6,87.6l-3.8,3.8l10.7,11.2c1.8-1.7,4.7-4.7,6-7.3C45.2,93.3,39.8,89.4,37.6,87.6z"/>
	<path fill="#E6B209" d="M55.1,95.3c1.3,2.6,4.1,5.6,6,7.3l10.7-11.2L68,87.6C65.8,89.4,60.4,93.3,55.1,95.3z"/>
</g>
</svg>
