<?xml version="1.0" encoding="utf-8"?>
<!-- Generator: Adobe Illustrator 18.0.0, SVG Export Plug-In . SVG Version: 6.00 Build 0)  -->
<!DOCTYPE svg PUBLIC "-//W3C//DTD SVG 1.1//EN" "http://www.w3.org/Graphics/SVG/1.1/DTD/svg11.dtd">
<svg version="1.1" id="Layer_1" xmlns="http://www.w3.org/2000/svg" xmlns:xlink="http://www.w3.org/1999/xlink" x="0px" y="0px"
	 viewBox="0 0 5784.5 4784.7" enable-background="new 0 0 5784.5 4784.7" xml:space="preserve">
<line fill="none" stroke="#000000" stroke-width="15" stroke-miterlimit="10" x1="5236.3" y1="1053.3" x2="5784.5" y2="1053.3"/>
<polyline fill="none" stroke="#000000" stroke-width="15" stroke-miterlimit="10" points="5131.3,1053.3 5131.3,1585.3 
	5222.3,1585.3 "/>
<line fill="none" stroke="#000000" stroke-width="15" stroke-miterlimit="10" x1="4892.3" y1="1466.3" x2="4892.3" y2="1743.3"/>
<polyline fill="none" stroke="#000000" stroke-width="15" stroke-miterlimit="10" points="4146.3,1628.3 4418.3,1628.3 
	4892.3,1628.3 "/>
<line fill="none" stroke="#000000" stroke-width="15" stroke-miterlimit="10" x1="4418.3" y1="1486.3" x2="4418.3" y2="1628.3"/>
<line fill="none" stroke="#000000" stroke-width="15" stroke-miterlimit="10" x1="4257.3" y1="1628.3" x2="4257.3" y2="1721.3"/>
<polyline fill="none" stroke="#000000" stroke-width="15" stroke-miterlimit="10" points="4688.8,1790.9 4688.8,1910.9 
	4169.8,1910.9 "/>
<line fill="none" stroke="#000000" stroke-width="15" stroke-miterlimit="10" x1="4384.3" y1="2062.4" x2="4384.3" y2="1910.9"/>
<line fill="none" stroke="#000000" stroke-width="15" stroke-miterlimit="10" x1="4868.8" y1="1910.9" x2="5413.2" y2="1910.9"/>
<line fill="none" stroke="#000000" stroke-width="15" stroke-miterlimit="10" x1="5036.7" y1="2026.4" x2="5036.7" y2="1904.9"/>
<line fill="none" stroke="#000000" stroke-width="15" stroke-miterlimit="10" x1="5119.2" y1="1751.9" x2="5665.2" y2="1751.9"/>
<polyline fill="none" stroke="#000000" stroke-width="15" stroke-miterlimit="10" points="4393.3,2297.9 4393.3,2177.9 
	3854.8,2177.9 "/>
<polyline fill="none" stroke="#000000" stroke-width="15" stroke-miterlimit="10" points="5198.7,2311.9 5198.7,2191.9 
	4573.3,2191.9 "/>
<line fill="none" stroke="#000000" stroke-width="15" stroke-miterlimit="10" x1="4009.3" y1="2348.9" x2="4009.3" y2="2177.9"/>
<line fill="none" stroke="#000000" stroke-width="15" stroke-miterlimit="10" x1="3844.3" y1="2363.9" x2="3095.8" y2="2363.9"/>
<line fill="none" stroke="#000000" stroke-width="15" stroke-miterlimit="10" x1="3685.3" y1="2492.9" x2="3685.3" y2="2353.6"/>
<line fill="none" stroke="#000000" stroke-width="15" stroke-miterlimit="10" x1="4886" y1="2077.4" x2="4886" y2="2191.9"/>
<line fill="none" stroke="#000000" stroke-width="15" stroke-miterlimit="10" x1="5084.7" y1="2501.9" x2="5084.7" y2="2381.9"/>
<line fill="none" stroke="#000000" stroke-width="15" stroke-miterlimit="10" x1="4868.8" y1="2381.9" x2="5392.2" y2="2381.9"/>
<line fill="none" stroke="#000000" stroke-width="15" stroke-miterlimit="10" x1="5198.7" y1="2507.9" x2="5198.7" y2="2791.4"/>
<line fill="none" stroke="#000000" stroke-width="15" stroke-miterlimit="10" x1="5680.2" y1="2651.6" x2="5198.7" y2="2651.6"/>
<polyline fill="none" stroke="#000000" stroke-width="15" stroke-miterlimit="10" points="5123.7,3164.8 5123.7,2899.4 
	5596.2,2899.4 "/>
<line fill="none" stroke="#000000" stroke-width="15" stroke-miterlimit="10" x1="4952.8" y1="3277.3" x2="5425.2" y2="3277.3"/>
<line fill="none" stroke="#000000" stroke-width="15" stroke-miterlimit="10" x1="5156.7" y1="3388.3" x2="5156.7" y2="3505.3"/>
<line fill="none" stroke="#000000" stroke-width="15" stroke-miterlimit="10" x1="4952.8" y1="3505.3" x2="5425.2" y2="3505.3"/>
<line fill="none" stroke="#000000" stroke-width="15" stroke-miterlimit="10" x1="4718.8" y1="3679.3" x2="5324.7" y2="3679.3"/>
<polyline fill="none" stroke="#000000" stroke-width="15" stroke-miterlimit="10" points="5123.7,3781.3 5123.7,4061.8 
	5302.2,4061.8 "/>
<polyline fill="none" stroke="#000000" stroke-width="15" stroke-miterlimit="10" points="4952.8,3961.3 4952.8,3844.3 
	4150.3,3844.3 "/>
<line fill="none" stroke="#000000" stroke-width="15" stroke-miterlimit="10" x1="4551.5" y1="3844.3" x2="4551.5" y2="3496.3"/>
<polyline fill="none" stroke="#000000" stroke-width="15" stroke-miterlimit="10" points="4321.3,3496.3 4801.3,3496.3 
	4801.3,3277.3 "/>
<line fill="none" stroke="#000000" stroke-width="15" stroke-miterlimit="10" x1="4625.8" y1="3386.8" x2="4625.8" y2="3496.3"/>
<line fill="none" stroke="#000000" stroke-width="15" stroke-miterlimit="10" x1="4468.3" y1="3400.3" x2="4468.3" y2="3283.3"/>
<line fill="none" stroke="#000000" stroke-width="15" stroke-miterlimit="10" x1="4304.8" y1="3277.3" x2="4625.8" y2="3277.3"/>
<polyline fill="none" stroke="#000000" stroke-width="15" stroke-miterlimit="10" points="4136.8,3679.3 4136.8,3341.8 
	3706.3,3341.8 "/>
<line fill="none" stroke="#000000" stroke-width="15" stroke-miterlimit="10" x1="3898.3" y1="3679.3" x2="4373.8" y2="3679.3"/>
<polyline fill="none" stroke="#000000" stroke-width="15" stroke-miterlimit="10" points="4024.3,3976.3 4024.3,3856.3 
	2974.3,3856.3 "/>
<line fill="none" stroke="#000000" stroke-width="15" stroke-miterlimit="10" x1="3809.8" y1="3976.3" x2="3809.8" y2="3856.3"/>
<line fill="none" stroke="#000000" stroke-width="15" stroke-miterlimit="10" x1="3700.3" y1="3742.3" x2="3700.3" y2="3856.3"/>
<line fill="none" stroke="#000000" stroke-width="15" stroke-miterlimit="10" x1="3175.3" y1="3742.3" x2="3175.3" y2="3856.3"/>
<line fill="none" stroke="#000000" stroke-width="15" stroke-miterlimit="10" x1="3409.3" y1="3706.3" x2="3409.3" y2="3563.8"/>
<line fill="none" stroke="#000000" stroke-width="15" stroke-miterlimit="10" x1="2974.3" y1="3635.1" x2="3415.3" y2="3635.1"/>
<polyline fill="none" stroke="#000000" stroke-width="15" stroke-miterlimit="10" points="3514.3,3230.8 3514.3,3538.3 
	3827.8,3538.3 "/>
<line fill="none" stroke="#000000" stroke-width="15" stroke-miterlimit="10" x1="3700.3" y1="3241.3" x2="3700.3" y2="3430.3"/>
<polyline fill="none" stroke="#000000" stroke-width="15" stroke-miterlimit="10" points="3328.3,2914.4 3328.3,3100.3 
	4078.3,3100.3 4078.3,3211.3 "/>
<line fill="none" stroke="#000000" stroke-width="15" stroke-miterlimit="10" x1="3532.3" y1="2947.4" x2="3532.3" y2="2836.4"/>
<line fill="none" stroke="#000000" stroke-width="15" stroke-miterlimit="10" x1="3164.8" y1="2836.4" x2="3851.8" y2="2836.4"/>
<line fill="none" stroke="#000000" stroke-width="15" stroke-miterlimit="10" x1="3685.3" y1="2675.9" x2="3685.3" y2="2836.4"/>
<line fill="none" stroke="#000000" stroke-width="15" stroke-miterlimit="10" x1="3844.3" y1="2582.9" x2="4060.3" y2="2582.9"/>
<line fill="none" stroke="#000000" stroke-width="15" stroke-miterlimit="10" x1="3998.8" y1="2582.9" x2="3998.8" y2="2969.9"/>
<polyline fill="none" stroke="#000000" stroke-width="15" stroke-miterlimit="10" points="3491.8,2363.9 3491.8,1778.9 
	4009.3,1778.9 4009.3,2053.4 4105.3,2053.4 "/>
<polyline fill="none" stroke="#000000" stroke-width="15" stroke-miterlimit="10" points="3583.3,2062.4 3677.8,2062.4 
	3677.8,1778.9 "/>
<polyline fill="none" stroke="#000000" stroke-width="15" stroke-miterlimit="10" points="3491.8,1534.4 3491.8,1628.3 
	4015.3,1628.3 "/>
<polyline fill="none" stroke="#000000" stroke-width="15" stroke-miterlimit="10" points="3902.8,1534.4 3902.8,1448.9 
	3203.8,1448.9 3203.8,1584.4 "/>
<line fill="none" stroke="#000000" stroke-width="15" stroke-miterlimit="10" x1="3637.3" y1="1280.9" x2="4009.3" y2="1280.9"/>
<line fill="none" stroke="#000000" stroke-width="15" stroke-miterlimit="10" x1="3745.3" y1="1375.4" x2="3745.3" y2="1280.9"/>
<line fill="none" stroke="#000000" stroke-width="15" stroke-miterlimit="10" x1="3992.8" y1="747" x2="3992.8" y2="1135.4"/>
<line fill="none" stroke="#000000" stroke-width="15" stroke-miterlimit="10" x1="4139.8" y1="829.5" x2="4595.8" y2="829.5"/>
<line fill="none" stroke="#000000" stroke-width="15" stroke-miterlimit="10" x1="4418.3" y1="829.5" x2="4418.3" y2="618"/>
<polyline fill="none" stroke="#000000" stroke-width="15" stroke-miterlimit="10" points="4146.3,723.7 4146.3,625.5 4682.8,625.5 
	4682.8,526.5 "/>
<polyline fill="none" stroke="#000000" stroke-width="15" stroke-miterlimit="10" points="4697.8,941.2 4697.8,829.5 5131.3,829.5 
	"/>
<line fill="none" stroke="#000000" stroke-width="15" stroke-miterlimit="10" x1="5131.3" y1="936" x2="5131.3" y2="558"/>
<line fill="none" stroke="#000000" stroke-width="15" stroke-miterlimit="10" x1="4984.2" y1="549" x2="5525.7" y2="549"/>
<line fill="none" stroke="#000000" stroke-width="15" stroke-miterlimit="10" x1="4837.3" y1="738" x2="4837.3" y2="328.5"/>
<polyline fill="none" stroke="#000000" stroke-width="15" stroke-miterlimit="10" points="4426.3,456 4426.3,319.5 5212.2,319.5 
	5212.2,444 "/>
<line fill="none" stroke="#000000" stroke-width="15" stroke-miterlimit="10" x1="4780.3" y1="201" x2="5351.7" y2="201"/>
<line fill="none" stroke="#000000" stroke-width="15" stroke-miterlimit="10" x1="4780.3" y1="114" x2="4780.3" y2="1.3"/>
<polyline fill="none" stroke="#000000" stroke-width="15" stroke-miterlimit="10" points="5336.7,7.5 3139.3,7.5 3139.3,115.5 "/>
<polyline fill="none" stroke="#000000" stroke-width="15" stroke-miterlimit="10" points="2984.8,115.5 2984.8,7.5 757.5,7.5 "/>
<line fill="none" stroke="#000000" stroke-width="15" stroke-miterlimit="10" x1="2651.9" y1="123.5" x2="2651.9" y2="7.5"/>
<line fill="none" stroke="#000000" stroke-width="15" stroke-miterlimit="10" x1="2471.9" y1="115.5" x2="2471.9" y2="243"/>
<line fill="none" stroke="#000000" stroke-width="15" stroke-miterlimit="10" x1="1840.4" y1="115.5" x2="1840.4" y2="7.5"/>
<line fill="none" stroke="#000000" stroke-width="15" stroke-miterlimit="10" x1="2842.4" y1="121.5" x2="2842.4" y2="243"/>
<line fill="none" stroke="#000000" stroke-width="15" stroke-miterlimit="10" x1="3071.8" y1="243" x2="2296.4" y2="243"/>
<polyline fill="none" stroke="#000000" stroke-width="15" stroke-miterlimit="10" points="2156.9,121.5 2156.9,460.5 2393.9,460.5 
	2393.9,351 "/>
<line fill="none" stroke="#000000" stroke-width="15" stroke-miterlimit="10" x1="3320.8" y1="136.5" x2="4025.8" y2="136.5"/>
<polyline fill="none" stroke="#000000" stroke-width="15" stroke-miterlimit="10" points="4139.8,192 4139.8,298.5 3380.8,298.5 "/>
<line fill="none" stroke="#000000" stroke-width="15" stroke-miterlimit="10" x1="3607.3" y1="214.5" x2="3607.3" y2="291"/>
<line fill="none" stroke="#000000" stroke-width="15" stroke-miterlimit="10" x1="4283.8" y1="7.5" x2="4283.8" y2="114"/>
<polyline fill="none" stroke="#000000" stroke-width="15" stroke-miterlimit="10" points="4645.3,91.5 4645.3,201 4291.3,201 
	4291.3,533.2 "/>
<line fill="none" stroke="#000000" stroke-width="15" stroke-miterlimit="10" x1="3485.8" y1="411" x2="4291.3" y2="411"/>
<line fill="none" stroke="#000000" stroke-width="15" stroke-miterlimit="10" x1="3608.3" y1="556" x2="3608.3" y2="404.5"/>
<line fill="none" stroke="#000000" stroke-width="15" stroke-miterlimit="10" x1="3938.8" y1="498" x2="3938.8" y2="625.1"/>
<polyline fill="none" stroke="#000000" stroke-width="15" stroke-miterlimit="10" points="4025.8,618 3418.3,618 3418.3,756 "/>
<line fill="none" stroke="#000000" stroke-width="15" stroke-miterlimit="10" x1="3700.3" y1="795" x2="3700.3" y2="910.5"/>
<line fill="none" stroke="#000000" stroke-width="15" stroke-miterlimit="10" x1="3823.3" y1="910.5" x2="2974.3" y2="910.5"/>
<line fill="none" stroke="#000000" stroke-width="15" stroke-miterlimit="10" x1="3179.8" y1="795" x2="3179.8" y2="910.5"/>
<line fill="none" stroke="#000000" stroke-width="15" stroke-miterlimit="10" x1="3308.8" y1="687" x2="2974.3" y2="687"/>
<polyline fill="none" stroke="#000000" stroke-width="15" stroke-miterlimit="10" points="2143.4,564 2143.4,687 2741.9,687 
	2741.9,795 "/>
<line fill="none" stroke="#000000" stroke-width="15" stroke-miterlimit="10" x1="2464.4" y1="795" x2="2464.4" y2="679.5"/>
<polyline fill="none" stroke="#000000" stroke-width="15" stroke-miterlimit="10" points="2696.9,961.5 2696.9,898.5 2143.4,898.5 
	2143.4,1160.9 2539.4,1160.9 2539.4,1375.4 "/>
<polyline fill="none" stroke="#000000" stroke-width="15" stroke-miterlimit="10" points="2852.9,1448.9 2113.4,1448.9 
	2113.4,1748.9 "/>
<line fill="none" stroke="#000000" stroke-width="15" stroke-miterlimit="10" x1="2296.4" y1="1626.3" x2="3041.8" y2="1626.3"/>
<line fill="none" stroke="#000000" stroke-width="15" stroke-miterlimit="10" x1="2372.9" y1="1735.4" x2="2372.9" y2="1628.3"/>
<polyline fill="none" stroke="#000000" stroke-width="15" stroke-miterlimit="10" points="1879.4,1448.9 1879.4,1555.4 
	2113.4,1555.4 "/>
<line fill="none" stroke="#000000" stroke-width="15" stroke-miterlimit="10" x1="974.9" y1="1463.9" x2="1703.9" y2="1463.9"/>
<line fill="none" stroke="#000000" stroke-width="15" stroke-miterlimit="10" x1="1463.9" y1="1576.4" x2="1463.9" y2="1471.4"/>
<line fill="none" stroke="#000000" stroke-width="15" stroke-miterlimit="10" x1="1193.9" y1="1261.4" x2="1430.9" y2="1261.4"/>
<line fill="none" stroke="#000000" stroke-width="15" stroke-miterlimit="10" x1="1301.9" y1="1261.4" x2="1301.9" y2="1471.4"/>
<polyline fill="none" stroke="#000000" stroke-width="15" stroke-miterlimit="10" points="1681.4,1328.9 1681.4,1252.4 
	2009.9,1252.4 "/>
<polyline fill="none" stroke="#000000" stroke-width="15" stroke-miterlimit="10" points="133.5,1276.4 980.9,1276.4 980.9,1372.4 
	"/>
<line fill="none" stroke="#000000" stroke-width="15" stroke-miterlimit="10" x1="202.5" y1="1123.4" x2="1058.9" y2="1123.4"/>
<line fill="none" stroke="#000000" stroke-width="15" stroke-miterlimit="10" x1="916.4" y1="1026" x2="916.4" y2="813"/>
<line fill="none" stroke="#000000" stroke-width="15" stroke-miterlimit="10" x1="54" y1="946.5" x2="916.4" y2="946.5"/>
<polyline fill="none" stroke="#000000" stroke-width="15" stroke-miterlimit="10" points="1081.4,772.5 1081.4,655.5 229.5,655.5 
	"/>
<line fill="none" stroke="#000000" stroke-width="15" stroke-miterlimit="10" x1="995.9" y1="550.5" x2="995.9" y2="432"/>
<line fill="none" stroke="#000000" stroke-width="15" stroke-miterlimit="10" x1="1088.9" y1="432" x2="805.5" y2="432"/>
<polyline fill="none" stroke="#000000" stroke-width="15" stroke-miterlimit="10" points="1016.9,7.5 1016.9,243 2156.9,243 "/>
<line fill="none" stroke="#000000" stroke-width="15" stroke-miterlimit="10" x1="1553.9" y1="125.2" x2="1553.9" y2="243"/>
<polyline fill="none" stroke="#000000" stroke-width="15" stroke-miterlimit="10" points="3083.8,3173.8 3083.8,3098.9 
	2168.9,3098.9 "/>
<line fill="none" stroke="#000000" stroke-width="15" stroke-miterlimit="10" x1="2462.9" y1="3173.8" x2="2462.9" y2="3092.9"/>
<line fill="none" stroke="#000000" stroke-width="15" stroke-miterlimit="10" x1="2012.9" y1="3107.9" x2="2012.9" y2="2824.4"/>
<line fill="none" stroke="#000000" stroke-width="15" stroke-miterlimit="10" x1="2701.4" y1="2930.9" x2="2012.9" y2="2930.9"/>
<polyline fill="none" stroke="#000000" stroke-width="15" stroke-miterlimit="10" points="2582.9,2807.9 2582.9,2684.9 
	1832.9,2684.9 "/>
<polyline fill="none" stroke="#000000" stroke-width="15" stroke-miterlimit="10" points="1832.9,2341.4 1832.9,2452.4 
	2582.9,2452.4 "/>
<line fill="none" stroke="#000000" stroke-width="15" stroke-miterlimit="10" x1="2372.9" y1="2452.4" x2="2372.9" y2="2572.3"/>
<line fill="none" stroke="#000000" stroke-width="15" stroke-miterlimit="10" x1="2275.4" y1="1835.9" x2="2275.4" y2="2300.9"/>
<line fill="none" stroke="#000000" stroke-width="15" stroke-miterlimit="10" x1="2275.4" y1="2077.4" x2="3019.3" y2="2077.4"/>
<polyline fill="none" stroke="#000000" stroke-width="15" stroke-miterlimit="10" points="2678,2077.4 2678,2291.9 2413,2291.9 "/>
<polyline fill="none" stroke="#000000" stroke-width="15" stroke-miterlimit="10" points="1256.9,2228.9 2065.4,2228.9 
	2065.4,2353.6 "/>
<line fill="none" stroke="#000000" stroke-width="15" stroke-miterlimit="10" x1="1610.9" y1="2353.6" x2="1610.9" y2="2684.9"/>
<polyline fill="none" stroke="#000000" stroke-width="15" stroke-miterlimit="10" points="992.9,2623.4 992.9,2834.9 1783.4,2834.9 
	"/>
<line fill="none" stroke="#000000" stroke-width="15" stroke-miterlimit="10" x1="1265.9" y1="2834.9" x2="1265.9" y2="3011.9"/>
<line fill="none" stroke="#000000" stroke-width="15" stroke-miterlimit="10" x1="1141.4" y1="3107.9" x2="1826.9" y2="3107.9"/>
<line fill="none" stroke="#000000" stroke-width="15" stroke-miterlimit="10" x1="1637.9" y1="2930.9" x2="1637.9" y2="3098.9"/>
<line fill="none" stroke="#000000" stroke-width="15" stroke-miterlimit="10" x1="992.9" y1="3011.9" x2="992.9" y2="3199.3"/>
<line fill="none" stroke="#000000" stroke-width="15" stroke-miterlimit="10" x1="13.5" y1="3116.9" x2="995.4" y2="3116.9"/>
<polyline fill="none" stroke="#000000" stroke-width="15" stroke-miterlimit="10" points="13.5,3464.8 992.9,3464.8 992.9,3791.8 
	"/>
<polyline fill="none" stroke="#000000" stroke-width="15" stroke-miterlimit="10" points="992.9,3947.8 992.9,4048.3 1247.9,4048.3 
	"/>
<line fill="none" stroke="#000000" stroke-width="15" stroke-miterlimit="10" x1="1120.4" y1="4048.3" x2="1120.4" y2="4457.8"/>
<polyline fill="none" stroke="#000000" stroke-width="15" stroke-miterlimit="10" points="904.4,4457.8 1541.9,4457.8 
	1541.9,4561.3 "/>
<line fill="none" stroke="#000000" stroke-width="15" stroke-miterlimit="10" x1="1345.4" y1="4561.3" x2="1345.4" y2="4679.8"/>
<polyline fill="none" stroke="#000000" stroke-width="15" stroke-miterlimit="10" points="2992.3,4784.7 2992.3,4679.8 750,4679.8 
	"/>
<polyline fill="none" stroke="#000000" stroke-width="15" stroke-miterlimit="10" points="3140.8,4784.7 3140.8,4679.8 
	5333.7,4679.8 "/>
<line fill="none" stroke="#000000" stroke-width="15" stroke-miterlimit="10" x1="5215" y1="4537.3" x2="5215" y2="4670.8"/>
<line fill="none" stroke="#000000" stroke-width="15" stroke-miterlimit="10" x1="4511.8" y1="4586.8" x2="4511.8" y2="4679.8"/>
<polyline fill="none" stroke="#000000" stroke-width="15" stroke-miterlimit="10" points="3035.8,4349.8 3662.8,4349.8 
	3662.8,4580.8 "/>
<line fill="none" stroke="#000000" stroke-width="15" stroke-miterlimit="10" x1="3851.8" y1="4475.8" x2="3662.8" y2="4475.8"/>
<line fill="none" stroke="#000000" stroke-width="15" stroke-miterlimit="10" x1="3455.8" y1="4540.3" x2="3455.8" y2="4684.3"/>
<line fill="none" stroke="#000000" stroke-width="15" stroke-miterlimit="10" x1="3271.3" y1="4475.8" x2="3271.3" y2="4349.8"/>
<polyline fill="none" stroke="#000000" stroke-width="15" stroke-miterlimit="10" points="3851.8,4213.3 4033.3,4213.3 
	4033.3,4684.3 "/>
<line fill="none" stroke="#000000" stroke-width="15" stroke-miterlimit="10" x1="2555.9" y1="4355.8" x2="2743.4" y2="4355.8"/>
<polyline fill="none" stroke="#000000" stroke-width="15" stroke-miterlimit="10" points="2743.4,3865.3 2743.4,3635.1 
	2137.4,3635.1 2137.4,3341.8 2392.4,3341.8 "/>
<line fill="none" stroke="#000000" stroke-width="15" stroke-miterlimit="10" x1="2462.9" y1="3635.1" x2="2462.9" y2="3751.3"/>
<line fill="none" stroke="#000000" stroke-width="15" stroke-miterlimit="10" x1="2137.4" y1="3849.8" x2="2587.4" y2="3849.8"/>
<polyline fill="none" stroke="#000000" stroke-width="15" stroke-miterlimit="10" points="2587.4,4163.8 2587.4,4030.3 
	2035.4,4030.3 2035.4,4298.8 2431.4,4298.8 2431.4,4509.5 "/>
<line fill="none" stroke="#000000" stroke-width="15" stroke-miterlimit="10" x1="2662.4" y1="4540.3" x2="2662.4" y2="4679.8"/>
<line fill="none" stroke="#000000" stroke-width="15" stroke-miterlimit="10" x1="1715.9" y1="4450.3" x2="2246.9" y2="4450.3"/>
<line fill="none" stroke="#000000" stroke-width="15" stroke-miterlimit="10" x1="1904.9" y1="4450.3" x2="1904.9" y2="4679.8"/>
<polyline fill="none" stroke="#000000" stroke-width="15" stroke-miterlimit="10" points="1345.4,4190.8 1345.4,4295.8 
	1745.9,4295.8 1745.9,4178.8 "/>
<line fill="none" stroke="#000000" stroke-width="15" stroke-miterlimit="10" x1="1552.4" y1="4178.8" x2="1552.4" y2="4042.3"/>
<polyline fill="none" stroke="#000000" stroke-width="15" stroke-miterlimit="10" points="1444.4,4042.3 1901.9,4042.3 
	1901.9,4151.8 "/>
<line fill="none" stroke="#000000" stroke-width="15" stroke-miterlimit="10" x1="5123.7" y1="4219.3" x2="5123.7" y2="4355.8"/>
<line fill="none" stroke="#000000" stroke-width="15" stroke-miterlimit="10" x1="5060.7" y1="4355.8" x2="5639.7" y2="4355.8"/>
<polyline fill="none" stroke="#000000" stroke-width="15" stroke-miterlimit="10" points="601.5,2468.8 1409.9,2468.8 
	1409.9,2834.9 "/>
<line fill="none" stroke="#000000" stroke-width="15" stroke-miterlimit="10" x1="1115.9" y1="2468.8" x2="1115.9" y2="2252.9"/>
<line fill="none" stroke="#000000" stroke-width="15" stroke-miterlimit="10" x1="13.5" y1="2252.9" x2="985.5" y2="2252.9"/>
<polyline fill="none" stroke="#000000" stroke-width="15" stroke-miterlimit="10" points="985.5,2090.9 985.5,1600.4 133.5,1600.4 
	"/>
<line fill="none" stroke="#000000" stroke-width="15" stroke-miterlimit="10" x1="0" y1="1845.7" x2="855" y2="1845.7"/>
</svg>
